  0
SECTION
  2
HEADER
  9
$ACADVER
  1
AC1027
  9
$ACADMAINTVER
 70
   105
  9
$DWGCODEPAGE
  3
ANSI_1252
  9
$LASTSAVEDBY
  1
fernando
  9
$REQUIREDVERSIONS
160
                 0
  9
$INSBASE
 10
0.0
 20
0.0
 30
0.0
  9
$EXTMIN
 10
226.5866907465706
 20
236.0071131639722
 30
0.0
  9
$EXTMAX
 10
626.5866967070349
 20
486.0071131639722
 30
0.0
  9
$LIMMIN
 10
0.0
 20
0.0
  9
$LIMMAX
 10
841.0
 20
594.0
  9
$ORTHOMODE
 70
     0
  9
$REGENMODE
 70
     1
  9
$FILLMODE
 70
     1
  9
$QTEXTMODE
 70
     0
  9
$MIRRTEXT
 70
     1
  9
$LTSCALE
 40
1.0
  9
$ATTMODE
 70
     1
  9
$TEXTSIZE
 40
3.5
  9
$TRACEWID
 40
1.0
  9
$TEXTSTYLE
  7
Standard
  9
$CLAYER
  8
Layer1
  9
$CELTYPE
  6
ByLayer
  9
$CECOLOR
 62
   256
  9
$CELTSCALE
 40
1.0
  9
$DISPSILH
 70
     0
  9
$DIMSCALE
 40
1.0
  9
$DIMASZ
 40
3.301999999999999
  9
$DIMEXO
 40
1.0
  9
$DIMDLI
 40
3.75
  9
$DIMRND
 40
0.0
  9
$DIMDLE
 40
0.0
  9
$DIMEXE
 40
1.0
  9
$DIMTP
 40
0.0
  9
$DIMTM
 40
0.0
  9
$DIMTXT
 40
3.5
  9
$DIMCEN
 40
2.5
  9
$DIMTSZ
 40
0.0
  9
$DIMTOL
 70
     0
  9
$DIMLIM
 70
     0
  9
$DIMTIH
 70
     1
  9
$DIMTOH
 70
     1
  9
$DIMSE1
 70
     0
  9
$DIMSE2
 70
     0
  9
$DIMTAD
 70
     1
  9
$DIMZIN
 70
     0
  9
$DIMBLK
  1

  9
$DIMASO
 70
     1
  9
$DIMSHO
 70
     1
  9
$DIMPOST
  1

  9
$DIMAPOST
  1

  9
$DIMALT
 70
     0
  9
$DIMALTD
 70
     3
  9
$DIMALTF
 40
0.0393700787401575
  9
$DIMLFAC
 40
1.0
  9
$DIMTOFL
 70
     1
  9
$DIMTVP
 40
0.0
  9
$DIMTIX
 70
     0
  9
$DIMSOXD
 70
     0
  9
$DIMSAH
 70
     0
  9
$DIMBLK1
  1

  9
$DIMBLK2
  1

  9
$DIMSTYLE
  2
ISO-25
  9
$DIMCLRD
 70
     0
  9
$DIMCLRE
 70
     0
  9
$DIMCLRT
 70
     0
  9
$DIMTFAC
 40
1.0
  9
$DIMGAP
 40
1.524
  9
$DIMJUST
 70
     0
  9
$DIMSD1
 70
     0
  9
$DIMSD2
 70
     0
  9
$DIMTOLJ
 70
     0
  9
$DIMTZIN
 70
     0
  9
$DIMALTZ
 70
     0
  9
$DIMALTTZ
 70
     0
  9
$DIMUPT
 70
     0
  9
$DIMDEC
 70
     2
  9
$DIMTDEC
 70
     2
  9
$DIMALTU
 70
     2
  9
$DIMALTTD
 70
     3
  9
$DIMTXSTY
  7
Standard
  9
$DIMAUNIT
 70
     0
  9
$DIMADEC
 70
     2
  9
$DIMALTRND
 40
0.0
  9
$DIMAZIN
 70
     0
  9
$DIMDSEP
 70
    44
  9
$DIMATFIT
 70
     3
  9
$DIMFRAC
 70
     0
  9
$DIMLDRBLK
  1

  9
$DIMLUNIT
 70
     2
  9
$DIMLWD
 70
    -2
  9
$DIMLWE
 70
    -2
  9
$DIMTMOVE
 70
     0
  9
$DIMFXL
 40
1.0
  9
$DIMFXLON
 70
     0
  9
$DIMJOGANG
 40
0.7853981633974483
  9
$DIMTFILL
 70
     0
  9
$DIMTFILLCLR
 70
     0
  9
$DIMARCSYM
 70
     0
  9
$DIMLTYPE
  6

  9
$DIMLTEX1
  6

  9
$DIMLTEX2
  6

  9
$DIMTXTDIRECTION
 70
     0
  9
$LUNITS
 70
     2
  9
$LUPREC
 70
     2
  9
$SKETCHINC
 40
1.0
  9
$FILLETRAD
 40
10.0
  9
$AUNITS
 70
     0
  9
$AUPREC
 70
     2
  9
$MENU
  1
.
  9
$ELEVATION
 40
0.0
  9
$PELEVATION
 40
0.0
  9
$THICKNESS
 40
0.0
  9
$LIMCHECK
 70
     0
  9
$CHAMFERA
 40
0.0
  9
$CHAMFERB
 40
0.0
  9
$CHAMFERC
 40
0.0
  9
$CHAMFERD
 40
0.0
  9
$SKPOLY
 70
     0
  9
$TDCREATE
 40
2457743.625426447
  9
$TDUCREATE
 40
2457743.625426447
  9
$TDUPDATE
 40
2457743.633618924
  9
$TDUUPDATE
 40
2457743.633618924
  9
$TDINDWG
 40
0.0079202199
  9
$TDUSRTIMER
 40
0.0079202199
  9
$USRTIMER
 70
     1
  9
$ANGBASE
 50
0.0
  9
$ANGDIR
 70
     0
  9
$PDMODE
 70
     0
  9
$PDSIZE
 40
-1.0
  9
$PLINEWID
 40
0.0
  9
$SPLFRAME
 70
     0
  9
$SPLINETYPE
 70
     6
  9
$SPLINESEGS
 70
     8
  9
$HANDSEED
  5
8F1
  9
$SURFTAB1
 70
     6
  9
$SURFTAB2
 70
     6
  9
$SURFTYPE
 70
     6
  9
$SURFU
 70
     6
  9
$SURFV
 70
     6
  9
$UCSBASE
  2

  9
$UCSNAME
  2

  9
$UCSORG
 10
0.0
 20
0.0
 30
0.0
  9
$UCSXDIR
 10
1.0
 20
0.0
 30
0.0
  9
$UCSYDIR
 10
0.0
 20
1.0
 30
0.0
  9
$UCSORTHOREF
  2

  9
$UCSORTHOVIEW
 70
     0
  9
$UCSORGTOP
 10
0.0
 20
0.0
 30
0.0
  9
$UCSORGBOTTOM
 10
0.0
 20
0.0
 30
0.0
  9
$UCSORGLEFT
 10
0.0
 20
0.0
 30
0.0
  9
$UCSORGRIGHT
 10
0.0
 20
0.0
 30
0.0
  9
$UCSORGFRONT
 10
0.0
 20
0.0
 30
0.0
  9
$UCSORGBACK
 10
0.0
 20
0.0
 30
0.0
  9
$PUCSBASE
  2

  9
$PUCSNAME
  2

  9
$PUCSORG
 10
0.0
 20
0.0
 30
0.0
  9
$PUCSXDIR
 10
1.0
 20
0.0
 30
0.0
  9
$PUCSYDIR
 10
0.0
 20
1.0
 30
0.0
  9
$PUCSORTHOREF
  2

  9
$PUCSORTHOVIEW
 70
     0
  9
$PUCSORGTOP
 10
0.0
 20
0.0
 30
0.0
  9
$PUCSORGBOTTOM
 10
0.0
 20
0.0
 30
0.0
  9
$PUCSORGLEFT
 10
0.0
 20
0.0
 30
0.0
  9
$PUCSORGRIGHT
 10
0.0
 20
0.0
 30
0.0
  9
$PUCSORGFRONT
 10
0.0
 20
0.0
 30
0.0
  9
$PUCSORGBACK
 10
0.0
 20
0.0
 30
0.0
  9
$USERI1
 70
     0
  9
$USERI2
 70
     0
  9
$USERI3
 70
     0
  9
$USERI4
 70
     0
  9
$USERI5
 70
     0
  9
$USERR1
 40
0.0
  9
$USERR2
 40
0.0
  9
$USERR3
 40
0.0
  9
$USERR4
 40
0.0
  9
$USERR5
 40
0.0
  9
$WORLDVIEW
 70
     1
  9
$SHADEDGE
 70
     3
  9
$SHADEDIF
 70
    70
  9
$TILEMODE
 70
     1
  9
$MAXACTVP
 70
    64
  9
$PINSBASE
 10
0.0
 20
0.0
 30
0.0
  9
$PLIMCHECK
 70
     0
  9
$PEXTMIN
 10
1.000000000000000E+20
 20
1.000000000000000E+20
 30
1.000000000000000E+20
  9
$PEXTMAX
 10
-1.000000000000000E+20
 20
-1.000000000000000E+20
 30
-1.000000000000000E+20
  9
$PLIMMIN
 10
0.0
 20
0.0
  9
$PLIMMAX
 10
420.0
 20
297.0
  9
$UNITMODE
 70
     0
  9
$VISRETAIN
 70
     1
  9
$PLINEGEN
 70
     0
  9
$PSLTSCALE
 70
     1
  9
$TREEDEPTH
 70
  3020
  9
$CMLSTYLE
  2
Standard
  9
$CMLJUST
 70
     0
  9
$CMLSCALE
 40
20.0
  9
$PROXYGRAPHICS
 70
     1
  9
$MEASUREMENT
 70
     1
  9
$CELWEIGHT
370
    -1
  9
$ENDCAPS
280
     0
  9
$JOINSTYLE
280
     0
  9
$LWDISPLAY
290
     1
  9
$INSUNITS
 70
     4
  9
$HYPERLINKBASE
  1

  9
$STYLESHEET
  1

  9
$XEDIT
290
     1
  9
$CEPSNTYPE
380
     0
  9
$PSTYLEMODE
290
     1
  9
$FINGERPRINTGUID
  2
{F439B17D-0149-431B-BAFA-D3CADD3512D7}
  9
$VERSIONGUID
  2
{8FCAC1ED-D117-4A80-B0B3-BDF7480874EB}
  9
$EXTNAMES
290
     1
  9
$PSVPSCALE
 40
0.0
  9
$OLESTARTUP
290
     0
  9
$SORTENTS
280
   127
  9
$INDEXCTL
280
     0
  9
$HIDETEXT
280
     0
  9
$XCLIPFRAME
280
     2
  9
$HALOGAP
280
     0
  9
$OBSCOLOR
 70
   257
  9
$OBSLTYPE
280
     0
  9
$INTERSECTIONDISPLAY
280
     0
  9
$INTERSECTIONCOLOR
 70
   257
  9
$DIMASSOC
280
     1
  9
$PROJECTNAME
  1

  9
$CAMERADISPLAY
290
     0
  9
$LENSLENGTH
 40
50.0
  9
$CAMERAHEIGHT
 40
0.0
  9
$STEPSPERSEC
 40
2.0
  9
$STEPSIZE
 40
6.0
  9
$3DDWFPREC
 40
2.0
  9
$PSOLWIDTH
 40
0.25
  9
$PSOLHEIGHT
 40
4.0
  9
$LOFTANG1
 40
1.570796326794896
  9
$LOFTANG2
 40
1.570796326794896
  9
$LOFTMAG1
 40
0.0
  9
$LOFTMAG2
 40
0.0
  9
$LOFTPARAM
 70
     7
  9
$LOFTNORMALS
280
     1
  9
$LATITUDE
 40
37.795
  9
$LONGITUDE
 40
-122.394
  9
$NORTHDIRECTION
 40
0.0
  9
$TIMEZONE
 70
 -8000
  9
$LIGHTGLYPHDISPLAY
280
     1
  9
$TILEMODELIGHTSYNCH
280
     1
  9
$CMATERIAL
347
35A
  9
$SOLIDHIST
280
     0
  9
$SHOWHIST
280
     1
  9
$DWFFRAME
280
     2
  9
$DGNFRAME
280
     0
  9
$REALWORLDSCALE
290
     1
  9
$INTERFERECOLOR
 62
     1
  9
$INTERFEREOBJVS
345
37C
  9
$INTERFEREVPVS
346
379
  9
$CSHADOW
280
     0
  9
$SHADOWPLANELOCATION
 40
0.0
  0
ENDSEC
  0
SECTION
  2
CLASSES
  0
CLASS
  1
ACDBDICTIONARYWDFLT
  2
AcDbDictionaryWithDefault
  3
ObjectDBX Classes
 90
        0
 91
        1
280
     0
281
     0
  0
CLASS
  1
VISUALSTYLE
  2
AcDbVisualStyle
  3
ObjectDBX Classes
 90
     4095
 91
       24
280
     0
281
     0
  0
CLASS
  1
MATERIAL
  2
AcDbMaterial
  3
ObjectDBX Classes
 90
     1153
 91
        3
280
     0
281
     0
  0
CLASS
  1
SCALE
  2
AcDbScale
  3
ObjectDBX Classes
 90
     1153
 91
       33
280
     0
281
     0
  0
CLASS
  1
TABLESTYLE
  2
AcDbTableStyle
  3
ObjectDBX Classes
 90
     4095
 91
        1
280
     0
281
     0
  0
CLASS
  1
MLEADERSTYLE
  2
AcDbMLeaderStyle
  3
ACDB_MLEADERSTYLE_CLASS
 90
     4095
 91
        1
280
     0
281
     0
  0
CLASS
  1
SUN
  2
AcDbSun
  3
SCENEOE
 90
     1153
 91
        1
280
     0
281
     0
  0
CLASS
  1
ACDBSECTIONVIEWSTYLE
  2
AcDbSectionViewStyle
  3
ObjectDBX Classes
 90
     1025
 91
        1
280
     0
281
     0
  0
CLASS
  1
ACDBDETAILVIEWSTYLE
  2
AcDbDetailViewStyle
  3
ObjectDBX Classes
 90
     1025
 91
        1
280
     0
281
     0
  0
CLASS
  1
DICTIONARYVAR
  2
AcDbDictionaryVar
  3
ObjectDBX Classes
 90
        0
 91
        9
280
     0
281
     0
  0
CLASS
  1
CELLSTYLEMAP
  2
AcDbCellStyleMap
  3
ObjectDBX Classes
 90
     1152
 91
        3
280
     0
281
     0
  0
CLASS
  1
SORTENTSTABLE
  2
AcDbSortentsTable
  3
ObjectDBX Classes
 90
        0
 91
        1
280
     0
281
     0
  0
ENDSEC
  0
SECTION
  2
TABLES
  0
TABLE
  2
VPORT
  5
8
330
0
100
AcDbSymbolTable
 70
     1
  0
VPORT
  5
29
330
8
100
AcDbSymbolTableRecord
100
AcDbViewportTableRecord
  2
*Active
 70
     0
 10
0.0
 20
0.0
 11
1.0
 21
1.0
 12
438.8875364582509
 22
342.6295238057579
 13
0.0
 23
0.0
 14
10.0
 24
10.0
 15
10.0
 25
10.0
 16
0.0
 26
0.0
 36
1.0
 17
0.0
 27
0.0
 37
0.0
 40
421.010365368162
 41
2.189003436426117
 42
50.0
 43
0.0
 44
0.0
 50
0.0
 51
0.0
 71
     0
 72
  2000
 73
     1
 74
     3
 75
     0
 76
     0
 77
     0
 78
     0
281
     0
 65
     1
110
0.0
120
0.0
130
0.0
111
1.0
121
0.0
131
0.0
112
0.0
122
1.0
132
0.0
 79
     0
146
0.0
348
378
 60
     3
 61
     5
292
     1
282
     1
141
0.0
142
0.0
 63
   250
421
  3355443
1001
ACAD_NAV_VCDISPLAY
1070
     3
  0
ENDTAB
  0
TABLE
  2
LTYPE
  5
5
330
0
100
AcDbSymbolTable
 70
     7
  0
LTYPE
  5
14
330
5
100
AcDbSymbolTableRecord
100
AcDbLinetypeTableRecord
  2
ByBlock
 70
     0
  3

 72
    65
 73
     0
 40
0.0
  0
LTYPE
  5
15
330
5
100
AcDbSymbolTableRecord
100
AcDbLinetypeTableRecord
  2
ByLayer
 70
     0
  3

 72
    65
 73
     0
 40
0.0
  0
LTYPE
  5
16
330
5
100
AcDbSymbolTableRecord
100
AcDbLinetypeTableRecord
  2
Continuous
 70
     0
  3
Solid line
 72
    65
 73
     0
 40
0.0
  0
LTYPE
  5
6E
330
5
100
AcDbSymbolTableRecord
100
AcDbLinetypeTableRecord
  2
HIDDEN
 70
     0
  3
Hidden __ __ __ __ __ __ __ __ __ __ __ __ __ __
 72
    65
 73
     2
 40
1.905
 49
1.27
 74
     0
 49
-0.635
 74
     0
  0
LTYPE
  5
6F
330
5
100
AcDbSymbolTableRecord
100
AcDbLinetypeTableRecord
  2
PHANTOM
 70
     0
  3
Phantom ______  __  __  ______  __  __  ______
 72
    65
 73
     6
 40
12.7
 49
6.349999999999999
 74
     0
 49
-1.27
 74
     0
 49
1.27
 74
     0
 49
-1.27
 74
     0
 49
1.27
 74
     0
 49
-1.27
 74
     0
  0
LTYPE
  5
70
330
5
100
AcDbSymbolTableRecord
100
AcDbLinetypeTableRecord
  2
CENTER
 70
     0
  3
Center ____ _ ____ _ ____ _ ____ _ ____ _ ____
 72
    65
 73
     4
 40
10.16
 49
6.349999999999999
 74
     0
 49
-1.27
 74
     0
 49
1.27
 74
     0
 49
-1.27
 74
     0
  0
LTYPE
  5
71
330
5
100
AcDbSymbolTableRecord
100
AcDbLinetypeTableRecord
  2
CENTERX2
 70
     0
  3
Center (2x) ________  __  ________  __  _____
 72
    65
 73
     4
 40
20.32
 49
12.7
 74
     0
 49
-2.54
 74
     0
 49
2.54
 74
     0
 49
-2.54
 74
     0
  0
LTYPE
  5
72
330
5
100
AcDbSymbolTableRecord
100
AcDbLinetypeTableRecord
  2
DOT2
 70
     0
  3
Dot (.5x) ........................................
 72
    65
 73
     2
 40
0.635
 49
0.0
 74
     0
 49
-0.635
 74
     0
  0
ENDTAB
  0
TABLE
  2
LAYER
  5
2
102
{ACAD_XDICTIONARY
360
8DD
102
}
330
0
100
AcDbSymbolTable
 70
     3
  0
LAYER
  5
10
102
{ACAD_XDICTIONARY
360
397
102
}
330
2
100
AcDbSymbolTableRecord
100
AcDbLayerTableRecord
  2
0
 70
     0
 62
     7
  6
Continuous
370
    -3
390
F
347
36A
348
0
  0
LAYER
  5
73
102
{ACAD_XDICTIONARY
360
399
102
}
330
2
100
AcDbSymbolTableRecord
100
AcDbLayerTableRecord
  2
FORMAT
 70
     0
 62
     7
  6
Continuous
370
    -3
390
F
347
36A
348
0
  0
LAYER
  5
3AD
330
2
100
AcDbSymbolTableRecord
100
AcDbLayerTableRecord
  2
Layer1
 70
     0
 62
     1
  6
Continuous
370
    -3
390
F
347
36A
348
0
1001
AcAecLayerStandard
1000

1000

1001
AcCmTransparency
1071
        0
  0
ENDTAB
  0
TABLE
  2
STYLE
  5
3
330
0
100
AcDbSymbolTable
 70
     1
  0
STYLE
  5
11
330
3
100
AcDbSymbolTableRecord
100
AcDbTextStyleTableRecord
  2
Standard
 70
     0
 40
0.0
 41
1.0
 50
0.0
 71
     0
 42
3.5
  3
txt
  4

  0
ENDTAB
  0
TABLE
  2
VIEW
  5
6
330
0
100
AcDbSymbolTable
 70
     1
  0
ENDTAB
  0
TABLE
  2
UCS
  5
7
330
0
100
AcDbSymbolTable
 70
     0
  0
ENDTAB
  0
TABLE
  2
APPID
  5
9
330
0
100
AcDbSymbolTable
 70
     4
  0
APPID
  5
12
330
9
100
AcDbSymbolTableRecord
100
AcDbRegAppTableRecord
  2
ACAD
 70
     0
  0
APPID
  5
3A5
330
9
100
AcDbSymbolTableRecord
100
AcDbRegAppTableRecord
  2
ACAD_NAV_VCDISPLAY
 70
     0
  0
APPID
  5
3AE
330
9
100
AcDbSymbolTableRecord
100
AcDbRegAppTableRecord
  2
AcAecLayerStandard
 70
     0
  0
APPID
  5
3AF
330
9
100
AcDbSymbolTableRecord
100
AcDbRegAppTableRecord
  2
AcCmTransparency
 70
     0
  0
ENDTAB
  0
TABLE
  2
DIMSTYLE
  5
A
330
0
100
AcDbSymbolTable
 70
     2
100
AcDbDimStyleTable
 71
     1
340
27
  0
DIMSTYLE
105
27
330
A
100
AcDbSymbolTableRecord
100
AcDbDimStyleTableRecord
  2
ISO-25
 70
     0
 41
2.5
 42
0.625
 43
3.75
 44
1.25
 73
     0
 74
     0
 77
     1
 78
     8
140
2.5
141
2.5
143
0.03937007874016
147
0.625
171
     3
172
     1
271
     2
272
     2
274
     3
278
    44
283
     0
284
     8
340
11
  0
ENDTAB
  0
TABLE
  2
BLOCK_RECORD
  5
1
330
0
100
AcDbSymbolTable
 70
     2
  0
BLOCK_RECORD
  5
1F
102
{ACAD_XDICTIONARY
360
59D
102
}
330
1
100
AcDbSymbolTableRecord
100
AcDbBlockTableRecord
  2
*Model_Space
340
22
 70
     0
280
     1
281
     0
  0
BLOCK_RECORD
  5
1B
330
1
100
AcDbSymbolTableRecord
100
AcDbBlockTableRecord
  2
*Paper_Space
340
1E
 70
     0
280
     1
281
     0
  0
BLOCK_RECORD
  5
23
330
1
100
AcDbSymbolTableRecord
100
AcDbBlockTableRecord
  2
*Paper_Space0
340
26
 70
     0
280
     1
281
     0
  0
ENDTAB
  0
ENDSEC
  0
SECTION
  2
BLOCKS
  0
BLOCK
  5
20
330
1F
100
AcDbEntity
  8
0
100
AcDbBlockBegin
  2
*Model_Space
 70
     0
 10
0.0
 20
0.0
 30
0.0
  3
*Model_Space
  1

  0
ENDBLK
  5
21
330
1F
100
AcDbEntity
  8
0
100
AcDbBlockEnd
  0
BLOCK
  5
1C
330
1B
100
AcDbEntity
 67
     1
  8
0
100
AcDbBlockBegin
  2
*Paper_Space
 70
     0
 10
0.0
 20
0.0
 30
0.0
  3
*Paper_Space
  1

  0
ENDBLK
  5
1D
330
1B
100
AcDbEntity
 67
     1
  8
0
100
AcDbBlockEnd
  0
BLOCK
  5
24
330
23
100
AcDbEntity
 67
     1
  8
0
100
AcDbBlockBegin
  2
*Paper_Space0
 70
     0
 10
0.0
 20
0.0
 30
0.0
  3
*Paper_Space0
  1

  0
ENDBLK
  5
25
330
23
100
AcDbEntity
 67
     1
  8
0
100
AcDbBlockEnd
  0
ENDSEC
  0
SECTION
  2
ENTITIES
  0
LINE
  5
165
330
1F
100
AcDbEntity
  8
0
  6
Continuous
 62
     7
370
    15
100
AcDbLine
 10
401.5866933542738
 20
256.0071164422277
 30
0.0
 11
451.5866940993318
 21
256.0071164422277
 31
0.0
  0
LINE
  5
166
330
1F
100
AcDbEntity
  8
0
  6
Continuous
 62
     7
370
    15
100
AcDbLine
 10
451.5866940993318
 20
256.0071164422277
 30
0.0
 11
451.5866940993318
 21
356.0071132757309
 31
0.0
  0
LINE
  5
167
330
1F
100
AcDbEntity
  8
0
  6
Continuous
 62
     7
370
    15
100
AcDbLine
 10
451.5866940993318
 20
356.0071132757309
 30
0.0
 11
401.5866933542738
 21
356.0071132757309
 31
0.0
  0
LINE
  5
168
330
1F
100
AcDbEntity
  8
0
  6
Continuous
 62
     7
370
    15
100
AcDbLine
 10
401.5866933542738
 20
356.0071132757309
 30
0.0
 11
401.5866933542738
 21
256.0071164422277
 31
0.0
  0
CIRCLE
  5
169
330
1F
100
AcDbEntity
  8
0
  6
Continuous
 62
     7
370
    15
100
AcDbCircle
 10
551.5866937268027
 20
436.0071131639722
 30
0.0
 40
29.99999999999995
  0
CIRCLE
  5
16A
330
1F
100
AcDbEntity
  8
0
  6
Continuous
 62
     7
370
    15
100
AcDbCircle
 10
301.5866937268029
 20
436.0071131639722
 30
0.0
 40
30.00000000000006
  0
CIRCLE
  5
16B
330
1F
100
AcDbEntity
  8
0
  6
Continuous
 62
     7
370
    15
100
AcDbCircle
 10
426.5866937268028
 20
436.0071131639722
 30
0.0
 40
30.0
  0
LINE
  5
16C
330
1F
100
AcDbEntity
  8
0
  6
Continuous
 62
     7
370
    15
100
AcDbLine
 10
226.5866907465706
 20
236.0071131639722
 30
0.0
 11
626.5866967070349
 21
236.0071131639722
 31
0.0
  0
LINE
  5
16D
330
1F
100
AcDbEntity
  8
0
  6
Continuous
 62
     7
370
    15
100
AcDbLine
 10
226.5866907465706
 20
486.0071131639722
 30
0.0
 11
226.5866907465706
 21
236.0071131639722
 31
0.0
  0
LINE
  5
16E
330
1F
100
AcDbEntity
  8
0
  6
Continuous
 62
     7
370
    15
100
AcDbLine
 10
626.5866967070349
 20
486.0071131639722
 30
0.0
 11
226.5866907465706
 21
486.0071131639722
 31
0.0
  0
LINE
  5
16F
330
1F
100
AcDbEntity
  8
0
  6
Continuous
 62
     7
370
    15
100
AcDbLine
 10
626.5866967070349
 20
236.0071131639722
 30
0.0
 11
626.5866967070349
 21
486.0071131639722
 31
0.0
  0
LINE
  5
170
330
1F
100
AcDbEntity
  8
0
  6
Continuous
 62
     7
370
    15
100
AcDbLine
 10
326.5866922366867
 20
356.0071132757309
 30
0.0
 11
276.5866877663384
 21
356.0071132757309
 31
0.0
  0
LINE
  5
171
330
1F
100
AcDbEntity
  8
0
  6
Continuous
 62
     7
370
    15
100
AcDbLine
 10
276.5866877663384
 20
356.0071132757309
 30
0.0
 11
276.5866877663384
 21
256.0071164422277
 31
0.0
  0
LINE
  5
172
330
1F
100
AcDbEntity
  8
0
  6
Continuous
 62
     7
370
    15
100
AcDbLine
 10
276.5866877663384
 20
256.0071164422277
 30
0.0
 11
326.5866922366867
 21
256.0071164422277
 31
0.0
  0
LINE
  5
173
330
1F
100
AcDbEntity
  8
0
  6
Continuous
 62
     7
370
    15
100
AcDbLine
 10
326.5866922366867
 20
256.0071164422277
 30
0.0
 11
326.5866922366867
 21
356.0071132757309
 31
0.0
  0
LINE
  5
174
330
1F
100
AcDbEntity
  8
0
  6
Continuous
 62
     7
370
    15
100
AcDbLine
 10
526.5866952169188
 20
256.0071164422277
 30
0.0
 11
576.5866996872672
 21
256.0071164422277
 31
0.0
  0
LINE
  5
175
330
1F
100
AcDbEntity
  8
0
  6
Continuous
 62
     7
370
    15
100
AcDbLine
 10
576.5866996872672
 20
256.0071164422277
 30
0.0
 11
576.5866996872672
 21
356.0071132757309
 31
0.0
  0
LINE
  5
176
330
1F
100
AcDbEntity
  8
0
  6
Continuous
 62
     7
370
    15
100
AcDbLine
 10
576.5866996872672
 20
356.0071132757309
 30
0.0
 11
526.5866952169188
 21
356.0071132757309
 31
0.0
  0
LINE
  5
177
330
1F
100
AcDbEntity
  8
0
  6
Continuous
 62
     7
370
    15
100
AcDbLine
 10
526.5866952169188
 20
356.0071132757309
 30
0.0
 11
526.5866952169188
 21
256.0071164422277
 31
0.0
  0
LWPOLYLINE
  5
3CE
330
1F
100
AcDbEntity
  8
Layer1
100
AcDbPolyline
 90
       24
 70
     1
 43
0.0
 10
242.8378673422584
 20
298.0079913192037
 10
241.6157635081062
 20
298.0079913192037
 10
240.5290069210777
 20
295.0004452519658
 10
240.5290069210777
 20
298.0079913192037
 10
238.9648767340431
 20
298.0079913192037
 10
238.9648767340431
 20
295.0004452519658
 10
237.8781052458534
 20
298.0079913192037
 10
236.7935987341652
 20
298.0079913192037
 10
236.7935987341652
 20
286.0345209315321
 42
0.4142135176932298
 10
243.9946720243642
 20
278.8334465428337
 10
252.037932130606
 20
278.8334453158621
 42
0.4142135702066219
 10
259.2390076178033
 20
286.0345187986567
 10
259.2390092242012
 20
298.8038586132768
 10
258.3941133845101
 20
298.8038586132768
 10
257.0197643864403
 20
295.0004452519658
 10
257.0197643864403
 20
298.8038586132768
 10
255.4556341994056
 20
298.8038586132768
 10
255.4556341994056
 20
295.0004452519658
 10
254.0812852013359
 20
298.8038586132768
 10
253.2645674574623
 20
298.8038586132768
 10
253.2645653540456
 20
287.0717665729809
 42
-0.4142135098610168
 10
250.9014502974075
 20
284.7086519400198
 10
245.2009851880164
 20
284.7086519400197
 42
-0.4142134876750792
 10
242.8378701313784
 20
287.0717663939807
  0
LWPOLYLINE
  5
3DB
330
1F
100
AcDbEntity
  8
Layer1
100
AcDbPolyline
 90
       12
 70
     1
 43
0.0
 10
248.7465835671064
 20
276.4245707790473
 10
243.9946653427954
 20
276.4245683007491
 42
0.4142135136726648
 10
236.793594709728
 20
269.2234913537701
 10
236.7935987341652
 20
257.8954735450986
 10
259.2390092242012
 20
257.8954735450986
 10
259.2390092242012
 20
263.7586259894613
 10
242.6346602070579
 20
263.7586259894613
 10
242.6346602070579
 20
270.5512979679349
 10
249.6673973429451
 20
270.5512979679349
 10
249.6673973429451
 20
265.0456541829351
 10
255.9476556408653
 20
265.0456541829351
 10
255.9476617114262
 20
269.2234859269065
 42
0.4142141407132882
  0
LWPOLYLINE
  5
400
330
1F
100
AcDbEntity
  8
Layer1
100
AcDbPolyline
 90
       36
 70
     1
 43
0.0
 10
259.2390092242012
 20
254.1058772855047
 10
257.5874986279259
 20
254.1058772855047
 10
257.5874986279259
 20
253.0333513074163
 10
255.7444783079872
 20
253.0333513074163
 10
255.7444783079872
 20
254.1058772855047
 10
253.1700791943321
 20
254.1058772855047
 10
253.1700791943321
 20
253.0333513074163
 10
250.5534501898536
 20
253.0333513074163
 10
250.5534501898536
 20
254.1058772855047
 10
248.1717081892738
 20
254.1058772855047
 10
248.1717081892738
 20
253.0333513074163
 10
245.3738363611946
 20
253.0333513074163
 10
245.3738363611946
 20
254.1058772855047
 10
243.0331321585426
 20
254.1058772855047
 10
243.0331321585426
 20
253.0333513074163
 10
240.2653755772361
 20
253.0333513074163
 10
240.2653755772361
 20
254.1058772855047
 10
236.7935987341652
 20
254.1058772855047
 10
236.7935987341652
 20
246.3121825509313
 10
238.5597439635048
 20
246.3121825509313
 10
238.5597439635048
 20
247.5992107444051
 10
240.3760763037452
 20
247.5992107444051
 10
240.3760763037452
 20
246.3121825509313
 10
242.9784299958
 20
246.3121825509313
 10
242.9784299958
 20
247.5992107444051
 10
245.4940440285453
 20
247.5992107444051
 10
245.4940440285453
 20
246.3121825509313
 10
248.1253059733162
 20
246.3121825509313
 10
248.1253059733162
 20
247.5992107444051
 10
250.5541803467521
 20
247.5992107444051
 10
250.5541803467521
 20
246.3121825509313
 10
253.1796457398185
 20
246.3121825509313
 10
253.1796457398185
 20
247.5992107444051
 10
255.913576685215
 20
247.5992107444051
 10
255.913576685215
 20
246.3121825509313
 10
259.2390092242012
 20
246.3121825509313
  0
LWPOLYLINE
  5
410
330
1F
100
AcDbEntity
  8
Layer1
100
AcDbPolyline
 90
       15
 70
     1
 43
0.0
 10
242.9245771992454
 20
310.8602875523809
 10
249.8885901797065
 20
313.2619598560575
 10
249.8885901797065
 20
311.2176770024541
 10
251.820302211071
 20
308.6593338899854
 10
251.820302211071
 20
310.81971169045
 10
253.9224388230095
 20
307.9581560247186
 10
253.9224388230095
 20
309.9479825847391
 10
255.7973327267418
 20
307.5791449897531
 10
255.7973327267418
 20
315.2997010998968
 10
259.2390092242012
 20
316.4866307430509
 10
259.2390092242012
 20
322.6584458403829
 10
236.7935987341652
 20
314.9177135579828
 10
236.7935987341652
 20
306.9475145690683
 10
259.2390092242012
 20
299.2067785613778
 10
259.2390092242012
 20
305.2339443617109
  0
LWPOLYLINE
  5
436
330
1F
100
AcDbEntity
  8
Layer1
100
AcDbPolyline
 90
        7
 70
     1
 43
0.0
 10
245.1327057707553
 20
416.5749663167252
 42
-0.319952769125678
 10
244.9216606247673
 20
415.6895765714887
 42
-0.2768832751608493
 10
244.1072525608786
 20
415.5475685053113
 42
-0.2713562085003849
 10
243.615767561222
 20
416.2179829232934
 42
-0.3202077651647897
 10
244.1126169789085
 20
417.011596416736
 10
244.3676652539024
 20
417.0610198431257
 10
244.699946247364
 20
417.009599661136
 42
-0.1887603178611344
  0
LWPOLYLINE
  5
437
330
1F
100
AcDbEntity
  8
Layer1
100
AcDbPolyline
 90
       30
 70
     1
 43
0.0
 10
259.442469679142
 20
423.8464573078397
 10
253.4681918251762
 20
423.8403254800084
 42
0.0677973565153688
 10
246.8239726650961
 20
423.7079659157041
 42
0.266537704097523
 10
243.4450300562629
 20
420.8400623553041
 10
243.2535054314384
 20
420.1283642702344
 10
243.17114671352
 20
419.0490955167058
 10
243.160462580944
 20
418.4116834454778
 10
243.0200489390144
 20
418.3194229059461
 10
242.7478345263252
 20
418.09829712441
 10
242.4220504391441
 20
417.7504332416299
 10
242.2329696047554
 20
417.4410814099553
 10
242.0452894795189
 20
417.0143531315568
 10
241.9406684267769
 20
416.368119572902
 10
242.0452894795189
 20
415.5429528706315
 10
242.1819480288276
 20
415.2159282617811
 10
242.4220504391441
 20
414.8068727605584
 10
242.6646711457023
 20
414.5382383518461
 10
243.0132838118324
 20
414.2387063853982
 10
243.450722299839
 20
414.00719449451
 10
244.0634878504523
 20
413.8354250841382
 42
0.4963060773946077
 10
246.846786342884
 20
416.6187161259895
 10
246.5506108629951
 20
417.4790719204191
 10
245.7821877825508
 20
418.3218331687692
 10
245.6370802748451
 20
418.4165076964143
 10
245.6478985178718
 20
418.9139084570649
 10
245.6766875612983
 20
419.465147113109
 10
245.7814874279747
 20
419.9414441042188
 42
-0.2905353516057594
 10
247.4833043444438
 20
421.3188627414947
 42
-0.0165891710627863
 10
253.5634847510118
 20
421.3641287439111
 10
259.442469679142
 20
421.370193516517
  0
LWPOLYLINE
  5
452
330
1F
100
AcDbEntity
  8
Layer1
100
AcDbPolyline
 90
        4
 70
     1
 43
0.0
 10
239.7363098490486
 20
421.1152570002321
 10
239.7363098490486
 20
419.8875615053418
 10
238.5086180794487
 20
419.8875615053418
 10
238.5086180794487
 20
421.1152570002321
  0
LWPOLYLINE
  5
453
330
1F
100
AcDbEntity
  8
Layer1
100
AcDbPolyline
 90
       22
 70
     1
 43
0.0
 10
259.442469679142
 20
427.3388201051
 10
250.8329661715265
 20
427.3328298383001
 42
0.0111717168250223
 10
242.0011224377403
 20
427.2890725784544
 10
240.7784523594627
 20
426.9645997934583
 10
239.5276190865287
 20
426.2596109562162
 10
239.1516776907692
 20
425.9139263682607
 10
238.7328209507713
 20
425.4350626521352
 10
238.2087024081001
 20
424.4538062863592
 10
237.8958823311577
 20
422.9756781511548
 42
0.0038885440730705
 10
237.8735045675363
 20
422.6497618635599
 10
237.4291332590828
 20
422.6392285578493
 10
236.9846465218315
 20
422.6392285578493
 10
236.9846465218315
 20
418.3635899477247
 10
241.2602814066658
 20
418.3635899477247
 10
241.2602814066658
 20
422.6392285578493
 10
240.3713228333244
 20
422.6392285578493
 10
240.3714569437751
 20
422.7186033182386
 10
240.3990091908226
 20
422.9739533417467
 10
240.4769422638663
 20
423.355259155536
 42
-0.3037631652035557
 10
242.2112735140022
 20
424.8065391235581
 42
-0.0094251780882068
 10
250.9266050684706
 20
424.8405733757261
 10
259.442469679142
 20
424.8405733757261
  0
LWPOLYLINE
  5
47C
330
1F
100
AcDbEntity
  8
Layer1
100
AcDbPolyline
 90
        9
 70
     1
 43
0.0
 10
242.1187373030433
 20
435.2771157078985
 10
241.3885207999
 20
435.2761396818403
 10
240.8265559971607
 20
435.2836932325232
 10
240.7389993651958
 20
435.2945575636188
 42
-0.0477440372749693
 10
241.7265536415825
 20
436.3932201318982
 42
-0.028712088707147
 10
242.221257292057
 20
435.8472415857557
 10
242.6616313088188
 20
435.3403711371663
 10
242.7021663529758
 20
435.290176338518
 10
242.5801517594108
 20
435.2840447478536
  0
LWPOLYLINE
  5
47D
330
1F
100
AcDbEntity
  8
Layer1
100
AcDbPolyline
 90
       31
 70
     1
 43
0.0
 10
259.442469679142
 20
430.8302888326887
 10
244.9539067375908
 20
430.8418595843557
 10
244.7316410172233
 20
430.8976718836072
 42
-0.2398169034120659
 10
243.2175787318
 20
431.9376090221647
 10
243.037393890644
 20
432.4310907774213
 10
242.9596098292122
 20
433.3652594738248
 10
242.9473461735496
 20
433.9418971591237
 10
245.6383170712242
 20
433.9527824573758
 10
243.6895581114539
 20
436.154131000543
 42
0.0109928633820435
 10
241.7259277928123
 20
438.361544316316
 10
241.7258830893287
 20
438.3615517668966
 10
241.7258085835228
 20
438.361544316316
 10
241.7255701649437
 20
438.3614400081876
 10
241.7248996126899
 20
438.36097062161
 10
241.7142750847587
 20
438.3507037215474
 10
241.5659042227516
 20
438.1897041254284
 10
240.8498587239035
 20
437.3911061935666
 10
239.7565009224658
 20
436.1601957731484
 10
237.8019603121528
 20
433.9527824573758
 10
240.4721887934456
 20
433.9418971591237
 10
240.483215652729
 20
433.2488814049009
 10
240.509501301075
 20
432.5195366196874
 10
240.6146140921364
 20
431.8598920159582
 10
240.8948006260643
 20
431.013148432279
 10
241.4658876288185
 20
430.0687128358129
 10
241.7795272696266
 20
429.7315070085767
 10
242.2340126860389
 20
429.3353223853353
 10
243.1994291174659
 20
428.7801200204137
 10
244.6999462473639
 20
428.3720070176366
 42
0.0053953943253457
 10
252.1558912623089
 20
428.3390009455922
 10
259.442469679142
 20
428.3323848300222
  0
LWPOLYLINE
  5
48A
330
1F
100
AcDbEntity
  8
Layer1
100
AcDbPolyline
 90
       12
 70
     1
 43
0.0
 10
254.5995624888191
 20
441.9051671080831
 42
0.0871108088659062
 10
253.0460270273933
 20
441.9383743458036
 42
0.0423904480744408
 10
251.4701696264991
 20
441.9114404969457
 10
251.4515133726844
 20
441.8977761321309
 10
251.4382066357383
 20
441.8802970700506
 10
251.4293553459892
 20
441.8517091923002
 10
251.4203550446281
 20
441.5103608422521
 42
0.1735140771201408
 10
251.4535697329292
 20
441.1086627893689
 42
0.0563911287688205
 10
253.0292781222116
 20
441.0754481010679
 10
254.5717867243538
 20
441.0754481010679
 10
254.6056868660698
 20
441.1230647616628
 42
0.1679165032335518
 10
254.6333285200844
 20
441.5242114715818
 42
0.1272786770514338
  0
LWPOLYLINE
  5
4AE
330
1F
100
AcDbEntity
  8
Layer1
100
AcDbPolyline
 90
       13
 70
     1
 43
0.0
 10
252.1306933987388
 20
443.3639386348966
 10
252.0612837898979
 20
443.3689305238965
 10
252.0354302752266
 20
443.3742129855398
 10
252.0131624130766
 20
443.3846951221852
 10
252.0051958191642
 20
443.4090220980886
 10
251.9926788437614
 20
443.5609617882017
 10
252.0242842066536
 20
443.7655845337156
 42
-0.3498092029886116
 10
252.487233482624
 20
444.0441617422345
 42
-0.3404910633471341
 10
252.9162826168785
 20
443.7992090039495
 10
252.9324950802574
 20
443.7133410625699
 10
252.9427470791588
 20
443.5466194205526
 10
252.9443266022453
 20
443.3614054374936
 10
252.4811687100181
 20
443.3614054374936
  0
LWPOLYLINE
  5
4AF
330
1F
100
AcDbEntity
  8
Layer1
100
AcDbPolyline
 90
       22
 70
     1
 43
0.0
 10
254.5953603613624
 20
443.3191010408643
 10
254.5768829214821
 20
443.3343896322492
 10
254.5508058893928
 20
443.345483546758
 10
254.5082779753456
 20
443.3530384354833
 10
254.0371181595573
 20
443.3614054374936
 10
253.5211803543815
 20
443.3614054374936
 10
253.5312386381874
 20
443.6419123463872
 10
253.5186322558174
 20
444.011639957929
 10
253.4065904248008
 20
444.3767482095006
 42
0.3038318267416167
 10
252.4786951172602
 20
444.8847585969213
 42
0.363606155893152
 10
251.45432969215
 20
444.1880920582059
 10
251.3905080187568
 20
443.6459803633931
 10
251.4492334950218
 20
442.7492135815862
 10
251.4756830561409
 20
442.589920168424
 10
251.4930429089317
 20
442.5645658426526
 10
251.5209974873314
 20
442.5440096907857
 10
251.5626462328682
 20
442.5277525239232
 10
251.9235225546608
 20
442.4960130505803
 10
253.0724914896735
 20
442.4935916118863
 10
254.5717867243538
 20
442.4935916118863
 10
254.6047331917534
 20
442.5406494789365
 42
0.1515281579731705
 10
254.6376647579918
 20
442.9322221927884
 42
0.2185830335994
  0
LWPOLYLINE
  5
4D8
330
1F
100
AcDbEntity
  8
Layer1
100
AcDbPolyline
 90
       40
 70
     1
 43
0.0
 10
254.6578558314095
 20
446.3176468067414
 10
254.6763928759346
 20
446.6932007723096
 10
254.6502711403618
 20
447.2517484479192
 10
254.6284856426964
 20
447.3983088188413
 10
254.6122880804786
 20
447.4613779835943
 10
254.5896681177864
 20
447.5047776155713
 10
254.5567216503868
 20
447.5317263655904
 10
254.5095892775306
 20
447.5454354338888
 10
254.2990060675392
 20
447.5425148062948
 42
0.1018052642112668
 10
254.0280135500679
 20
447.5048223190549
 10
254.0222318995247
 20
447.4977219157461
 10
254.0174784291038
 20
447.4863895826581
 10
254.0099533427009
 20
447.4333041959051
 10
254.0151985514412
 20
447.1264818363431
 10
254.0121587145576
 20
446.715060775781
 10
253.9096387255439
 20
446.4043268614057
 42
-0.2334350629509225
 10
253.248250685955
 20
446.0480326466802
 10
252.9448928463707
 20
446.034874921346
 10
252.5757016766319
 20
446.0817912273649
 10
252.2950681078682
 20
446.1995178513769
 10
252.1071942675361
 20
446.3844040088895
 10
252.0192029106865
 20
446.5966785006765
 10
251.9955994713554
 20
446.8621724896673
 10
252.035311065937
 20
447.1831211500409
 10
252.0722510445366
 20
447.3863580875638
 10
252.0717593062172
 20
447.4232161097768
 10
252.0620884526024
 20
447.4462309532407
 10
252.0435812103996
 20
447.4661016516927
 42
0.1144372244193444
 10
251.8014522421608
 20
447.5488552503827
 10
251.6581924784431
 20
447.5755283289197
 10
251.5932979214439
 20
447.5778976135496
 10
251.5440495836982
 20
447.5649559550527
 10
251.5064539540062
 20
447.5333729439023
 10
251.4765175211677
 20
447.4798181705716
 10
251.4074059355507
 20
447.221640651727
 10
251.3710620033989
 20
446.8273931794408
 10
251.4045151102791
 20
446.3141971879247
 42
0.2924154679241277
 10
252.4297000992546
 20
445.2148714714292
 10
252.9496612179527
 20
445.1515936904195
 10
253.6381097662697
 20
445.2146628551725
 42
0.3145053236189598
  0
LWPOLYLINE
  5
507
330
1F
100
AcDbEntity
  8
Layer1
100
AcDbPolyline
 90
       18
 70
     1
 43
0.0
 10
252.3931028473625
 20
449.2284843378309
 10
252.3886772024879
 20
449.2378273658994
 10
252.3886623013267
 20
449.2472225480321
 10
252.3924322951088
 20
449.2555373959783
 10
252.3996444571266
 20
449.2638820462468
 10
252.4320991862068
 20
449.2851311021093
 10
252.5317283499489
 20
449.3224957638028
 10
252.8245063650856
 20
449.3900427274946
 10
253.0868115055809
 20
449.4342544727567
 10
253.1954558718452
 20
449.4498038344625
 10
253.2355548966179
 20
449.4549819879773
 10
253.2499643194923
 20
449.4566583686117
 10
253.258860312725
 20
449.4574332289937
 10
253.258860312725
 20
449.0324148588422
 10
252.769193254734
 20
449.1106161527875
 10
252.4973364699135
 20
449.1744229250196
 10
252.4141134846458
 20
449.2100516014341
 10
252.401671015049
 20
449.2192232661489
  0
LWPOLYLINE
  5
508
330
1F
100
AcDbEntity
  8
Layer1
100
AcDbPolyline
 90
       28
 70
     1
 43
0.0
 10
253.90172620895
 20
449.243288641477
 10
253.9074333536873
 20
449.6569746785405
 10
254.2235614884147
 20
449.7575053625348
 42
0.080541622235626
 10
254.5834394324074
 20
449.9017188005689
 10
254.6049269068489
 20
449.9299341492895
 10
254.6185614693412
 20
449.9739074759725
 10
254.6339394676933
 20
450.2759242110494
 10
254.634073578144
 20
450.5905845813993
 10
254.6248497593651
 20
450.6561049871686
 10
254.6185167658577
 20
450.6740236335042
 10
254.610544644619
 20
450.6871292047742
 10
254.6007545817146
 20
450.6961593084577
 10
254.5783581364402
 20
450.7044518046621
 10
254.5489134419212
 20
450.7062846474889
 42
0.0187793155623344
 10
251.9210638630638
 20
449.8665073566678
 42
0.061120708331632
 10
251.4607371914634
 20
449.688259666467
 10
251.4465959894905
 20
449.6709892206434
 10
251.436180077816
 20
449.647557144666
 10
251.4289381134758
 20
449.6119731717351
 10
251.4203550446281
 20
449.2574819975141
 42
0.2209036955765632
 10
251.4679642546424
 20
448.8137552194837
 42
0.0464340988416205
 10
253.0055107701075
 20
448.2621961884739
 42
0.019529054753929
 10
254.5542182553067
 20
447.7641025238278
 42
0.2755530381691329
 10
254.6243580210457
 20
447.7905595355276
 42
0.0577295914977716
 10
254.6313913691292
 20
448.1815809064153
 42
0.209525648042712
 10
254.5847507345924
 20
448.588241045976
 42
0.0927665463462749
 10
254.2192252505073
 20
448.7299734406713
 10
253.8959296572456
 20
448.8296026044134
  0
LWPOLYLINE
  5
521
330
1F
100
AcDbEntity
  8
Layer1
100
AcDbPolyline
 90
       10
 70
     1
 43
0.0
 10
247.2246499884376
 20
441.9432693772558
 10
247.2325029003868
 20
442.1716818266157
 42
-0.265337598213968
 10
247.4378260004768
 20
442.6780381851438
 42
-0.1734137467396061
 10
248.3345182764778
 20
442.8452664666417
 10
248.8121749985466
 20
442.7586683683637
 10
248.996085130001
 20
442.6414707355741
 10
249.1154434311638
 20
442.4618223362211
 10
249.1505803692589
 20
442.3506969266179
 10
249.1722913611183
 20
442.1496281080488
 10
249.1823496449241
 20
441.9432693772558
  0
LWPOLYLINE
  5
522
330
1F
100
AcDbEntity
  8
Layer1
100
AcDbPolyline
 90
       14
 70
     1
 43
0.0
 10
249.831205807949
 20
441.5517041139843
 10
249.8421730625877
 20
441.7687991314176
 10
249.8444380390892
 20
442.1549403720144
 10
249.8334707844505
 20
442.4883464031461
 10
249.7937889921913
 20
442.732747798467
 42
0.2887911281174673
 10
248.8536896336332
 20
443.6387383990529
 10
248.4321953881035
 20
443.6903932743314
 10
247.8404255736122
 20
443.6811843567136
 42
0.3565953861114648
 10
246.6247143376123
 20
442.6523411326669
 10
246.59972509029
 20
442.4447679572347
 10
246.6023178923378
 20
442.0067259721998
 42
0.1333706145618223
 10
246.709263526226
 20
441.1194065265897
 42
0.1204962889608888
 10
248.223370515133
 20
441.0754481010679
 42
0.0533477100001588
 10
249.7334243881951
 20
441.1019051127675
 42
0.2060876963781525
  0
LWPOLYLINE
  5
53C
330
1F
100
AcDbEntity
  8
Layer1
100
AcDbPolyline
 90
       25
 70
     1
 43
0.0
 10
249.7862788069496
 20
446.405153875852
 42
0.1645003637046014
 10
249.4941415417442
 20
446.4305752568487
 42
0.1339242554512031
 10
249.2020638811836
 20
446.405153875852
 42
0.1265414939273207
 10
249.1766425001869
 20
445.7066917472127
 10
249.1766425001869
 20
445.0335913949254
 10
248.4781803715477
 20
445.0335913949254
 10
248.4781803715477
 20
445.6327596359495
 42
0.1022519429074069
 10
248.4481396305808
 20
446.2730625324491
 10
248.4354885447273
 20
446.2872260861638
 10
248.418784343029
 20
446.2977463059667
 10
248.3943911421547
 20
446.30515218308
 10
248.1656434166679
 20
446.3141971879247
 42
0.1462771132890556
 10
247.8781851160774
 20
446.2851250224355
 10
247.8699000704536
 20
446.2759608083013
 10
247.8630157339821
 20
446.2619015627149
 10
247.8560866940269
 20
446.2332615309003
 10
247.850945793415
 20
446.1881780677083
 10
247.843182288433
 20
445.6448221259359
 10
247.843182288433
 20
445.0335913949254
 10
247.2504886019478
 20
445.0335913949254
 10
247.2504886019478
 20
445.6855395488981
 42
0.0949704736150913
 10
247.2251268255958
 20
446.362842028642
 42
0.1570390238434179
 10
246.6409118998298
 20
446.362842028642
 42
0.0661948430149893
 10
246.6409118998299
 20
444.1911244445088
 42
0.0472555221013255
 10
249.7862788069498
 20
444.1911244445089
 42
0.0650503474920121
  0
LWPOLYLINE
  5
55A
330
1F
100
AcDbEntity
  8
Layer1
100
AcDbPolyline
 90
       29
 70
     1
 43
0.0
 10
249.8116405833016
 20
448.7363809399846
 42
0.1479482317147646
 10
249.7832538712272
 20
449.1371774726156
 42
0.0685379973782756
 10
248.5079379904517
 20
449.16619003346
 10
247.2610982287178
 20
449.1716289572957
 10
247.2557189095268
 20
449.5738112979177
 10
247.2506376135597
 20
449.8331883602384
 10
247.2446920502433
 20
449.9059432797674
 10
247.2338887083778
 20
449.9603474192861
 10
247.216454349781
 20
449.9990606360677
 10
247.1938194859276
 20
450.0225225143674
 10
247.1631975996742
 20
450.0374758296254
 10
247.1233071911583
 20
450.045820479894
 10
246.9353886473427
 20
450.0500598602537
 42
0.1399850643660474
 10
246.6625483858833
 20
450.0171282940153
 10
246.6154756176719
 20
449.9841892771963
 10
246.6154756176719
 20
448.7486445956472
 42
0.1009248210667367
 10
246.648764811779
 20
447.4798107199911
 10
246.6628017056236
 20
447.4694022588971
 10
246.6829629767189
 20
447.4612885766271
 10
246.7113645899543
 20
447.4552312546018
 10
246.9329895603904
 20
447.4466034822706
 42
0.1832023027536787
 10
247.2172739136467
 20
447.4798107199911
 42
0.195111833694083
 10
247.2504886019478
 20
447.9031452589277
 10
247.2504886019478
 20
448.2932725601438
 10
248.4840365278969
 20
448.2932725601438
 42
0.079200303143016
 10
249.7646423208962
 20
448.3262041263822
 10
249.7819872725258
 20
448.3401888661626
 10
249.7944446432838
 20
448.358703558946
 10
249.8028190958748
 20
448.3888113551381
  0
LWPOLYLINE
  5
576
330
1F
100
AcDbEntity
  8
Layer1
100
AcDbPolyline
 90
       27
 70
     1
 43
0.0
 10
249.7862788069496
 20
452.6070097141507
 42
0.1569830458619042
 10
249.2020638811836
 20
452.6070097141507
 42
0.1265426847040314
 10
249.1766425001869
 20
451.9084879808668
 10
249.1766425001869
 20
451.2354472332242
 10
248.4781803715477
 20
451.2354472332242
 10
248.4781803715477
 20
451.8346229248288
 42
0.102246089899507
 10
248.4481396305808
 20
452.4749258213285
 10
248.4354885447273
 20
452.4890595727208
 10
248.418784343029
 20
452.4995648913625
 10
248.3943911421547
 20
452.5069558673147
 10
248.1656434166679
 20
452.5159934215787
 42
0.1461244492108428
 10
247.8781851160774
 20
452.4869883113149
 10
247.8699000704536
 20
452.4778091960195
 10
247.8630157339821
 20
452.4637350492719
 10
247.8560866940269
 20
452.4350950174573
 10
247.850945793415
 20
452.3900115542653
 10
247.843182288433
 20
451.8466779642347
 10
247.843182288433
 20
451.2354472332242
 10
247.2504886019478
 20
451.2354472332242
 10
247.2504886019478
 20
451.8873283319715
 42
0.0949419263438465
 10
247.2251268255958
 20
452.5647053175214
 42
0.1639571071656198
 10
246.9329895603904
 20
452.5900596432927
 42
0.1335060787023397
 10
246.6409118998298
 20
452.5647053175214
 42
0.096579648998972
 10
246.6154756176719
 20
451.4866659097913
 42
0.1126457881150556
 10
246.6487648117789
 20
450.4008406453374
 42
0.0565680250669056
 10
248.221448265339
 20
450.367558901811
 42
0.04943047170299
 10
249.7862788069497
 20
450.3929877333883
 42
0.0650614848806336
  0
LWPOLYLINE
  5
599
330
1F
100
AcDbEntity
  8
Layer1
100
AcDbPolyline
 90
       34
 70
     1
 43
0.0
 10
249.8440208065758
 20
454.1034960799462
 10
249.8719604838142
 20
454.5994365267995
 10
249.8094948160896
 20
455.2408570103887
 10
249.795070492054
 20
455.2850240521673
 10
249.7751476395378
 20
455.3173968248609
 10
249.7455837357292
 20
455.3393387847188
 10
249.7102530825386
 20
455.3506934695485
 10
249.6627332794914
 20
455.3564304166082
 10
249.4699569571266
 20
455.3511703067067
 10
249.3278892863044
 20
455.3395921044591
 10
249.2669137346992
 20
455.3281778149846
 10
249.2253245938072
 20
455.3096556716207
 10
249.2069514620552
 20
455.2917295747045
 10
249.1950305331001
 20
455.2681857400182
 10
249.1887124407539
 20
455.2380406909231
 10
249.2006184685478
 20
455.0446906738525
 42
-0.3256096068007952
 10
248.8302650082359
 20
453.9657571964506
 42
-0.2302191238187562
 10
247.4516691792258
 20
454.030666654611
 42
-0.3034674027446656
 10
247.2294630635032
 20
454.9991452746633
 10
247.2683252918968
 20
455.1971593551877
 10
247.2654046643028
 20
455.2381971531156
 10
247.2507121193657
 20
455.2652353101018
 10
247.2240986454735
 20
455.2862608485463
 42
0.0912442875873773
 10
246.7970313656578
 20
455.3841018729452
 10
246.7421205866584
 20
455.3762415104154
 10
246.7007698643455
 20
455.3459027462247
 10
246.6811003315696
 20
455.3153106622938
 10
246.6624887812385
 20
455.2727231436017
 10
246.6119738447914
 20
455.0979548745397
 10
246.5608777630577
 20
454.6370470576528
 10
246.6121675598869
 20
454.0511930041555
 42
0.2854721710514152
 10
247.6476343500868
 20
453.0202189140561
 10
248.1169017184028
 20
452.96297610333
 10
248.7590821612129
 20
453.0085736565832
 42
0.3270537361598191
  0
LWPOLYLINE
  5
5B4
330
1F
100
AcDbEntity
  8
Layer1
100
AcDbPolyline
 90
       21
 70
     1
 43
0.0
 10
249.7862788069496
 20
458.6606660537961
 42
0.0473488544221371
 10
246.6409118998298
 20
458.6606660537961
 42
0.1607312769251127
 10
246.6154756176719
 20
458.2733699732068
 42
0.132758992293674
 10
246.6409118998298
 20
457.8859993868116
 42
0.1052279463578009
 10
247.5767942297704
 20
457.8605780058149
 10
248.146122895504
 20
457.8585588984731
 10
248.4091333408349
 20
457.8478026234146
 10
248.4128127436016
 20
457.803439369604
 42
-0.0134758035352807
 10
247.5679876435054
 20
457.2795966320281
 42
0.0235412687387418
 10
246.6630997288476
 20
456.703644400144
 10
246.6388555395851
 20
456.6714280896428
 10
246.6246398318062
 20
456.6244596295598
 10
246.6154756176719
 20
456.2734180741552
 42
0.1722221683277028
 10
246.648764811779
 20
455.8618703537229
 42
0.0565680250669054
 10
248.221448265339
 20
455.8285886101964
 42
0.049255461341218
 10
249.7862788069497
 20
455.8539429359678
 42
0.1444553720879641
 10
249.7851761210212
 20
456.6264042310956
 42
0.0435858238125775
 10
248.8534810173759
 20
456.654105489755
 10
247.9482503760109
 20
456.6646480612996
 10
248.839354716564
 20
457.2137931041958
 42
0.0270595023730714
 10
249.7710498202097
 20
457.8146153741126
  0
LWPOLYLINE
  5
5CE
330
1F
100
AcDbEntity
  8
Layer1
100
AcDbPolyline
 90
       13
 70
     1
 43
0.0
 10
248.2982786524543
 20
461.1148798518422
 10
248.6011149513969
 20
461.1009249143842
 10
248.8122197020302
 20
461.0616231017354
 42
-0.2140209541861098
 10
249.1377057659874
 20
460.8174303226713
 42
-0.1463747224637907
 10
249.1793247092018
 20
460.4004362278226
 42
-0.2603876415017384
 10
248.8083603012809
 20
460.0507581286672
 10
248.2965054142723
 20
459.9916601233724
 10
247.6209016669044
 20
460.0500726752523
 42
-0.1940289420843757
 10
247.2677143442878
 20
460.2989444189313
 10
247.2318919527778
 20
460.3921586327794
 10
247.2191365587959
 20
460.5609813385251
 10
247.2263338196525
 20
460.7068115525487
 10
247.2822429764518
 20
460.8339035563711
 42
-0.272553581580752
  0
LWPOLYLINE
  5
5CF
330
1F
100
AcDbEntity
  8
Layer1
100
AcDbPolyline
 90
       12
 70
     1
 43
0.0
 10
248.6396791565634
 20
461.9464615040068
 10
248.1338741410026
 20
461.9636946969274
 10
247.5256832468757
 20
461.9041496567968
 42
0.2918490721344665
 10
246.6024669039498
 20
461.0355758719693
 10
246.5626659024009
 20
460.6359267287496
 10
246.600187026287
 20
460.1042309456113
 42
0.3310308239306551
 10
247.7734448540445
 20
459.1723272257093
 10
248.2566597092399
 20
459.1563233785871
 10
248.8623025048027
 20
459.2027851991895
 42
0.3224558994677844
 10
249.8452576029549
 20
460.178297167326
 10
249.8670580017814
 20
460.5486282758954
 10
249.8231442797432
 20
461.0249662451986
 42
0.3344224652793813
  0
LWPOLYLINE
  5
5E3
330
1F
100
AcDbEntity
  8
Layer1
100
AcDbPolyline
 90
       19
 70
     1
 43
0.0
 10
249.8116405833015
 20
463.4944090299848
 42
0.1575116549932299
 10
249.770707093502
 20
464.5273202710393
 42
0.0951870695903754
 10
249.4941415417442
 20
464.5492249779943
 42
0.0813654050696509
 10
249.2176355946312
 20
464.5273202710393
 10
249.2046566832313
 20
464.5180368476156
 10
249.1947474110374
 20
464.5016828232053
 10
249.1856577027092
 20
464.4586184673551
 10
249.1793098080406
 20
464.3473887496236
 10
249.1766425001869
 20
463.9035502128843
 10
249.1766425001869
 20
463.3016923122648
 10
247.9310991394767
 20
463.2957616501096
 42
0.0737346041474728
 10
246.6504784453163
 20
463.2607662730459
 10
246.6387959349403
 20
463.2470125012639
 10
246.6299893486747
 20
463.2248172216657
 10
246.6236563551674
 20
463.189710085893
 10
246.6154756176719
 20
462.8575483017209
 42
0.1307558548208005
 10
246.6409118998298
 20
462.4579885654691
 42
0.0734265530686679
 10
248.2135953533899
 20
462.4325597338918
 42
0.0492159784966237
 10
249.7862788069497
 20
462.4579885654691
 42
0.0977178911597827
  0
LWPOLYLINE
  5
602
330
1F
100
AcDbEntity
  8
Layer1
100
AcDbPolyline
 90
       15
 70
     1
 43
0.0
 10
248.6331226456413
 20
465.5599558406118
 10
248.1924357044944
 20
465.5376264505628
 10
247.6268770325432
 20
465.5924850754979
 10
247.4707575667152
 20
465.6506294064763
 10
247.3546328175316
 20
465.7328316622022
 10
247.2716333496817
 20
465.8413493685965
 42
-0.2396757333088345
 10
247.277489506031
 20
466.3743042998556
 42
-0.2750951091081359
 10
248.1183024275551
 20
466.6602426820043
 10
248.7307699549446
 20
466.6243457846883
 10
248.9017011749992
 20
466.5704780869726
 10
249.0295829403648
 20
466.4908537321332
 10
249.1212399828682
 20
466.3836026244405
 42
-0.2005017629025887
 10
249.1689833033333
 20
465.9199604444745
 10
249.0752251971016
 20
465.7553994708303
 10
248.9266159165153
 20
465.6414800935033
  0
LWPOLYLINE
  5
603
330
1F
100
AcDbEntity
  8
Layer1
100
AcDbPolyline
 90
       15
 70
     1
 43
0.0
 10
249.8453321087608
 20
465.7240027241952
 10
249.8669834959755
 20
466.0938942485097
 10
249.8234870064506
 20
466.5706718020681
 10
249.6337654221306
 20
466.9759312324766
 10
249.219006501461
 20
467.3289397411588
 10
248.8429905998954
 20
467.4589374714139
 10
248.2135953533897
 20
467.5120079570058
 42
0.3652271106969745
 10
246.6026010144005
 20
466.5812143736129
 10
246.5626808035621
 20
466.1817961983922
 10
246.600187026287
 20
465.6499365024808
 42
0.2905419417402979
 10
247.5362183678404
 20
464.7571781330349
 10
247.7293523180732
 20
464.7204914741758
 10
248.2241304743538
 20
464.7104555421117
 10
248.6505123007545
 20
464.7158870153669
 10
248.9120574820291
 20
464.756827955747
 42
0.3132523860722332
  0
LWPOLYLINE
  5
630
330
1F
100
AcDbEntity
  8
Layer1
100
AcDbPolyline
 90
       44
 70
     1
 43
0.0
 10
249.7006269324073
 20
468.592394297624
 10
249.796843730236
 20
468.8358122163061
 10
249.8540045845767
 20
469.1734427266424
 42
0.152900121231666
 10
249.6838184225807
 20
470.4344162397626
 10
249.6647598374138
 20
470.4494813137296
 10
249.6344657767067
 20
470.4603815131429
 10
249.5811345207939
 20
470.4677873902562
 10
248.954421483303
 20
470.4758936219457
 42
0.1692881716038256
 10
248.2241304743538
 20
470.4335892253164
 10
248.2034029591331
 20
470.406275396848
 10
248.1907965767631
 20
470.3640231542829
 10
248.1818260777244
 20
470.0737857871297
 10
248.1841655600319
 20
469.827439790273
 10
248.192480407978
 20
469.7761946969274
 10
248.208618365551
 20
469.7374814801458
 10
248.2350083220253
 20
469.7095790558103
 10
248.2896806824455
 20
469.6863332443479
 10
248.3720543015251
 20
469.6748817019704
 10
248.7451048720131
 20
469.6716034465078
 10
249.2237599718818
 20
469.6716034465078
 10
249.2148788798103
 20
469.4546276383642
 10
249.200484358097
 20
469.2752176575902
 10
249.1500439274558
 20
469.1292756848576
 42
-0.3033444590190459
 10
248.1923760998497
 20
468.7538334779981
 10
247.9231717217216
 20
468.7610083871129
 10
247.7013828385124
 20
468.8114339165929
 42
-0.2167099095493776
 10
247.2493859160194
 20
469.1896328382734
 10
247.1910180676231
 20
469.4692680292371
 10
247.2281517613182
 20
469.9352198891881
 42
0.0828530095618219
 10
247.2609492171058
 20
470.2011832647565
 10
247.2544523108253
 20
470.2135512285474
 10
247.2427250969658
 20
470.2256360702756
 10
247.1875013935814
 20
470.2557438664678
 10
246.9066592085609
 20
470.3278952889684
 10
246.7681827175865
 20
470.3405687265638
 10
246.7296632159004
 20
470.3321421199087
 10
246.7010976898918
 20
470.3151398949865
 10
246.6810705292473
 20
470.2893087320569
 42
0.0425220276589785
 10
246.6127189028511
 20
470.0314068846946
 10
246.5618314373741
 20
469.546590154672
 10
246.6117652285347
 20
468.9625316910985
 42
0.2832303656971149
 10
247.6663055050623
 20
467.9271468572857
 10
248.0033846724281
 20
467.8720721655134
 10
248.4676303494225
 20
467.871543174291
 42
0.2857012301688174
  0
LWPOLYLINE
  5
640
330
1F
100
AcDbEntity
  8
Layer1
100
AcDbPolyline
 90
       15
 70
     1
 43
0.0
 10
249.8116405833016
 20
471.3720345549825
 42
0.1284602348359423
 10
249.7862788069496
 20
471.7839995079282
 42
0.0736822081274086
 10
248.2214482653389
 20
471.8094208889249
 42
0.0448836325873892
 10
246.648764811779
 20
471.7761465959791
 10
246.6379465687523
 20
471.7607834987882
 10
246.6296764242897
 20
471.736554210687
 10
246.6236414540062
 20
471.6996887378934
 10
246.6154756176719
 20
471.3754767232183
 42
0.1741301218558531
 10
246.6487648117789
 20
470.9748143010381
 42
0.0569365455628637
 10
248.2058765518915
 20
470.9416070633176
 42
0.0321935126217644
 10
249.7707070935021
 20
470.9635117702726
 10
249.7820617783317
 20
470.9709399991277
 10
249.7911067831764
 20
470.9814825706724
 10
249.7980954277763
 20
470.997754638696
 10
249.8033108341942
 20
471.0223564558271
  0
LWPOLYLINE
  5
675
330
1F
100
AcDbEntity
  8
Layer1
100
AcDbPolyline
 90
       14
 70
     1
 43
0.0
 10
247.5535783328341
 20
473.5938071467479
 10
247.5662591088066
 20
473.5987895779851
 10
247.5900115597496
 20
473.6060911469701
 10
247.9975136149177
 20
473.7069571070913
 10
248.2787879336128
 20
473.770510559583
 10
248.3954789269218
 20
473.7948292546514
 10
248.438230358387
 20
473.8026225619558
 10
248.4533699381599
 20
473.8047608785871
 10
248.4620550514302
 20
473.8054547306115
 42
-0.1426241312547436
 10
248.4781803715477
 20
473.586131041551
 10
248.4756918776283
 20
473.4639415197614
 10
248.4711768257866
 20
473.4155052953008
 10
248.4634153925321
 20
473.3845326301692
 10
248.4556179256144
 20
473.375409198065
 42
-0.0295484227385365
  0
LWPOLYLINE
  5
676
330
1F
100
AcDbEntity
  8
Layer1
100
AcDbPolyline
 90
       38
 70
     1
 43
0.0
 10
249.8071255314598
 20
472.8352913313154
 10
249.8021634447822
 20
472.8820288233999
 10
249.7945042479286
 20
472.9124346428159
 10
249.7835667956123
 20
472.9322457366231
 10
249.768784843708
 20
472.9471990518812
 42
0.0747231300450604
 10
249.4142117131004
 20
473.0798342876676
 10
249.1025688278923
 20
473.1756785564664
 10
249.0968467819938
 20
473.5908100061658
 10
249.0911247360954
 20
474.0060159616712
 10
249.3720414269218
 20
474.0935900860074
 10
249.691760741497
 20
474.2013850860837
 10
249.7414859164009
 20
474.2246532492879
 10
249.7734638083229
 20
474.2459619097951
 10
249.7919710505256
 20
474.2672780208829
 10
249.801299177433
 20
474.2905834369901
 42
0.0353095291924818
 10
249.8071553337822
 20
474.6986889891868
 10
249.7998835671196
 20
474.9632367544416
 10
249.7942062247047
 20
475.0184530072454
 10
249.7890653240928
 20
475.039828722978
 10
249.7823598015556
 20
475.0530758552793
 10
249.7719736922035
 20
475.0612491421941
 10
249.7585179436454
 20
475.0646242552045
 42
0.0278440048146898
 10
246.6574372875938
 20
474.0421214752439
 10
246.6425063240776
 20
474.0258047037366
 10
246.6315986740837
 20
474.0035274677518
 10
246.6240735876808
 20
473.968755608106
 10
246.6154756176719
 20
473.604317908788
 10
246.6200502741584
 20
473.2756802492383
 10
246.6279031861076
 20
473.2165896945241
 10
246.6416867602119
 20
473.1825405411962
 10
246.6630997288475
 20
473.1578344159367
 42
0.0543908868991213
 10
249.7746410000574
 20
472.1112811618093
 10
249.782389603878
 20
472.1152299695257
 10
249.7889759171257
 20
472.121287291551
 10
249.7945191490898
 20
472.1304664068464
 10
249.8035641539344
 20
472.1676746063474
 10
249.8087348568687
 20
472.2370842151883
 10
249.8116405833015
 20
472.5180083565954
  0
LWPOLYLINE
  5
6A7
330
1F
100
AcDbEntity
  8
Layer1
100
AcDbPolyline
 90
       48
 70
     1
 43
0.0
 10
243.6630340445289
 20
441.859346037412
 10
243.7617691385994
 20
442.0948961429838
 10
243.847838245655
 20
442.2455766849759
 10
243.9639927971611
 20
442.342396979833
 10
244.1177876818428
 20
442.3666039161924
 42
-0.3245175492846373
 10
244.3942191231498
 20
442.2117137961629
 42
-0.2051482555633139
 10
244.2935617792854
 20
441.3946011715177
 10
244.2433001625786
 20
441.2493968062642
 10
244.2082526314506
 20
441.123616104627
 10
244.2056747305641
 20
441.0954529099706
 10
244.2088486778984
 20
441.072654133344
 10
244.2152710783729
 20
441.0598316841367
 10
244.2259254086265
 20
441.0484919004682
 10
244.2414524185905
 20
441.0382846050504
 10
244.3240793574104
 20
441.0108590178731
 10
244.4747002947578
 20
440.980713968778
 10
244.7227450239906
 20
440.9488403849843
 10
244.7823645699272
 20
440.954890256429
 10
244.824862681652
 20
440.9732261352781
 10
244.8571683991203
 20
441.0042727046254
 42
0.1151539338151345
 10
245.0569184649238
 20
441.7845198564771
 10
245.0588854182014
 20
442.0802184992078
 10
245.0214984047661
 20
442.4406701379064
 10
244.8851080763588
 20
442.7526855521444
 10
244.6101667511711
 20
443.042878215814
 42
0.2473623035331971
 10
243.6856391060602
 20
443.1098514847999
 10
243.4078665602455
 20
442.8850302152875
 10
243.1028695929298
 20
442.30603814652
 42
-0.2020546125343904
 10
242.7800508368263
 20
441.7824560456518
 42
-0.3477125472164289
 10
242.4369217980155
 20
441.8633469991926
 42
-0.2227013078235284
 10
242.4592437374839
 20
442.6260852866414
 42
0.0758873568713064
 10
242.505139313961
 20
442.8598025493863
 10
242.5019206631431
 20
442.8847396426442
 10
242.4961539137611
 20
442.9035896115545
 10
242.485231362606
 20
442.9180958919767
 10
242.4702109921226
 20
442.9281988792661
 10
242.4482168782005
 20
442.9375046544317
 10
242.3503907549629
 20
442.9646024160627
 10
242.2264279949913
 20
442.9913276486638
 10
242.0752557146797
 20
443.0146926694158
 10
241.9739129174003
 20
443.0192598753217
 10
241.9391187060127
 20
443.0096933298353
 10
241.9136824238548
 20
442.9881686024907
 42
0.149164509215301
 10
241.7471470463523
 20
442.1300628834011
 42
0.4629693075403958
 10
242.7419485676536
 20
440.9331643634084
 10
243.0131348002205
 20
440.9868010931257
 10
243.282219969059
 20
441.1688113265279
 10
243.4491427767524
 20
441.3820171408895
  0
LWPOLYLINE
  5
6CF
330
1F
100
AcDbEntity
  8
Layer1
100
AcDbPolyline
 90
       39
 70
     1
 43
0.0
 10
245.0491400587807
 20
444.5296415739334
 10
245.0595559704551
 20
444.8852801375631
 10
245.0187565911064
 20
445.3565293603185
 42
0.2344422356730394
 10
244.5332022536048
 20
446.0156449728254
 42
0.0884028671212458
 10
241.8360324728737
 20
446.1088740878347
 42
0.1383878576846879
 10
241.837135158802
 20
445.2941083960775
 42
0.0369390181078898
 10
242.9853888380773
 20
445.2664071374181
 42
-0.0715950612604399
 10
244.1974343884239
 20
445.2163839392904
 10
244.2880632508049
 20
445.164393787885
 10
244.3447919714698
 20
445.0960496120694
 10
244.3741025555381
 20
444.9989163928274
 10
244.3824472058067
 20
444.8605740123037
 10
244.3759652006874
 20
444.7317758255246
 10
244.3524362671623
 20
444.6412289195302
 10
244.3057360279808
 20
444.5752242260221
 10
244.2296805012474
 20
444.5200601272825
 42
-0.0825704793510435
 10
242.8573580611
 20
444.4415831618551
 10
242.2115417349586
 20
444.4381484441999
 10
241.898781262661
 20
444.4275611691717
 10
241.8586822378883
 20
444.4228076987508
 10
241.8450029719124
 20
444.4197827630285
 10
241.8393852341423
 20
444.4177189522031
 10
241.8360324728737
 20
444.4155359320882
 10
241.8323369848976
 20
444.4100523047689
 10
241.8280752527961
 20
444.3982505851034
 10
241.8202521431694
 20
444.3502762966398
 10
241.8112369406471
 20
444.1203513794187
 10
241.8113263476143
 20
443.8109064154867
 10
241.8146046030769
 20
443.6969050817731
 10
241.8189557421455
 20
443.6525741272214
 10
241.8256910670051
 20
443.6243811302427
 10
241.836062275196
 20
443.6066412978414
 10
241.8503226864586
 20
443.5957559995893
 10
241.8757440674553
 20
443.5887450032476
 10
241.9389249909172
 20
443.5836264543775
 10
242.3174889910469
 20
443.5765633039716
 10
243.0341007340202
 20
443.5786569171193
 10
243.9218672144661
 20
443.5896018200162
 10
244.3034114468345
 20
443.6221310549024
 42
0.3366546841184743
  0
LWPOLYLINE
  5
6F3
330
1F
100
AcDbEntity
  8
Layer1
100
AcDbPolyline
 90
        9
 70
     1
 43
0.0
 10
242.382145129467
 20
447.5524389796499
 10
242.382145129467
 20
447.7185571246389
 42
-0.2127203281348173
 10
242.4856336939583
 20
448.0895289831403
 42
-0.2194986476268315
 10
242.8690852749595
 20
448.2288473897222
 42
-0.40118571858004
 10
243.3119179833183
 20
447.9315319710019
 42
-0.1062062281769307
 10
243.3201270578379
 20
447.5760502818586
 10
243.3065840305835
 20
447.5692237152751
 10
243.2367714274177
 20
447.5597330980543
 10
242.846062980915
 20
447.5524389796499
  0
LWPOLYLINE
  5
6F4
330
1F
100
AcDbEntity
  8
Layer1
100
AcDbPolyline
 90
       26
 70
     1
 43
0.0
 10
245.0068952667961
 20
447.1074679546598
 10
245.0024398195991
 20
447.4184030347112
 10
244.9971499073753
 20
447.4618250184301
 10
244.9887605536232
 20
447.48903453877
 10
244.9765863049278
 20
447.5062006764654
 10
244.9599119055519
 20
447.5194999628309
 42
0.1465073620930392
 10
244.4027723896751
 20
447.5524389796499
 10
243.8926162350425
 20
447.5524389796499
 10
243.9113618958244
 20
447.6953411154989
 10
243.9194383251915
 20
447.9811006837133
 10
243.8744964230308
 20
448.3426699095014
 42
0.3689608360116239
 10
242.8479256260645
 20
449.0757176332715
 42
0.3057713886902369
 10
241.9069321978339
 20
448.5579246335271
 10
241.8114157545814
 20
448.2760915212873
 10
241.7803617346534
 20
447.7217981271985
 10
241.8089421618232
 20
447.0789843850377
 10
241.8473722565422
 20
446.8452745728734
 10
241.8749990093956
 20
446.7607626371625
 10
241.887948118473
 20
446.7357510380987
 10
241.9015826809654
 20
446.7174747638944
 10
241.9158877957114
 20
446.7061126284841
 42
0.0384384750678532
 10
244.965976678158
 20
446.7065298609975
 10
244.9773313629875
 20
446.7139431886915
 10
244.9863763678322
 20
446.7244112544301
 10
244.9933650124321
 20
446.7404821567777
 10
244.9985655176887
 20
446.7646965437177
  0
LWPOLYLINE
  5
71A
330
1F
100
AcDbEntity
  8
Layer1
100
AcDbPolyline
 90
       37
 70
     1
 43
0.0
 10
245.0068356621513
 20
451.6577535920385
 10
244.9548157084236
 20
451.6918548994306
 42
0.1754243325771105
 10
244.6594895947227
 20
451.7187961988691
 42
0.1417214836663135
 10
244.3887056935081
 20
451.6841360979322
 42
0.1409661905904845
 10
244.3550886738548
 20
450.9803766064885
 10
244.3489493954429
 20
450.304102306867
 10
243.6733009445915
 20
450.304102306867
 10
243.6733009445915
 20
450.9025850944761
 42
0.1160522526165238
 10
243.6403693783531
 20
451.5481928043607
 10
243.6194928515205
 20
451.5717217378858
 10
243.5879172909507
 20
451.5857139282468
 10
243.3598699200401
 20
451.594915395284
 42
0.0807576928893572
 10
243.0806817639122
 20
451.574582760835
 10
243.075749479557
 20
451.5701496653798
 10
243.07129403236
 20
451.5630269103292
 10
243.0672558176765
 20
451.5526855044607
 10
243.0551411736259
 20
451.4740371756795
 10
243.0383028614769
 20
450.9345555358175
 10
243.0277528393516
 20
450.3146448784116
 10
242.7367182600746
 20
450.3087887220624
 10
242.4456836807975
 20
450.3028655104879
 10
242.4456836807975
 20
450.958464448953
 10
242.4454601633796
 20
451.3631278329137
 10
242.4378307688484
 20
451.5189716272596
 10
242.4164774048576
 20
451.6136238031629
 10
242.4007864821205
 20
451.6400808148626
 10
242.3804612982521
 20
451.6586774640325
 10
242.3549058068046
 20
451.6707399540189
 10
242.3235388624916
 20
451.6776168399099
 10
242.128169738079
 20
451.6799339704755
 42
0.1403874957272868
 10
241.8576689589271
 20
451.6469353490117
 10
241.8106706965217
 20
451.6139963321927
 10
241.8106706965217
 20
450.5584204249624
 42
0.1127559169241185
 10
241.8440194952736
 20
449.4694957189802
 42
0.0572399219955012
 10
243.3950813639413
 20
449.4362139754537
 42
0.0431615999705477
 10
244.95976289394
 20
449.4692200474981
 10
245.0068356621513
 20
449.5021516137365
  0
LWPOLYLINE
  5
746
330
1F
100
AcDbEntity
  8
Layer1
100
AcDbPolyline
 90
       10
 70
     1
 43
0.0
 10
242.8727956640968
 20
453.0394414119962
 10
242.392754756237
 20
453.045156007314
 10
242.3865558731804
 20
453.2201030903104
 10
242.388448320652
 20
453.3627444558385
 10
242.4210818636665
 20
453.4869605355506
 42
-0.314988810322902
 10
242.8927781212578
 20
453.7329414539579
 42
-0.3489267673444432
 10
243.3457436192284
 20
453.4496107750181
 10
243.3709414828071
 20
453.3034080319646
 10
243.3617921698341
 20
453.0923554353956
 10
243.3529110777626
 20
453.0337938719037
  0
LWPOLYLINE
  5
747
330
1F
100
AcDbEntity
  8
Layer1
100
AcDbPolyline
 90
       33
 70
     1
 43
0.0
 10
244.9813993799934
 20
453.0091920547727
 42
0.1459040062173755
 10
244.4416942227134
 20
453.034546380544
 10
244.0622808563957
 20
453.0371466331724
 10
243.9846905100593
 20
453.0416393332723
 10
243.9555140364418
 20
453.0462214403394
 10
243.9345399627928
 20
453.0537913724666
 10
243.9291538822899
 20
453.0622774415258
 10
243.9272763359794
 20
453.0751967482808
 10
243.9303310740242
 20
453.1090372853521
 10
243.9405085671196
 20
453.1500974350217
 42
-0.0861580149881572
 10
244.4220544922602
 20
453.4606376343017
 42
0.0390134954270536
 10
244.9490936625252
 20
453.7992888741737
 10
245.0077297318229
 20
453.8617172889951
 10
245.0020076859245
 20
454.277191465402
 10
244.9832769263038
 20
454.6725788765195
 10
244.978061519886
 20
454.6926730923894
 10
244.9755581248054
 20
454.6976575308088
 10
244.9744554388771
 20
454.6990731411222
 10
244.9733229506263
 20
454.7000715189222
 10
244.9721755612144
 20
454.7006675653699
 42
0.1482637433323966
 10
244.4037260639913
 20
454.3465787225009
 10
243.898800216938
 20
454.0170842461828
 10
243.8539877911132
 20
453.9904493901627
 42
-0.0326841935632
 10
243.8051166165123
 20
454.0823364310506
 10
243.5942353832969
 20
454.3367067032102
 10
243.1865098107109
 20
454.5394370012525
 10
242.8884716856727
 20
454.5657450013402
 10
242.4879880774269
 20
454.5291701011899
 42
0.2906869145079816
 10
241.815915905262
 20
453.8018369727378
 42
0.1169251809038255
 10
241.8832244503745
 20
452.2401803784612
 10
241.917467318798
 20
452.1878847532514
 10
243.4367599118004
 20
452.1878847532514
 42
0.0499976892740072
 10
244.9813993799935
 20
452.2133061342481
 42
0.1234585127718631
  0
LWPOLYLINE
  5
771
330
1F
100
AcDbEntity
  8
Layer1
100
AcDbPolyline
 90
       41
 70
     1
 43
0.0
 10
245.0058968889961
 20
455.7270520978216
 10
245.0003983605156
 20
455.8429235272649
 10
244.986361466671
 20
455.8965230040792
 10
244.9597628939399
 20
455.9226372890714
 10
244.9356379139671
 20
455.932405000234
 10
244.8865236866722
 20
455.940056746507
 10
244.4716902601967
 20
455.9528195910695
 10
243.4087159264335
 20
455.9555763058904
 10
242.3457713949928
 20
455.9528195910695
 10
241.9309379685173
 20
455.940056746507
 10
241.8818088400612
 20
455.932405000234
 10
241.8576689589271
 20
455.9226372890714
 10
241.8425591814766
 20
455.9108430199865
 10
241.8310852873573
 20
455.8965230040792
 10
241.8227555382499
 20
455.8753335528615
 10
241.8170632946739
 20
455.8429235272649
 10
241.8106706965217
 20
455.5141219549421
 10
241.8121310103187
 20
455.3426393919233
 10
241.8166609633217
 20
455.2213513903859
 10
241.8234111893425
 20
455.152902906442
 10
241.8283881771812
 20
455.129150455499
 10
241.8320240605125
 20
455.1192039304021
 10
241.8360324728737
 20
455.1131093554738
 10
241.8396236527214
 20
455.1110455446485
 10
241.8462397682914
 20
455.1090785913709
 10
241.8560149300346
 20
455.1072159462217
 10
241.9246496784935
 20
455.1010096125844
 10
242.3997583019981
 20
455.0906905584577
 10
243.4087159264335
 20
455.0877550297025
 10
244.4177182543525
 20
455.0906905584577
 10
244.8927970755348
 20
455.1010096125844
 10
244.951001011158
 20
455.1057705335859
 10
244.9700446951637
 20
455.10881782105
 10
244.9767502177009
 20
455.1106506638769
 10
244.9796112406501
 20
455.1118576579336
 10
244.9813993799934
 20
455.1131093554738
 10
244.9839176762352
 20
455.1164174132589
 10
244.9863018620262
 20
455.1211857848409
 10
244.9917258847007
 20
455.1400804572347
 10
245.000815593029
 20
455.2213513903859
 10
245.0068356621513
 20
455.5141219549421
  0
LWPOLYLINE
  5
784
330
1F
100
AcDbEntity
  8
Layer1
100
AcDbPolyline
 90
        8
 70
     1
 43
0.0
 10
242.5136776793251
 20
458.1481704168561
 42
-0.1950795936382977
 10
243.1631447899589
 20
458.3694154076818
 10
243.5696931708107
 20
458.3724775963071
 10
244.003346763874
 20
458.3164343290571
 42
-0.2167275178465159
 10
244.3331094610939
 20
458.0585995369199
 42
-0.2924400468303773
 10
244.2637147534141
 20
457.4659058504346
 42
-0.2188594325963874
 10
243.3157624829063
 20
457.2520369343999
 42
-0.161134077904968
 10
242.590925298954
 20
457.4041703396085
 42
-0.4048225727860097
  0
LWPOLYLINE
  5
785
330
1F
100
AcDbEntity
  8
Layer1
100
AcDbPolyline
 90
       10
 70
     1
 43
0.0
 10
245.0491400587806
 20
457.5041496806386
 10
245.0602861273536
 20
457.8494393878225
 10
245.0083406794319
 20
458.290521209741
 42
0.3176998031245334
 10
243.9535321820062
 20
459.1848740034342
 10
243.4554608690986
 20
459.2201376013997
 10
242.805546723629
 20
459.1739141993764
 42
0.3016142287353081
 10
241.7973043549309
 20
458.3050647430666
 42
0.0875461796703282
 10
241.7970361340293
 20
457.3331290536168
 42
0.2809518366042384
 10
242.7017899382364
 20
456.4761260204556
 42
0.1580084143859079
 10
244.4410087692986
 20
456.5933981590513
 42
0.2436895443046033
  0
LWPOLYLINE
  5
7BA
330
1F
100
AcDbEntity
  8
Layer1
100
AcDbPolyline
 90
        7
 70
     1
 43
0.0
 10
243.3528365719566
 20
460.5487176828626
 10
242.382145129467
 20
460.5487176828626
 10
242.382145129467
 20
460.714902883077
 42
-0.2246235278233716
 10
242.4947383034477
 20
461.0935190372709
 42
-0.2329057189896773
 10
242.9277213442573
 20
461.2223693781141
 42
-0.2970522284196208
 10
243.3159710991629
 20
461.0306808405166
 42
-0.1244274811792345
 10
243.3633865940818
 20
460.5963939481023
  0
LWPOLYLINE
  5
7BB
330
1F
100
AcDbEntity
  8
Layer1
100
AcDbPolyline
 90
       45
 70
     1
 43
0.0
 10
244.9735464680443
 20
460.5155029945615
 10
244.9635924923668
 20
460.5231025867704
 10
244.9491234648475
 20
460.5294802837613
 10
244.8805483210334
 20
460.5408871226552
 10
244.4311591017494
 20
460.5487176828626
 10
243.9220311272392
 20
460.5487176828626
 10
243.935471974636
 20
460.6159666233303
 42
-0.0900778096742101
 10
243.9540439799984
 20
460.6869415047907
 10
243.978432022358
 20
460.7014396839383
 10
244.0675111639748
 20
460.754070585275
 10
244.4353612292065
 20
460.9707409196144
 42
0.0363402108366399
 10
244.9592115509759
 20
461.3031932764297
 10
244.9836047518501
 20
461.3360205345395
 10
244.9978055584678
 20
461.3860437326673
 10
245.0068356621513
 20
461.7775791936162
 10
245.0040342438469
 20
462.0789626293424
 10
244.999817215229
 20
462.1448332123998
 10
244.9957193959007
 20
462.1710294537786
 10
244.9903251755485
 20
462.1874803357366
 10
244.9864061701545
 20
462.1935078554395
 10
244.9819358217964
 20
462.1972629480604
 10
244.9768545258293
 20
462.1992000990156
 10
244.9711324799308
 20
462.1997439913991
 42
0.0676539777978546
 10
244.4246770966304
 20
461.8619197659738
 42
-0.0151124276843622
 10
243.8798051860569
 20
461.5102347078303
 10
243.862308394807
 20
461.515094927622
 10
243.846452437664
 20
461.5294525079969
 10
243.7958778965721
 20
461.6031909041646
 42
0.2774870572997909
 10
242.8584011423839
 20
462.0719963364843
 42
0.3797593438441141
 10
241.821146212841
 20
461.3096007757429
 10
241.7738648283729
 20
460.7573190384153
 10
241.835212909008
 20
459.8952496104482
 10
241.8450029719124
 20
459.8183596186879
 10
241.860425673748
 20
459.7623163514379
 10
241.8778302300224
 20
459.7410821967367
 10
241.9057550060997
 20
459.7238415532354
 10
241.9472249377021
 20
459.7101771884206
 10
242.3037948239097
 20
459.6832433395627
 10
243.4313209879647
 20
459.6808964066747
 42
0.0326531424476292
 10
244.9659021723519
 20
459.7028085642103
 10
244.9772419560203
 20
459.7102144413236
 10
244.9862720597038
 20
459.7206825070623
 10
244.9932607043037
 20
459.7367534094098
 10
244.9984761107216
 20
459.7609528951887
 10
245.0068356621514
 20
460.1034709863904
 42
0.1721214118454915
  0
LWPOLYLINE
  5
7E2
330
1F
100
AcDbEntity
  8
Layer1
100
AcDbPolyline
 90
       38
 70
     1
 43
0.0
 10
240.201330386425
 20
442.211639290357
 42
0.1122051773735813
 10
240.1686819422493
 20
443.3069789462331
 10
240.1544960367927
 20
443.3174544625524
 10
240.1339473355064
 20
443.3256053977254
 10
240.1047559607277
 20
443.3316701703313
 10
239.8735644448051
 20
443.340253239179
 10
239.6605672467003
 20
443.3353507571462
 10
239.6203490126381
 20
443.3274605922941
 10
239.5962389338264
 20
443.3139154367689
 10
239.5787300694236
 20
443.2931953721288
 42
0.1341584918324403
 10
239.5457985031852
 20
442.5947406940702
 10
239.5457985031852
 20
441.9432693772558
 10
238.8684215176353
 20
441.9432693772558
 10
238.8681532967338
 20
442.520048623586
 42
0.0731986439528614
 10
238.8411374914894
 20
443.1497418933156
 10
238.8238223421821
 20
443.1771004252675
 10
238.794988595272
 20
443.1933799438718
 10
238.7280227768669
 20
443.2027602248433
 10
238.5533364641914
 20
443.2086536340955
 42
0.1264713438603687
 10
238.2629128325233
 20
443.1901910953763
 42
0.1756428837768176
 10
238.2334979403266
 20
442.5545001082662
 10
238.2334979403267
 20
441.9432693772558
 10
237.6408042538414
 20
441.9432693772558
 10
237.6408042538414
 20
442.5872975640539
 42
0.1374023370202481
 10
237.6069637167701
 20
443.2652929477934
 10
237.5926437008629
 20
443.2762154989484
 10
237.5725867378959
 20
443.284373884702
 10
237.5439765084037
 20
443.2900288753751
 10
237.3058708536873
 20
443.2932624273542
 10
237.0856763947258
 20
443.283524518514
 10
237.0473804104576
 20
443.2741144352201
 10
237.0263697731743
 20
443.2584607653859
 10
237.0120050537834
 20
443.2344251923803
 42
0.0742158512881839
 10
236.9849892485389
 20
442.1754667215589
 42
0.0873198359742901
 10
237.0175780880699
 20
441.1224389128927
 10
237.0505245554695
 20
441.0753810458425
 10
238.6040451157341
 20
441.0753810458425
 42
0.0940648187856936
 10
240.1790829527626
 20
441.1124476843122
 42
0.0579658446645337
  0
LWPOLYLINE
  5
818
330
1F
100
AcDbEntity
  8
Layer1
100
AcDbPolyline
 90
       53
 70
     1
 43
0.0
 10
238.6288555491218
 20
444.0715277247671
 10
238.8138534653434
 20
444.4726595335248
 10
239.0050055611381
 20
444.9069240741971
 10
239.1024591553459
 20
445.0225570850614
 10
239.222994648243
 20
445.0749272160772
 42
-0.4214663380942721
 10
239.6074744093666
 20
444.8722192697767
 42
-0.1673331603028166
 10
239.4809635508308
 20
444.0938347630742
 10
239.4038500416526
 20
443.8399562292341
 10
239.3999459374199
 20
443.8059741311315
 10
239.4016893732795
 20
443.7808805756811
 10
239.4088270294914
 20
443.7632376008275
 10
239.4210906851539
 20
443.7515997939351
 42
0.063251227942906
 10
239.9168374169121
 20
443.6578267865423
 10
239.9788858521232
 20
443.6659330182317
 10
240.027985178257
 20
443.6936789803747
 10
240.0627942908058
 20
443.7362217955831
 10
240.09417613628
 20
443.7993505649808
 10
240.1248576271782
 20
443.8860306196454
 10
240.1945056545982
 20
444.1441485338453
 10
240.2443947422752
 20
444.4798940472844
 10
240.2525456774482
 20
444.7985181265119
 10
240.2110459435234
 20
445.1525175624135
 42
0.2201793006694596
 10
239.6786423552284
 20
445.8229282551053
 10
239.5376773703346
 20
445.877593164945
 10
239.2812134850273
 20
445.8908700995687
 10
239.0633138048896
 20
445.8841124229673
 10
238.8896556723365
 20
445.8249995165113
 42
0.1937878948049333
 10
238.2942052710304
 20
445.0147786789182
 42
-0.045185624365244
 10
238.0892845022927
 20
444.591034358049
 42
-0.2753278148142662
 10
237.8026457655677
 20
444.4706627779249
 10
237.6938523876915
 20
444.5151352935079
 10
237.617409430767
 20
444.6005785517934
 10
237.5785174000511
 20
444.7039404564145
 10
237.5639142620811
 20
444.8345193319562
 10
237.5741066563377
 20
444.9912869982961
 10
237.6020910370598
 20
445.1468551211599
 10
237.6525165665397
 20
445.3472980909589
 42
0.0800210281047092
 10
237.7002598870048
 20
445.5801212840322
 10
237.6934202540168
 20
445.609163647199
 10
237.6743318665275
 20
445.6303978019002
 10
237.6262756216774
 20
445.6513488345388
 10
237.5032069313774
 20
445.6849211507085
 10
237.2437777149925
 20
445.7358011656049
 10
237.1589007008323
 20
445.7344600610975
 10
237.1337326395759
 20
445.7275161199811
 10
237.1142419207344
 20
445.7168021850828
 10
237.0999219048271
 20
445.7023480587247
 42
0.1252838054047918
 10
236.9426848519093
 20
444.846037929564
 10
236.9681211340675
 20
444.4963002257589
 10
237.0902063477287
 20
444.1305586748365
 42
0.346138547868812
 10
238.0127372372398
 20
443.6539003305677
 10
238.2458510029564
 20
443.7170589022878
 10
238.4776087630043
 20
443.8792058878187
  0
LWPOLYLINE
  5
83E
330
1F
100
AcDbEntity
  8
Layer1
100
AcDbPolyline
 90
       37
 70
     1
 43
0.0
 10
240.2525903809318
 20
447.5100600772154
 10
240.2547063458214
 20
447.8341156296972
 10
240.2223559248695
 20
448.3244159870389
 10
240.199870072628
 20
448.4579154901746
 10
240.1821674931297
 20
448.5163280420545
 10
240.157669984127
 20
448.5572689824346
 10
240.1228757727394
 20
448.5833907180074
 10
240.074268184925
 20
448.5973456554654
 10
239.8643406260261
 20
448.5961610131505
 10
239.7160889733085
 20
448.5852682643178
 10
239.6532954800377
 20
448.573675160909
 10
239.6111102926979
 20
448.5531786136869
 10
239.5927967655906
 20
448.5323989444021
 10
239.5812036621818
 20
448.5043922119382
 10
239.5753475058326
 20
448.4678471141103
 10
239.5883115160713
 20
448.2264334016088
 10
239.596209131504
 20
447.844598596597
 10
239.5017059672127
 20
447.4941456370596
 42
-0.310811969278816
 10
238.4769233095894
 20
447.0934087090734
 42
-0.3912915100116479
 10
237.5734808075676
 20
447.7397838287595
 10
237.5593545067558
 20
447.88095742991
 10
237.5875475037346
 20
448.1057861500028
 10
237.6130135882148
 20
448.2701906614545
 10
237.6285405981788
 20
448.4308698826078
 10
237.6302542317161
 20
448.5366979294065
 10
237.450292907978
 20
448.5830032878164
 10
237.2727902758369
 20
448.6225584202054
 10
237.1569337475547
 20
448.6269691639188
 10
237.1072234738121
 20
448.6087822966817
 10
237.0707901346931
 20
448.5724607162717
 10
237.0430590737114
 20
448.516484504247
 10
237.0195152390251
 20
448.4393411927465
 10
236.9460078108558
 20
447.9024821572545
 10
237.0046289789924
 20
447.2598770313505
 42
0.2913315409639931
 10
238.0870791304359
 20
446.2503308110479
 10
238.609037004734
 20
446.2033996038679
 10
239.27288373592
 20
446.28443211844
 42
0.3275085010406864
  0
LWPOLYLINE
  5
856
330
1F
100
AcDbEntity
  8
Layer1
100
AcDbPolyline
 90
       13
 70
     1
 43
0.0
 10
238.4663136828193
 20
450.8480840974096
 10
238.861015640522
 20
450.8432859235051
 10
239.2340215075264
 20
450.7786968403104
 42
-0.1964519527644512
 10
239.5299585688366
 20
450.5214878969427
 42
-0.3657122107385674
 10
239.3504591810951
 20
449.8517626576665
 42
-0.1494101963978193
 10
238.2775904762993
 20
449.7312495165113
 10
237.9900576699028
 20
449.7871288709882
 10
237.7861799824485
 20
449.8811775498632
 10
237.6741083491096
 20
449.995082026029
 10
237.6138927567253
 20
450.1439222746137
 10
237.6016589033851
 20
450.3311106615308
 10
237.6160087216148
 20
450.4607284121755
 10
237.667060099865
 20
450.574677591825
 42
-0.2480232335923402
  0
LWPOLYLINE
  5
857
330
1F
100
AcDbEntity
  8
Layer1
100
AcDbPolyline
 90
       10
 70
     1
 43
0.0
 10
238.5933013785133
 20
451.7010861687902
 42
0.3835837853124455
 10
236.9748713600883
 20
450.7018739037755
 10
236.9439514506111
 20
450.3480607323888
 10
236.9748713600883
 20
449.8851785116437
 42
0.3063295198575997
 10
237.9017980921524
 20
448.9498326235057
 10
238.511181079174
 20
448.8793948345426
 10
239.3044443953285
 20
448.9494228415731
 42
0.3370315961959175
 10
240.2441861260185
 20
450.0221574359188
 10
240.2517708170662
 20
450.3493347816709
 10
240.2001680958519
 20
450.7658147864583
 42
0.3767158494745439
  0
LWPOLYLINE
  5
86A
330
1F
100
AcDbEntity
  8
Layer1
100
AcDbPolyline
 90
       18
 70
     1
 43
0.0
 10
240.2019562351951
 20
454.2175272159818
 10
240.1549579727897
 20
454.2504587822202
 42
0.1604059813097037
 10
239.8691537010917
 20
454.2833977990392
 10
239.6717282164344
 20
454.2801493458989
 10
239.6305563080558
 20
454.2698973469976
 10
239.5994128811607
 20
454.2502501659635
 10
239.5768972265968
 20
454.2182946257833
 10
239.5580621588478
 20
454.1523644380811
 10
239.5486893284568
 20
454.0533015184644
 10
239.5457985031852
 20
453.6060878687147
 10
239.5457985031852
 20
453.0133941822294
 10
237.0491387474785
 20
453.0133941822294
 10
237.0154472220192
 20
452.9619926266912
 42
0.1598873048998867
 10
236.9885059225807
 20
452.5608459167722
 42
0.1271564791137785
 10
237.0227487910041
 20
452.1836081199888
 42
0.0868250927804731
 10
238.57628425243
 20
452.1504679374936
 42
0.0423979664756536
 10
240.1521416533242
 20
452.1774092369321
 10
240.2019562351951
 20
452.2100651316884
  0
LWPOLYLINE
  5
890
330
1F
100
AcDbEntity
  8
Layer1
100
AcDbPolyline
 90
       10
 70
     1
 43
0.0
 10
237.9549654352913
 20
455.8252582006696
 10
237.9466758203166
 20
455.8309573109646
 10
237.9583032953987
 20
455.8358901791814
 42
-0.0170770269314225
 10
238.8299826394052
 20
456.040780785213
 10
238.8352217304954
 20
456.0232722811941
 10
238.847336374546
 20
455.8206686430219
 10
238.847336374546
 20
455.6011447363141
 10
238.5456921684989
 20
455.6737655453924
 10
238.0958261120567
 20
455.7834976964239
 10
238.0046906101951
 20
455.8077865891698
  0
LWPOLYLINE
  5
891
330
1F
100
AcDbEntity
  8
Layer1
100
AcDbPolyline
 90
       27
 70
     1
 43
0.0
 10
239.4717248308906
 20
455.4175922327283
 10
239.4717248308906
 20
456.2380725198034
 10
239.7998484003792
 20
456.340667014623
 42
0.1052021470448599
 10
240.165433489109
 20
456.4881214552167
 10
240.1782335865745
 20
456.5069565229658
 10
240.1875915158043
 20
456.5319308691266
 10
240.1938947069893
 20
456.5683046036008
 10
240.1971282589683
 20
456.9057339482549
 10
240.1914062130699
 20
457.2784939460996
 10
240.1261689293633
 20
457.2848343901876
 42
0.0378751035076075
 10
237.0375605452308
 20
456.2713542633298
 10
237.0227934944877
 20
456.253957157636
 10
237.0116772282371
 20
456.2314266019109
 10
237.0035560953865
 20
456.1985918932203
 10
236.988297306324
 20
455.8862635545972
 10
236.9958223927269
 20
455.5317723803762
 10
237.0066853392372
 20
455.4655292682889
 10
237.0223613608131
 20
455.4170781426671
 10
237.0432825911293
 20
455.3836846404317
 10
237.0698811638602
 20
455.362606947923
 42
0.016281134294101
 10
240.1220264065519
 20
454.3469214492084
 42
0.1662139641282167
 10
240.1879044401893
 20
454.3610477500203
 42
0.0829818713772742
 10
240.2019562351951
 20
454.7526204638723
 42
0.204294628197721
 10
240.1613654721031
 20
455.1707172446493
 42
0.0987299341134641
 10
239.8703308928261
 20
455.2879148774389
 10
239.6933796036491
 20
455.3429299645666
 10
239.5457985031852
 20
455.3910607152227
  0
LWPOLYLINE
  5
89F
330
1F
100
AcDbEntity
  8
Layer1
100
AcDbPolyline
 90
       13
 70
     1
 43
0.0
 10
616.5014865029105
 20
248.1829860859159
 10
603.0639918673285
 20
248.0477654986623
 10
616.5014865029105
 20
253.9762520842794
 10
616.5014865029105
 20
256.1246866040471
 10
603.0639918673285
 20
262.1523329668287
 10
616.5014865029105
 20
262.0291376166585
 10
616.5014865029105
 20
264.1445213608983
 10
601.501485906864
 20
264.1445213608983
 10
601.501485906864
 20
260.9504127555135
 10
614.5754071104773
 20
255.0549769454244
 10
601.501485906864
 20
249.2917591386083
 10
601.501485906864
 20
246.0675948910955
 10
616.5014865029105
 20
246.0675948910955
  0
LWPOLYLINE
  5
8AC
330
1F
100
AcDbEntity
  8
Layer1
100
AcDbPolyline
 90
       12
 70
     1
 43
0.0
 10
616.5014865029105
 20
279.7214427643064
 10
614.5784171450385
 20
279.7214427643064
 10
614.5784171450385
 20
269.721444850469
 10
609.7707213986167
 20
269.721444850469
 10
609.7707213986167
 20
278.9522150211576
 10
607.8476520407447
 20
278.9522150211576
 10
607.8476520407447
 20
269.721444850469
 10
603.4245701658973
 20
269.721444850469
 10
603.4245701658973
 20
279.5291358285192
 10
601.501485906864
 20
279.5291358285192
 10
601.501485906864
 20
267.6060611062291
 10
616.5014865029105
 20
267.6060611062291
  0
LWPOLYLINE
  5
8B9
330
1F
100
AcDbEntity
  8
Layer1
100
AcDbPolyline
 90
       12
 70
     1
 43
0.0
 10
616.5014865029105
 20
294.5291364245656
 10
614.5784171450385
 20
294.5291364245656
 10
614.5784171450385
 20
284.5291385107282
 10
609.7707213986167
 20
284.5291385107282
 10
609.7707213986167
 20
293.7599086814168
 10
607.8476520407447
 20
293.7599086814168
 10
607.8476520407447
 20
284.5291385107282
 10
603.4245701658973
 20
284.5291385107282
 10
603.4245701658973
 20
294.3368294887784
 10
601.501485906864
 20
294.3368294887784
 10
601.501485906864
 20
282.4137547664884
 10
616.5014865029105
 20
282.4137547664884
  0
LWPOLYLINE
  5
8C4
330
1F
100
AcDbEntity
  8
Layer1
100
AcDbPolyline
 90
       10
 70
     1
 43
0.0
 10
603.0399562943228
 20
304.6313004248384
 42
-0.387916133255895
 10
606.8861099112281
 20
309.9137508921865
 10
606.8861099112281
 20
312.0291383617166
 42
0.4015086752805339
 10
601.1168720352896
 20
304.6433182113411
 42
0.449126828400491
 10
608.9113416302453
 20
296.4522132330182
 42
0.4486786553980162
 10
616.6938008892785
 20
304.6343067341093
 42
0.4031448638206151
 10
610.5399491417655
 20
312.221445297504
 10
610.5399491417655
 20
310.1060615532641
 42
-0.3868879271464399
 10
614.7707166302451
 20
304.6613486163859
 42
-0.4559426172081598
 10
608.9113416302453
 20
298.567596977258
 42
-0.4554876963787996
  0
LWPOLYLINE
  5
8C7
330
1F
100
AcDbEntity
  8
Layer1
100
AcDbPolyline
 90
        2
 70
     1
 43
0.0
 10
259.0866937268028
 20
361.0071131639722
 42
1.0
 10
254.0866937268027
 20
361.0071131639722
 42
1.0
  0
LWPOLYLINE
  5
8CA
330
1F
100
AcDbEntity
  8
Layer1
100
AcDbPolyline
 90
        2
 70
     1
 43
0.0
 10
359.0866937268028
 20
311.0071131639723
 42
1.0
 10
364.0866937268028
 20
311.0071131639723
 42
1.0
  0
LWPOLYLINE
  5
8CD
330
1F
100
AcDbEntity
  8
Layer1
100
AcDbPolyline
 90
        2
 70
     1
 43
0.0
 10
364.0866937268031
 20
411.0071131639722
 42
1.0
 10
359.0866937268031
 20
411.0071131639722
 42
1.0
  0
LWPOLYLINE
  5
8D0
330
1F
100
AcDbEntity
  8
Layer1
100
AcDbPolyline
 90
        2
 70
     1
 43
0.0
 10
424.0866937268028
 20
381.0071131639722
 42
1.0
 10
429.0866937268027
 20
381.0071131639722
 42
1.0
  0
LWPOLYLINE
  5
8D3
330
1F
100
AcDbEntity
  8
Layer1
100
AcDbPolyline
 90
        2
 70
     1
 43
0.0
 10
494.0866937268026
 20
411.0071131639721
 42
1.0
 10
489.0866937268026
 20
411.0071131639721
 42
1.0
  0
LWPOLYLINE
  5
8D6
330
1F
100
AcDbEntity
  8
Layer1
100
AcDbPolyline
 90
        2
 70
     1
 43
0.0
 10
489.0866937268028
 20
311.0071131639722
 42
1.0
 10
494.0866937268029
 20
311.0071131639722
 42
1.0
  0
LWPOLYLINE
  5
8D9
330
1F
100
AcDbEntity
  8
Layer1
100
AcDbPolyline
 90
        2
 70
     1
 43
0.0
 10
594.0866937268029
 20
361.0071131639722
 42
1.0
 10
599.0866937268028
 20
361.0071131639722
 42
1.0
  0
ENDSEC
  0
SECTION
  2
OBJECTS
  0
DICTIONARY
  5
C
330
0
100
AcDbDictionary
281
     1
  3
ACAD_CIP_PREVIOUS_PRODUCT_INFO
350
396
  3
ACAD_COLOR
350
38B
  3
ACAD_DETAILVIEWSTYLE
350
392
  3
ACAD_GROUP
350
D
  3
ACAD_LAYOUT
350
1A
  3
ACAD_MATERIAL
350
359
  3
ACAD_MLEADERSTYLE
350
38E
  3
ACAD_MLINESTYLE
350
17
  3
ACAD_PLOTSETTINGS
350
19
  3
ACAD_PLOTSTYLENAME
350
E
  3
ACAD_SCALELIST
350
47
  3
ACAD_SECTIONVIEWSTYLE
350
390
  3
ACAD_TABLESTYLE
350
38C
  3
ACAD_VISUALSTYLE
350
372
  3
ACDB_RECOMPOSE_DATA
350
8F0
  3
AcDbVariableDictionary
350
39B
  0
DICTIONARY
  5
8DD
330
2
100
AcDbDictionary
280
     1
281
     1
  3
ACAD_LAYERSTATES
360
8DE
  0
DICTIONARY
  5
397
330
10
100
AcDbDictionary
280
     1
281
     1
  3
ADSK_XREC_LAYER_RECONCILED
360
398
  0
DICTIONARY
  5
399
330
73
100
AcDbDictionary
280
     1
281
     1
  3
ADSK_XREC_LAYER_RECONCILED
360
39A
  0
DICTIONARY
  5
59D
330
1F
100
AcDbDictionary
280
     1
281
     1
  3
ACAD_SORTENTS
360
59E
  0
XRECORD
  5
396
102
{ACAD_REACTORS
330
C
102
}
330
C
100
AcDbXrecord
280
     1
300
ACD
300
2016
300
ACD_F_S
  0
DICTIONARY
  5
38B
102
{ACAD_REACTORS
330
C
102
}
330
C
100
AcDbDictionary
281
     1
  0
DICTIONARY
  5
392
102
{ACAD_REACTORS
330
C
102
}
330
C
100
AcDbDictionary
281
     1
  3
Metric50
350
393
  0
DICTIONARY
  5
D
102
{ACAD_REACTORS
330
C
102
}
330
C
100
AcDbDictionary
281
     1
  0
DICTIONARY
  5
1A
102
{ACAD_REACTORS
330
C
102
}
330
C
100
AcDbDictionary
281
     1
  3
Layout1
350
1E
  3
Layout2
350
26
  3
Model
350
22
  0
DICTIONARY
  5
359
102
{ACAD_REACTORS
330
C
102
}
330
C
100
AcDbDictionary
281
     1
  3
ByBlock
350
362
  3
ByLayer
350
35A
  3
Global
350
36A
  0
DICTIONARY
  5
38E
102
{ACAD_REACTORS
330
C
102
}
330
C
100
AcDbDictionary
281
     1
  3
Standard
350
38F
  0
DICTIONARY
  5
17
102
{ACAD_REACTORS
330
C
102
}
330
C
100
AcDbDictionary
281
     1
  3
Standard
350
18
  0
DICTIONARY
  5
19
102
{ACAD_REACTORS
330
C
102
}
330
C
100
AcDbDictionary
281
     1
  0
ACDBDICTIONARYWDFLT
  5
E
102
{ACAD_REACTORS
330
C
102
}
330
C
100
AcDbDictionary
281
     1
  3
Normal
350
F
100
AcDbDictionaryWithDefault
340
F
  0
DICTIONARY
  5
47
102
{ACAD_REACTORS
330
C
102
}
330
C
100
AcDbDictionary
281
     1
  3
A0
350
48
  3
A1
350
49
  3
A2
350
4A
  3
A3
350
4B
  3
A4
350
4C
  3
A5
350
4D
  3
A6
350
4E
  3
A7
350
4F
  3
A8
350
50
  3
A9
350
51
  3
B0
350
52
  3
B1
350
53
  3
B2
350
54
  3
B3
350
55
  3
B4
350
56
  3
B5
350
57
  3
B6
350
58
  3
B7
350
59
  3
B8
350
5A
  3
B9
350
5B
  3
C0
350
5C
  3
C1
350
5D
  3
C2
350
5E
  3
C3
350
5F
  3
C4
350
60
  3
C5
350
61
  3
C6
350
62
  3
C7
350
63
  3
C8
350
64
  3
C9
350
65
  3
D0
350
66
  3
D1
350
67
  3
D2
350
68
  0
DICTIONARY
  5
390
102
{ACAD_REACTORS
330
C
102
}
330
C
100
AcDbDictionary
281
     1
  3
Metric50
350
391
  0
DICTIONARY
  5
38C
102
{ACAD_REACTORS
330
C
102
}
330
C
100
AcDbDictionary
281
     1
  3
Standard
350
38D
  0
DICTIONARY
  5
372
102
{ACAD_REACTORS
330
C
102
}
330
C
100
AcDbDictionary
281
     1
  3
2dWireframe
350
378
  3
Basic
350
377
  3
Brighten
350
37E
  3
ColorChange
350
382
  3
Conceptual
350
37B
  3
Dim
350
37D
  3
EdgeColorOff
350
38A
  3
Facepattern
350
381
  3
Flat
350
373
  3
FlatWithEdges
350
374
  3
Gouraud
350
375
  3
GouraudWithEdges
350
376
  3
Hidden
350
37A
  3
JitterOff
350
388
  3
Linepattern
350
380
  3
OverhangOff
350
389
  3
Realistic
350
37C
  3
Shaded
350
387
  3
Shaded with edges
350
386
  3
Shades of Gray
350
383
  3
Sketchy
350
384
  3
Thicken
350
37F
  3
Wireframe
350
379
  3
X-Ray
350
385
  0
XRECORD
  5
8F0
102
{ACAD_REACTORS
330
C
102
}
330
C
100
AcDbXrecord
280
     1
 90
        1
330
38D
330
391
330
393
  0
DICTIONARY
  5
39B
102
{ACAD_REACTORS
330
C
102
}
330
C
100
AcDbDictionary
281
     1
  3
CANNOSCALE
350
3A1
  3
CMLEADERSTYLE
350
39D
  3
CTABLESTYLE
350
39C
  3
CVIEWDETAILSTYLE
350
39E
  3
CVIEWSECTIONSTYLE
350
39F
  3
LAYEREVAL
350
3A3
  3
LAYERNOTIFY
350
3A4
  3
LIGHTINGUNITS
350
3A2
  3
MSLTSCALE
350
3A0
  0
DICTIONARY
  5
8DE
102
{ACAD_REACTORS
330
8DD
102
}
330
8DD
100
AcDbDictionary
281
     1
  0
XRECORD
  5
398
102
{ACAD_REACTORS
330
397
102
}
330
397
100
AcDbXrecord
280
     1
290
     1
  0
XRECORD
  5
39A
102
{ACAD_REACTORS
330
399
102
}
330
399
100
AcDbXrecord
280
     1
290
     1
  0
SORTENTSTABLE
  5
59E
102
{ACAD_REACTORS
330
59D
102
}
330
59D
100
AcDbSortentsTable
330
1F
331
16F
  5
170
331
170
  5
171
331
53C
  5
55A
331
452
  5
453
331
171
  5
172
331
3CE
  5
3DB
331
453
  5
47C
331
172
  5
173
331
507
  5
508
331
173
  5
174
331
508
  5
521
331
174
  5
175
331
48A
  5
4AE
331
175
  5
176
331
3DB
  5
400
331
176
  5
177
331
165
  5
166
331
4D8
  5
507
331
410
  5
436
331
4AE
  5
4AF
331
177
  5
178
331
166
  5
167
331
576
  5
599
331
599
  5
59A
331
400
  5
410
331
47C
  5
47D
331
4AF
  5
4D8
331
167
  5
168
331
47D
  5
48A
331
168
  5
169
331
169
  5
16A
331
521
  5
522
331
436
  5
437
331
16A
  5
16B
331
522
  5
53C
331
437
  5
452
331
16B
  5
16C
331
55A
  5
576
331
16C
  5
16D
331
16D
  5
16E
331
16E
  5
16F
  0
ACDBDETAILVIEWSTYLE
  5
393
102
{ACAD_XDICTIONARY
360
8EE
102
}
102
{ACAD_REACTORS
330
392
102
}
330
392
100
AcDbModelDocViewStyle
 70
     0
  3
Metric50
290
     0
100
AcDbDetailViewStyle
 70
     0
 71
     0
 90
        3
 71
     1
340
11
 62
   256
 40
5.0
340
0
 62
   256
 40
5.0
300

 40
0.0
280
     1
 71
     2
340
16
 90
       25
 62
   256
 71
     3
340
11
 62
   256
 40
5.0
 90
        0
 40
15.0
 90
        1
300
%<\AcVar ViewDetailId>% (%<\AcVar ViewScale \f "%sn">%)
 71
     4
340
16
 90
       25
 62
   256
340
16
 90
       25
 62
   256
280
     0
  0
LAYOUT
  5
1E
102
{ACAD_REACTORS
330
1A
102
}
330
1A
100
AcDbPlotSettings
  1

  2
none_device
  4

  6

 40
0.0
 41
0.0
 42
0.0
 43
0.0
 44
0.0
 45
0.0
 46
0.0
 47
0.0
 48
0.0
 49
0.0
140
0.0
141
0.0
142
1.0
143
1.0
 70
   688
 72
     1
 73
     0
 74
     5
  7

 75
    16
147
1.0
 76
     0
 77
     2
 78
   300
148
0.0
149
0.0
100
AcDbLayout
  1
Layout1
 70
     1
 71
     1
 10
0.0
 20
0.0
 11
420.0
 21
297.0
 12
0.0
 22
0.0
 32
0.0
 14
1.000000000000000E+20
 24
1.000000000000000E+20
 34
1.000000000000000E+20
 15
-1.000000000000000E+20
 25
-1.000000000000000E+20
 35
-1.000000000000000E+20
146
0.0
 13
0.0
 23
0.0
 33
0.0
 16
1.0
 26
0.0
 36
0.0
 17
0.0
 27
1.0
 37
0.0
 76
     0
330
1B
  0
LAYOUT
  5
26
102
{ACAD_REACTORS
330
1A
102
}
330
1A
100
AcDbPlotSettings
  1

  2
none_device
  4

  6

 40
0.0
 41
0.0
 42
0.0
 43
0.0
 44
0.0
 45
0.0
 46
0.0
 47
0.0
 48
0.0
 49
0.0
140
0.0
141
0.0
142
1.0
143
1.0
 70
   688
 72
     1
 73
     0
 74
     5
  7

 75
    16
147
1.0
 76
     0
 77
     2
 78
   300
148
0.0
149
0.0
100
AcDbLayout
  1
Layout2
 70
     1
 71
     2
 10
0.0
 20
0.0
 11
0.0
 21
0.0
 12
0.0
 22
0.0
 32
0.0
 14
0.0
 24
0.0
 34
0.0
 15
0.0
 25
0.0
 35
0.0
146
0.0
 13
0.0
 23
0.0
 33
0.0
 16
1.0
 26
0.0
 36
0.0
 17
0.0
 27
1.0
 37
0.0
 76
     0
330
23
  0
LAYOUT
  5
22
102
{ACAD_REACTORS
330
1A
102
}
330
1A
100
AcDbPlotSettings
  1

  2
none_device
  4
Letter_(8.50_x_11.00_Inches)
  6

 40
6.349999999999999
 41
6.349999999999999
 42
6.350005079999999
 43
6.350005079999999
 44
215.9
 45
279.4
 46
0.0
 47
0.0
 48
0.0
 49
0.0
140
0.0
141
0.0
142
1.0
143
1.0
 70
  1712
 72
     1
 73
     0
 74
     0
  7

 75
     0
147
1.0
 76
     0
 77
     2
 78
   300
148
0.0
149
0.0
100
AcDbLayout
  1
Model
 70
     1
 71
     0
 10
0.0
 20
0.0
 11
841.0
 21
594.0
 12
0.0
 22
0.0
 32
0.0
 14
0.0
 24
0.0
 34
0.0
 15
841.0
 25
594.0
 35
0.0
146
0.0
 13
0.0
 23
0.0
 33
0.0
 16
1.0
 26
0.0
 36
0.0
 17
0.0
 27
1.0
 37
0.0
 76
     0
330
1F
331
29
  0
MATERIAL
  5
362
102
{ACAD_XDICTIONARY
360
363
102
}
102
{ACAD_REACTORS
330
359
102
}
330
359
100
AcDbMaterial
  1
ByBlock
 72
     0
 43
0.0008202099737533
 43
0.0
 43
0.0
 43
0.0
 43
0.0
 43
0.0008202099737533
 43
0.0
 43
0.0
 43
0.0
 43
0.0
 43
1.0
 43
0.0
 43
0.0
 43
0.0
 43
0.0
 43
1.0
 77
     0
 47
0.0008202099737533
 47
0.0
 47
0.0
 47
0.0
 47
0.0
 47
0.0008202099737533
 47
0.0
 47
0.0
 47
0.0
 47
0.0
 47
1.0
 47
0.0
 47
0.0
 47
0.0
 47
0.0
 47
1.0
171
     0
 49
0.0008202099737533
 49
0.0
 49
0.0
 49
0.0
 49
0.0
 49
0.0008202099737533
 49
0.0
 49
0.0
 49
0.0
 49
0.0
 49
1.0
 49
0.0
 49
0.0
 49
0.0
 49
0.0
 49
1.0
175
     0
142
0.0008202099737533
142
0.0
142
0.0
142
0.0
142
0.0
142
0.0008202099737533
142
0.0
142
0.0
142
0.0
142
0.0
142
1.0
142
0.0
142
0.0
142
0.0
142
0.0
142
1.0
179
     0
144
0.0008202099737533
144
0.0
144
0.0
144
0.0
144
0.0
144
0.0008202099737533
144
0.0
144
0.0
144
0.0
144
0.0
144
1.0
144
0.0
144
0.0
144
0.0
144
0.0
144
1.0
147
0.0008202099737533
147
0.0
147
0.0
147
0.0
147
0.0
147
0.0008202099737533
147
0.0
147
0.0
147
0.0
147
0.0
147
1.0
147
0.0
147
0.0
147
0.0
147
0.0
147
1.0
  0
MATERIAL
  5
35A
102
{ACAD_XDICTIONARY
360
35B
102
}
102
{ACAD_REACTORS
330
359
102
}
330
359
100
AcDbMaterial
  1
ByLayer
 72
     0
 43
0.0008202099737533
 43
0.0
 43
0.0
 43
0.0
 43
0.0
 43
0.0008202099737533
 43
0.0
 43
0.0
 43
0.0
 43
0.0
 43
1.0
 43
0.0
 43
0.0
 43
0.0
 43
0.0
 43
1.0
 77
     0
 47
0.0008202099737533
 47
0.0
 47
0.0
 47
0.0
 47
0.0
 47
0.0008202099737533
 47
0.0
 47
0.0
 47
0.0
 47
0.0
 47
1.0
 47
0.0
 47
0.0
 47
0.0
 47
0.0
 47
1.0
171
     0
 49
0.0008202099737533
 49
0.0
 49
0.0
 49
0.0
 49
0.0
 49
0.0008202099737533
 49
0.0
 49
0.0
 49
0.0
 49
0.0
 49
1.0
 49
0.0
 49
0.0
 49
0.0
 49
0.0
 49
1.0
175
     0
142
0.0008202099737533
142
0.0
142
0.0
142
0.0
142
0.0
142
0.0008202099737533
142
0.0
142
0.0
142
0.0
142
0.0
142
1.0
142
0.0
142
0.0
142
0.0
142
0.0
142
1.0
179
     0
144
0.0008202099737533
144
0.0
144
0.0
144
0.0
144
0.0
144
0.0008202099737533
144
0.0
144
0.0
144
0.0
144
0.0
144
1.0
144
0.0
144
0.0
144
0.0
144
0.0
144
1.0
147
0.0008202099737533
147
0.0
147
0.0
147
0.0
147
0.0
147
0.0008202099737533
147
0.0
147
0.0
147
0.0
147
0.0
147
1.0
147
0.0
147
0.0
147
0.0
147
0.0
147
1.0
  0
MATERIAL
  5
36A
102
{ACAD_XDICTIONARY
360
36B
102
}
102
{ACAD_REACTORS
330
359
102
}
330
359
100
AcDbMaterial
  1
Global
 72
     0
 43
0.0008202099737533
 43
0.0
 43
0.0
 43
0.0
 43
0.0
 43
0.0008202099737533
 43
0.0
 43
0.0
 43
0.0
 43
0.0
 43
1.0
 43
0.0
 43
0.0
 43
0.0
 43
0.0
 43
1.0
 77
     0
 47
0.0008202099737533
 47
0.0
 47
0.0
 47
0.0
 47
0.0
 47
0.0008202099737533
 47
0.0
 47
0.0
 47
0.0
 47
0.0
 47
1.0
 47
0.0
 47
0.0
 47
0.0
 47
0.0
 47
1.0
171
     0
 49
0.0008202099737533
 49
0.0
 49
0.0
 49
0.0
 49
0.0
 49
0.0008202099737533
 49
0.0
 49
0.0
 49
0.0
 49
0.0
 49
1.0
 49
0.0
 49
0.0
 49
0.0
 49
0.0
 49
1.0
175
     0
142
0.0008202099737533
142
0.0
142
0.0
142
0.0
142
0.0
142
0.0008202099737533
142
0.0
142
0.0
142
0.0
142
0.0
142
1.0
142
0.0
142
0.0
142
0.0
142
0.0
142
1.0
179
     0
144
0.0008202099737533
144
0.0
144
0.0
144
0.0
144
0.0
144
0.0008202099737533
144
0.0
144
0.0
144
0.0
144
0.0
144
1.0
144
0.0
144
0.0
144
0.0
144
0.0
144
1.0
147
0.0008202099737533
147
0.0
147
0.0
147
0.0
147
0.0
147
0.0008202099737533
147
0.0
147
0.0
147
0.0
147
0.0
147
1.0
147
0.0
147
0.0
147
0.0
147
0.0
147
1.0
  0
MLEADERSTYLE
  5
38F
102
{ACAD_REACTORS
330
38E
102
}
330
38E
100
AcDbMLeaderStyle
179
     2
170
     2
171
     1
172
     0
 90
        2
 40
0.0
 41
0.0
173
     1
 91
-1056964608
340
14
 92
       -2
290
     1
 42
2.0
291
     1
 43
0.36
  3
Standard
 44
4.0
300

342
11
174
     1
178
     6
175
     1
176
     0
 93
-1056964608
 45
4.0
292
     0
297
     0
 46
4.0
 94
-1056964608
 47
1.0
 49
1.0
140
1.0
293
     1
141
0.0
294
     1
177
     0
142
1.0
295
     1
296
     0
143
0.125
271
     0
272
     9
273
     9
298
     1
  0
MLINESTYLE
  5
18
102
{ACAD_REACTORS
330
17
102
}
330
17
100
AcDbMlineStyle
  2
STANDARD
 70
     0
  3

 62
   256
 51
90.0
 52
90.0
 71
     2
 49
0.5
 62
   256
  6
BYLAYER
 49
-0.5
 62
   256
  6
BYLAYER
  0
ACDBPLACEHOLDER
  5
F
102
{ACAD_REACTORS
330
E
102
}
330
E
  0
SCALE
  5
48
102
{ACAD_REACTORS
330
47
102
}
330
47
100
AcDbScale
 70
     0
300
1:1
140
1.0
141
1.0
290
     1
  0
SCALE
  5
49
102
{ACAD_REACTORS
330
47
102
}
330
47
100
AcDbScale
 70
     0
300
1:2
140
1.0
141
2.0
290
     0
  0
SCALE
  5
4A
102
{ACAD_REACTORS
330
47
102
}
330
47
100
AcDbScale
 70
     0
300
1:4
140
1.0
141
4.0
290
     0
  0
SCALE
  5
4B
102
{ACAD_REACTORS
330
47
102
}
330
47
100
AcDbScale
 70
     0
300
1:5
140
1.0
141
5.0
290
     0
  0
SCALE
  5
4C
102
{ACAD_REACTORS
330
47
102
}
330
47
100
AcDbScale
 70
     0
300
1:8
140
1.0
141
8.0
290
     0
  0
SCALE
  5
4D
102
{ACAD_REACTORS
330
47
102
}
330
47
100
AcDbScale
 70
     0
300
1:10
140
1.0
141
10.0
290
     0
  0
SCALE
  5
4E
102
{ACAD_REACTORS
330
47
102
}
330
47
100
AcDbScale
 70
     0
300
1:16
140
1.0
141
16.0
290
     0
  0
SCALE
  5
4F
102
{ACAD_REACTORS
330
47
102
}
330
47
100
AcDbScale
 70
     0
300
1:20
140
1.0
141
20.0
290
     0
  0
SCALE
  5
50
102
{ACAD_REACTORS
330
47
102
}
330
47
100
AcDbScale
 70
     0
300
1:30
140
1.0
141
30.0
290
     0
  0
SCALE
  5
51
102
{ACAD_REACTORS
330
47
102
}
330
47
100
AcDbScale
 70
     0
300
1:40
140
1.0
141
40.0
290
     0
  0
SCALE
  5
52
102
{ACAD_REACTORS
330
47
102
}
330
47
100
AcDbScale
 70
     0
300
1:50
140
1.0
141
50.0
290
     0
  0
SCALE
  5
53
102
{ACAD_REACTORS
330
47
102
}
330
47
100
AcDbScale
 70
     0
300
1:100
140
1.0
141
100.0
290
     0
  0
SCALE
  5
54
102
{ACAD_REACTORS
330
47
102
}
330
47
100
AcDbScale
 70
     0
300
2:1
140
2.0
141
1.0
290
     0
  0
SCALE
  5
55
102
{ACAD_REACTORS
330
47
102
}
330
47
100
AcDbScale
 70
     0
300
4:1
140
4.0
141
1.0
290
     0
  0
SCALE
  5
56
102
{ACAD_REACTORS
330
47
102
}
330
47
100
AcDbScale
 70
     0
300
8:1
140
8.0
141
1.0
290
     0
  0
SCALE
  5
57
102
{ACAD_REACTORS
330
47
102
}
330
47
100
AcDbScale
 70
     0
300
10:1
140
10.0
141
1.0
290
     0
  0
SCALE
  5
58
102
{ACAD_REACTORS
330
47
102
}
330
47
100
AcDbScale
 70
     0
300
100:1
140
100.0
141
1.0
290
     0
  0
SCALE
  5
59
102
{ACAD_REACTORS
330
47
102
}
330
47
100
AcDbScale
 70
     0
300
1/128" = 1'-0"
140
0.0078125
141
12.0
290
     0
  0
SCALE
  5
5A
102
{ACAD_REACTORS
330
47
102
}
330
47
100
AcDbScale
 70
     0
300
1/64" = 1'-0"
140
0.015625
141
12.0
290
     0
  0
SCALE
  5
5B
102
{ACAD_REACTORS
330
47
102
}
330
47
100
AcDbScale
 70
     0
300
1/32" = 1'-0"
140
0.03125
141
12.0
290
     0
  0
SCALE
  5
5C
102
{ACAD_REACTORS
330
47
102
}
330
47
100
AcDbScale
 70
     0
300
1/16" = 1'-0"
140
0.0625
141
12.0
290
     0
  0
SCALE
  5
5D
102
{ACAD_REACTORS
330
47
102
}
330
47
100
AcDbScale
 70
     0
300
3/32" = 1'-0"
140
0.09375
141
12.0
290
     0
  0
SCALE
  5
5E
102
{ACAD_REACTORS
330
47
102
}
330
47
100
AcDbScale
 70
     0
300
1/8" = 1'-0"
140
0.125
141
12.0
290
     0
  0
SCALE
  5
5F
102
{ACAD_REACTORS
330
47
102
}
330
47
100
AcDbScale
 70
     0
300
3/16" = 1'-0"
140
0.1875
141
12.0
290
     0
  0
SCALE
  5
60
102
{ACAD_REACTORS
330
47
102
}
330
47
100
AcDbScale
 70
     0
300
1/4" = 1'-0"
140
0.25
141
12.0
290
     0
  0
SCALE
  5
61
102
{ACAD_REACTORS
330
47
102
}
330
47
100
AcDbScale
 70
     0
300
3/8" = 1'-0"
140
0.375
141
12.0
290
     0
  0
SCALE
  5
62
102
{ACAD_REACTORS
330
47
102
}
330
47
100
AcDbScale
 70
     0
300
1/2" = 1'-0"
140
0.5
141
12.0
290
     0
  0
SCALE
  5
63
102
{ACAD_REACTORS
330
47
102
}
330
47
100
AcDbScale
 70
     0
300
3/4" = 1'-0"
140
0.75
141
12.0
290
     0
  0
SCALE
  5
64
102
{ACAD_REACTORS
330
47
102
}
330
47
100
AcDbScale
 70
     0
300
1" = 1'-0"
140
1.0
141
12.0
290
     0
  0
SCALE
  5
65
102
{ACAD_REACTORS
330
47
102
}
330
47
100
AcDbScale
 70
     0
300
1-1/2" = 1'-0"
140
1.5
141
12.0
290
     0
  0
SCALE
  5
66
102
{ACAD_REACTORS
330
47
102
}
330
47
100
AcDbScale
 70
     0
300
3" = 1'-0"
140
3.0
141
12.0
290
     0
  0
SCALE
  5
67
102
{ACAD_REACTORS
330
47
102
}
330
47
100
AcDbScale
 70
     0
300
6" = 1'-0"
140
6.0
141
12.0
290
     0
  0
SCALE
  5
68
102
{ACAD_REACTORS
330
47
102
}
330
47
100
AcDbScale
 70
     0
300
1'-0" = 1'-0"
140
12.0
141
12.0
290
     0
  0
ACDBSECTIONVIEWSTYLE
  5
391
102
{ACAD_XDICTIONARY
360
8EC
102
}
102
{ACAD_REACTORS
330
390
102
}
330
390
100
AcDbModelDocViewStyle
 70
     0
  3
Metric50
290
     0
100
AcDbSectionViewStyle
 70
     0
 71
     0
 90
      102
 71
     1
340
11
 62
   256
 40
5.0
340
0
340
0
 62
   256
 40
5.0
300
I, O, Q, S, X, Z
 40
10.0
 90
        0
 40
2.5
 90
        0
 71
     2
340
16
 90
       25
 62
   256
340
16
 90
       50
 62
   256
 40
5.0
 40
2.5
 40
5.0
 71
     3
340
11
 62
   256
 40
5.0
 90
        0
 40
15.0
 90
        1
300
%<\AcVar ViewSectionStartId>%-%<\AcVar ViewSectionEndId>% (%<\AcVar ViewScale \f "%sn">%)
 71
     4
 62
   256
 62
   257
300
ANSI31
 40
1.0
 90
        0
290
     0
290
     0
 90
        6
 40
0.0
 40
1.570796326794896
 40
0.2617993877991494
 40
1.308996938995747
 40
-0.2617993877991494
 40
1.832595714594046
  0
TABLESTYLE
  5
38D
102
{ACAD_XDICTIONARY
360
8EA
102
}
102
{ACAD_REACTORS
330
38C
102
}
330
38C
100
AcDbTableStyle
280
     0
  3
Standard
 70
     0
 71
     0
 40
1.5
 41
1.5
280
     0
281
     0
  7
Standard
140
4.5
170
     2
 62
     0
 63
     7
283
     0
 90
      512
 91
        0
  1

274
    -2
284
     1
 64
     0
275
    -2
285
     1
 65
     0
276
    -2
286
     1
 66
     0
277
    -2
287
     1
 67
     0
278
    -2
288
     1
 68
     0
279
    -2
289
     1
 69
     0
  7
Standard
140
6.0
170
     5
 62
     0
 63
     7
283
     0
 90
      512
 91
        0
  1

274
    -2
284
     1
 64
     0
275
    -2
285
     1
 65
     0
276
    -2
286
     1
 66
     0
277
    -2
287
     1
 67
     0
278
    -2
288
     1
 68
     0
279
    -2
289
     1
 69
     0
  7
Standard
140
4.5
170
     5
 62
     0
 63
     7
283
     0
 90
      512
 91
        0
  1

274
    -2
284
     1
 64
     0
275
    -2
285
     1
 65
     0
276
    -2
286
     1
 66
     0
277
    -2
287
     1
 67
     0
278
    -2
288
     1
 68
     0
279
    -2
289
     1
 69
     0
  0
VISUALSTYLE
  5
378
102
{ACAD_REACTORS
330
372
102
}
330
372
100
AcDbVisualStyle
  2
2dWireframe
 70
     4
177
     3
291
     0
 70
    58
 90
        0
176
     1
 90
        2
176
     1
 90
        0
176
     1
 90
        0
176
     1
 40
0.6
176
     1
 40
30.0
176
     1
 62
     7
420
 16777215
176
     1
 90
        1
176
     1
 90
        4
176
     1
 62
     7
176
     1
 62
   257
176
     1
 90
        1
176
     1
 90
        1
176
     1
 40
1.0
176
     1
 90
        0
176
     1
 62
   257
176
     1
 40
1.0
176
     1
 90
        1
176
     1
 90
        6
176
     1
 90
        2
176
     1
 62
     7
176
     1
 90
        5
176
     1
 90
        0
176
     1
 90
        0
176
     1
290
     0
176
     1
 90
        1
176
     1
 40
0.0
176
     1
 90
        0
176
     1
290
     1
176
     1
290
     1
176
     1
290
     0
176
     1
290
     0
176
     1
290
     0
176
     1
290
     0
176
     1
290
     0
176
     1
290
     0
176
     1
290
     0
176
     1
 90
       50
176
     1
 40
0.0
176
     1
 40
1.0
176
     1
 90
        0
176
     1
 62
    18
420
        0
176
     1
 90
       50
176
     1
 90
        3
176
     1
 62
     5
420
      255
176
     1
290
     0
176
     1
 90
       50
176
     1
 90
       50
176
     1
 90
       50
176
     1
290
     0
176
     1
 90
       50
176
     1
 62
   256
176
     0
 40
1.0
176
     0
 90
        2
176
     1
  1
strokes_ogs.tif
176
     1
290
     0
176
     1
 40
1.0
176
     1
 40
1.0
176
     1
  0
VISUALSTYLE
  5
377
102
{ACAD_REACTORS
330
372
102
}
330
372
100
AcDbVisualStyle
  2
Basic
 70
     7
177
     3
291
     1
 70
    58
 90
        1
176
     1
 90
        0
176
     1
 90
        1
176
     1
 90
        0
176
     1
 40
0.6
176
     1
 40
30.0
176
     1
 62
     7
420
 16777215
176
     1
 90
        0
176
     1
 90
        4
176
     1
 62
     7
176
     1
 62
   257
176
     1
 90
        1
176
     1
 90
        1
176
     1
 40
1.0
176
     1
 90
        8
176
     1
 62
     7
176
     1
 40
1.0
176
     1
 90
        1
176
     1
 90
        6
176
     1
 90
        2
176
     1
 62
     7
176
     1
 90
        5
176
     1
 90
        0
176
     1
 90
        0
176
     1
290
     0
176
     1
 90
        1
176
     1
 40
0.0
176
     1
 90
        0
176
     1
290
     0
176
     1
290
     1
176
     1
290
     1
176
     1
290
     0
176
     1
290
     0
176
     1
290
     0
176
     1
290
     0
176
     1
290
     0
176
     1
290
     0
176
     1
 90
       50
176
     1
 40
0.0
176
     1
 40
1.0
176
     1
 90
        0
176
     1
 62
    18
420
        0
176
     1
 90
       50
176
     1
 90
        3
176
     1
 62
     5
420
      255
176
     1
290
     0
176
     1
 90
       50
176
     1
 90
       50
176
     1
 90
       50
176
     1
290
     0
176
     1
 90
       50
176
     1
 62
   256
176
     0
 40
1.0
176
     0
 90
        2
176
     1
  1
strokes_ogs.tif
176
     1
290
     0
176
     1
 40
1.0
176
     1
 40
1.0
176
     1
  0
VISUALSTYLE
  5
37E
102
{ACAD_REACTORS
330
372
102
}
330
372
100
AcDbVisualStyle
  2
Brighten
 70
    12
177
     3
291
     1
 70
    58
 90
        2
176
     1
 90
        2
176
     1
 90
        0
176
     1
 90
        0
176
     1
 40
0.6
176
     1
 40
30.0
176
     1
 62
     7
420
 16777215
176
     1
 90
        1
176
     1
 90
        4
176
     1
 62
     7
176
     1
 62
   257
176
     1
 90
        1
176
     1
 90
        1
176
     1
 40
1.0
176
     1
 90
        8
176
     1
 62
     7
176
     1
 40
1.0
176
     1
 90
        1
176
     1
 90
        6
176
     1
 90
        2
176
     1
 62
     7
176
     1
 90
        5
176
     1
 90
        0
176
     1
 90
        0
176
     1
290
     0
176
     1
 90
        1
176
     1
 40
50.0
176
     1
 90
        0
176
     1
290
     0
176
     1
290
     1
176
     1
290
     1
176
     1
290
     0
176
     1
290
     0
176
     1
290
     0
176
     1
290
     0
176
     1
290
     0
176
     1
290
     0
176
     1
 90
       50
176
     1
 40
0.0
176
     1
 40
1.0
176
     1
 90
        0
176
     1
 62
    18
420
        0
176
     1
 90
       50
176
     1
 90
        3
176
     1
 62
     5
420
      255
176
     1
290
     0
176
     1
 90
       50
176
     1
 90
       50
176
     1
 90
       50
176
     1
290
     0
176
     1
 90
       50
176
     1
 62
   256
176
     0
 40
1.0
176
     0
 90
        2
176
     1
  1
strokes_ogs.tif
176
     1
290
     0
176
     1
 40
1.0
176
     1
 40
1.0
176
     1
  0
VISUALSTYLE
  5
382
102
{ACAD_REACTORS
330
372
102
}
330
372
100
AcDbVisualStyle
  2
ColorChange
 70
    16
177
     3
291
     1
 70
    58
 90
        2
176
     1
 90
        2
176
     1
 90
        3
176
     1
 90
        0
176
     1
 40
0.6
176
     1
 40
30.0
176
     1
 62
     8
420
  8421504
176
     1
 90
        1
176
     1
 90
        4
176
     1
 62
     7
176
     1
 62
   257
176
     1
 90
        1
176
     1
 90
        1
176
     1
 40
1.0
176
     1
 90
        8
176
     1
 62
     8
420
  8421504
176
     1
 40
1.0
176
     1
 90
        1
176
     1
 90
        6
176
     1
 90
        2
176
     1
 62
     7
176
     1
 90
        5
176
     1
 90
        0
176
     1
 90
        0
176
     1
290
     0
176
     1
 90
        1
176
     1
 40
0.0
176
     1
 90
        0
176
     1
290
     0
176
     1
290
     1
176
     1
290
     1
176
     1
290
     0
176
     1
290
     0
176
     1
290
     0
176
     1
290
     0
176
     1
290
     0
176
     1
290
     0
176
     1
 90
       50
176
     1
 40
0.0
176
     1
 40
1.0
176
     1
 90
        0
176
     1
 62
    18
420
        0
176
     1
 90
       50
176
     1
 90
        3
176
     1
 62
     5
420
      255
176
     1
290
     0
176
     1
 90
       50
176
     1
 90
       50
176
     1
 90
       50
176
     1
290
     0
176
     1
 90
       50
176
     1
 62
   256
176
     0
 40
1.0
176
     0
 90
        2
176
     1
  1
strokes_ogs.tif
176
     1
290
     0
176
     1
 40
1.0
176
     1
 40
1.0
176
     1
  0
VISUALSTYLE
  5
37B
102
{ACAD_REACTORS
330
372
102
}
330
372
100
AcDbVisualStyle
  2
Conceptual
 70
     9
177
     3
291
     0
 70
    58
 90
        3
176
     1
 90
        2
176
     1
 90
        0
176
     1
 90
        0
176
     1
 40
0.6
176
     1
 40
30.0
176
     1
 62
     7
420
 16777215
176
     1
 90
        2
176
     1
 90
        2
176
     1
 62
     7
176
     1
 62
   257
176
     1
 90
        1
176
     1
 90
        1
176
     1
 40
179.0
176
     1
 90
        8
176
     1
 62
     7
176
     1
 40
1.0
176
     1
 90
        1
176
     1
 90
        6
176
     1
 90
        2
176
     1
 62
     7
176
     1
 90
        3
176
     1
 90
        0
176
     1
 90
        0
176
     1
290
     0
176
     1
 90
        1
176
     1
 40
0.0
176
     1
 90
        0
176
     1
290
     0
176
     1
290
     1
176
     1
290
     1
176
     1
290
     0
176
     1
290
     0
176
     1
290
     0
176
     1
290
     0
176
     1
290
     0
176
     1
290
     0
176
     1
 90
       50
176
     1
 40
0.0
176
     1
 40
1.0
176
     1
 90
        0
176
     1
 62
    18
420
        0
176
     1
 90
       50
176
     1
 90
        3
176
     1
 62
     5
420
      255
176
     1
290
     0
176
     1
 90
       50
176
     1
 90
       50
176
     1
 90
       50
176
     1
290
     0
176
     1
 90
       50
176
     1
 62
   256
176
     0
 40
1.0
176
     0
 90
        2
176
     1
  1
strokes_ogs.tif
176
     1
290
     0
176
     1
 40
1.0
176
     1
 40
1.0
176
     1
  0
VISUALSTYLE
  5
37D
102
{ACAD_REACTORS
330
372
102
}
330
372
100
AcDbVisualStyle
  2
Dim
 70
    11
177
     3
291
     1
 70
    58
 90
        2
176
     1
 90
        2
176
     1
 90
        0
176
     1
 90
        0
176
     1
 40
0.6
176
     1
 40
30.0
176
     1
 62
     7
420
 16777215
176
     1
 90
        1
176
     1
 90
        4
176
     1
 62
     7
176
     1
 62
   257
176
     1
 90
        1
176
     1
 90
        1
176
     1
 40
1.0
176
     1
 90
        8
176
     1
 62
     7
176
     1
 40
1.0
176
     1
 90
        1
176
     1
 90
        6
176
     1
 90
        2
176
     1
 62
     7
176
     1
 90
        5
176
     1
 90
        0
176
     1
 90
        0
176
     1
290
     0
176
     1
 90
        1
176
     1
 40
-50.0
176
     1
 90
        0
176
     1
290
     0
176
     1
290
     1
176
     1
290
     1
176
     1
290
     0
176
     1
290
     0
176
     1
290
     0
176
     1
290
     0
176
     1
290
     0
176
     1
290
     0
176
     1
 90
       50
176
     1
 40
0.0
176
     1
 40
1.0
176
     1
 90
        0
176
     1
 62
    18
420
        0
176
     1
 90
       50
176
     1
 90
        3
176
     1
 62
     5
420
      255
176
     1
290
     0
176
     1
 90
       50
176
     1
 90
       50
176
     1
 90
       50
176
     1
290
     0
176
     1
 90
       50
176
     1
 62
   256
176
     0
 40
1.0
176
     0
 90
        2
176
     1
  1
strokes_ogs.tif
176
     1
290
     0
176
     1
 40
1.0
176
     1
 40
1.0
176
     1
  0
VISUALSTYLE
  5
38A
102
{ACAD_REACTORS
330
372
102
}
330
372
100
AcDbVisualStyle
  2
EdgeColorOff
 70
    22
177
     3
291
     1
 70
    58
 90
        2
176
     0
 90
        2
176
     0
 90
        0
176
     0
 90
        0
176
     0
 40
0.6
176
     0
 40
30.0
176
     0
 62
     7
420
 16777215
176
     0
 90
        1
176
     0
 90
        4
176
     0
 62
     7
176
     0
 62
   257
176
     0
 90
        1
176
     0
 90
        1
176
     0
 40
1.0
176
     0
 90
        8
176
     2
 62
     7
176
     0
 40
1.0
176
     0
 90
        1
176
     0
 90
        6
176
     0
 90
        2
176
     0
 62
     7
176
     0
 90
        5
176
     0
 90
        0
176
     0
 90
        0
176
     0
290
     0
176
     0
 90
        1
176
     0
 40
0.0
176
     0
 90
        0
176
     0
290
     0
176
     0
290
     1
176
     0
290
     1
176
     0
290
     0
176
     0
290
     0
176
     0
290
     0
176
     0
290
     0
176
     0
290
     0
176
     0
290
     0
176
     0
 90
       50
176
     0
 40
0.0
176
     0
 40
1.0
176
     0
 90
        0
176
     0
 62
    18
420
        0
176
     0
 90
       50
176
     0
 90
        3
176
     0
 62
     5
420
      255
176
     0
290
     0
176
     0
 90
       50
176
     0
 90
       50
176
     0
 90
       50
176
     0
290
     0
176
     0
 90
       50
176
     0
 62
   256
176
     0
 40
1.0
176
     0
 90
        2
176
     0
  1
strokes_ogs.tif
176
     0
290
     0
176
     0
 40
1.0
176
     0
 40
1.0
176
     0
  0
VISUALSTYLE
  5
381
102
{ACAD_REACTORS
330
372
102
}
330
372
100
AcDbVisualStyle
  2
Facepattern
 70
    15
177
     3
291
     1
 70
    58
 90
        2
176
     1
 90
        2
176
     1
 90
        0
176
     1
 90
        0
176
     1
 40
0.6
176
     1
 40
30.0
176
     1
 62
     7
420
 16777215
176
     1
 90
        1
176
     1
 90
        4
176
     1
 62
     7
176
     1
 62
   257
176
     1
 90
        1
176
     1
 90
        1
176
     1
 40
1.0
176
     1
 90
        8
176
     1
 62
     7
176
     1
 40
1.0
176
     1
 90
        1
176
     1
 90
        6
176
     1
 90
        2
176
     1
 62
     7
176
     1
 90
        5
176
     1
 90
        0
176
     1
 90
        0
176
     1
290
     0
176
     1
 90
        1
176
     1
 40
0.0
176
     1
 90
        0
176
     1
290
     0
176
     1
290
     1
176
     1
290
     1
176
     1
290
     0
176
     1
290
     0
176
     1
290
     0
176
     1
290
     0
176
     1
290
     0
176
     1
290
     0
176
     1
 90
       50
176
     1
 40
0.0
176
     1
 40
1.0
176
     1
 90
        0
176
     1
 62
    18
420
        0
176
     1
 90
       50
176
     1
 90
        3
176
     1
 62
     5
420
      255
176
     1
290
     0
176
     1
 90
       50
176
     1
 90
       50
176
     1
 90
       50
176
     1
290
     0
176
     1
 90
       50
176
     1
 62
   256
176
     0
 40
1.0
176
     0
 90
        2
176
     1
  1
strokes_ogs.tif
176
     1
290
     0
176
     1
 40
1.0
176
     1
 40
1.0
176
     1
  0
VISUALSTYLE
  5
373
102
{ACAD_REACTORS
330
372
102
}
330
372
100
AcDbVisualStyle
  2
Flat
 70
     0
177
     3
291
     1
 70
    58
 90
        2
176
     1
 90
        1
176
     1
 90
        1
176
     1
 90
        2
176
     1
 40
0.6
176
     1
 40
30.0
176
     1
 62
     7
420
 16777215
176
     1
 90
        0
176
     1
 90
        0
176
     1
 62
     7
176
     1
 62
   257
176
     1
 90
        1
176
     1
 90
        1
176
     1
 40
1.0
176
     1
 90
        8
176
     1
 62
     7
176
     1
 40
1.0
176
     1
 90
        1
176
     1
 90
        6
176
     1
 90
        2
176
     1
 62
     7
176
     1
 90
        5
176
     1
 90
        0
176
     1
 90
        0
176
     1
290
     0
176
     1
 90
       13
176
     1
 40
0.0
176
     1
 90
        0
176
     1
290
     0
176
     1
290
     1
176
     1
290
     1
176
     1
290
     0
176
     1
290
     0
176
     1
290
     0
176
     1
290
     0
176
     1
290
     0
176
     1
290
     0
176
     1
 90
       50
176
     1
 40
0.0
176
     1
 40
1.0
176
     1
 90
        0
176
     1
 62
    18
420
        0
176
     1
 90
       50
176
     1
 90
        3
176
     1
 62
     5
420
      255
176
     1
290
     0
176
     1
 90
       50
176
     1
 90
       50
176
     1
 90
       50
176
     1
290
     0
176
     1
 90
       50
176
     1
 62
   256
176
     0
 40
1.0
176
     0
 90
        2
176
     1
  1
strokes_ogs.tif
176
     1
290
     0
176
     1
 40
1.0
176
     1
 40
1.0
176
     1
  0
VISUALSTYLE
  5
374
102
{ACAD_REACTORS
330
372
102
}
330
372
100
AcDbVisualStyle
  2
FlatWithEdges
 70
     1
177
     3
291
     1
 70
    58
 90
        2
176
     1
 90
        1
176
     1
 90
        1
176
     1
 90
        2
176
     1
 40
0.6
176
     1
 40
30.0
176
     1
 62
     7
420
 16777215
176
     1
 90
        1
176
     1
 90
        0
176
     1
 62
     7
176
     1
 62
   257
176
     1
 90
        1
176
     1
 90
        1
176
     1
 40
1.0
176
     1
 90
        0
176
     1
 62
   257
176
     1
 40
1.0
176
     1
 90
        1
176
     1
 90
        6
176
     1
 90
        2
176
     1
 62
     7
176
     1
 90
        5
176
     1
 90
        0
176
     1
 90
        0
176
     1
290
     0
176
     1
 90
       13
176
     1
 40
0.0
176
     1
 90
        0
176
     1
290
     0
176
     1
290
     1
176
     1
290
     1
176
     1
290
     0
176
     1
290
     0
176
     1
290
     0
176
     1
290
     0
176
     1
290
     0
176
     1
290
     0
176
     1
 90
       50
176
     1
 40
0.0
176
     1
 40
1.0
176
     1
 90
        0
176
     1
 62
    18
420
        0
176
     1
 90
       50
176
     1
 90
        3
176
     1
 62
     5
420
      255
176
     1
290
     0
176
     1
 90
       50
176
     1
 90
       50
176
     1
 90
       50
176
     1
290
     0
176
     1
 90
       50
176
     1
 62
   256
176
     0
 40
1.0
176
     0
 90
        2
176
     1
  1
strokes_ogs.tif
176
     1
290
     0
176
     1
 40
1.0
176
     1
 40
1.0
176
     1
  0
VISUALSTYLE
  5
375
102
{ACAD_REACTORS
330
372
102
}
330
372
100
AcDbVisualStyle
  2
Gouraud
 70
     2
177
     3
291
     1
 70
    58
 90
        2
176
     1
 90
        2
176
     1
 90
        1
176
     1
 90
        2
176
     1
 40
0.6
176
     1
 40
30.0
176
     1
 62
     7
420
 16777215
176
     1
 90
        0
176
     1
 90
        0
176
     1
 62
     7
176
     1
 62
   257
176
     1
 90
        1
176
     1
 90
        1
176
     1
 40
1.0
176
     1
 90
        0
176
     1
 62
     7
176
     1
 40
1.0
176
     1
 90
        1
176
     1
 90
        6
176
     1
 90
        2
176
     1
 62
     7
176
     1
 90
        5
176
     1
 90
        0
176
     1
 90
        0
176
     1
290
     0
176
     1
 90
       13
176
     1
 40
0.0
176
     1
 90
        0
176
     1
290
     0
176
     1
290
     1
176
     1
290
     1
176
     1
290
     0
176
     1
290
     0
176
     1
290
     0
176
     1
290
     0
176
     1
290
     0
176
     1
290
     0
176
     1
 90
       50
176
     1
 40
0.0
176
     1
 40
1.0
176
     1
 90
        0
176
     1
 62
    18
420
        0
176
     1
 90
       50
176
     1
 90
        3
176
     1
 62
     5
420
      255
176
     1
290
     0
176
     1
 90
       50
176
     1
 90
       50
176
     1
 90
       50
176
     1
290
     0
176
     1
 90
       50
176
     1
 62
   256
176
     0
 40
1.0
176
     0
 90
        2
176
     1
  1
strokes_ogs.tif
176
     1
290
     0
176
     1
 40
1.0
176
     1
 40
1.0
176
     1
  0
VISUALSTYLE
  5
376
102
{ACAD_REACTORS
330
372
102
}
330
372
100
AcDbVisualStyle
  2
GouraudWithEdges
 70
     3
177
     3
291
     1
 70
    58
 90
        2
176
     1
 90
        2
176
     1
 90
        1
176
     1
 90
        2
176
     1
 40
0.6
176
     1
 40
30.0
176
     1
 62
     7
420
 16777215
176
     1
 90
        1
176
     1
 90
        0
176
     1
 62
     7
176
     1
 62
   257
176
     1
 90
        1
176
     1
 90
        1
176
     1
 40
1.0
176
     1
 90
        0
176
     1
 62
   257
176
     1
 40
1.0
176
     1
 90
        1
176
     1
 90
        6
176
     1
 90
        2
176
     1
 62
     7
176
     1
 90
        5
176
     1
 90
        0
176
     1
 90
        0
176
     1
290
     0
176
     1
 90
       13
176
     1
 40
0.0
176
     1
 90
        0
176
     1
290
     0
176
     1
290
     1
176
     1
290
     1
176
     1
290
     0
176
     1
290
     0
176
     1
290
     0
176
     1
290
     0
176
     1
290
     0
176
     1
290
     0
176
     1
 90
       50
176
     1
 40
0.0
176
     1
 40
1.0
176
     1
 90
        0
176
     1
 62
    18
420
        0
176
     1
 90
       50
176
     1
 90
        3
176
     1
 62
     5
420
      255
176
     1
290
     0
176
     1
 90
       50
176
     1
 90
       50
176
     1
 90
       50
176
     1
290
     0
176
     1
 90
       50
176
     1
 62
   256
176
     0
 40
1.0
176
     0
 90
        2
176
     1
  1
strokes_ogs.tif
176
     1
290
     0
176
     1
 40
1.0
176
     1
 40
1.0
176
     1
  0
VISUALSTYLE
  5
37A
102
{ACAD_REACTORS
330
372
102
}
330
372
100
AcDbVisualStyle
  2
Hidden
 70
     6
177
     3
291
     0
 70
    58
 90
        1
176
     1
 90
        2
176
     1
 90
        2
176
     1
 90
        0
176
     1
 40
0.6
176
     1
 40
30.0
176
     1
 62
     7
420
 16777215
176
     1
 90
        2
176
     1
 90
        2
176
     1
 62
     7
176
     1
 62
   257
176
     1
 90
        2
176
     1
 90
        1
176
     1
 40
40.0
176
     1
 90
        0
176
     1
 62
   257
176
     1
 40
1.0
176
     1
 90
        1
176
     1
 90
        6
176
     1
 90
        2
176
     1
 62
     7
176
     1
 90
        3
176
     1
 90
        0
176
     1
 90
        0
176
     1
290
     0
176
     1
 90
        1
176
     1
 40
0.0
176
     1
 90
        0
176
     1
290
     0
176
     1
290
     1
176
     1
290
     1
176
     1
290
     0
176
     1
290
     0
176
     1
290
     0
176
     1
290
     0
176
     1
290
     0
176
     1
290
     0
176
     1
 90
       50
176
     1
 40
0.0
176
     1
 40
1.0
176
     1
 90
        0
176
     1
 62
    18
420
        0
176
     1
 90
       50
176
     1
 90
        3
176
     1
 62
     5
420
      255
176
     1
290
     0
176
     1
 90
       50
176
     1
 90
       50
176
     1
 90
       50
176
     1
290
     0
176
     1
 90
       50
176
     1
 62
   256
176
     0
 40
1.0
176
     0
 90
        2
176
     1
  1
strokes_ogs.tif
176
     1
290
     0
176
     1
 40
1.0
176
     1
 40
1.0
176
     1
  0
VISUALSTYLE
  5
388
102
{ACAD_REACTORS
330
372
102
}
330
372
100
AcDbVisualStyle
  2
JitterOff
 70
    20
177
     3
291
     1
 70
    58
 90
        2
176
     0
 90
        2
176
     0
 90
        0
176
     0
 90
        0
176
     0
 40
0.6
176
     0
 40
30.0
176
     0
 62
     7
420
 16777215
176
     0
 90
        1
176
     0
 90
        4
176
     0
 62
     7
176
     0
 62
   257
176
     0
 90
        1
176
     0
 90
        1
176
     0
 40
1.0
176
     0
 90
       10
176
     2
 62
     7
176
     0
 40
1.0
176
     0
 90
        1
176
     0
 90
        6
176
     0
 90
        2
176
     0
 62
     7
176
     0
 90
        5
176
     0
 90
        0
176
     0
 90
        0
176
     0
290
     0
176
     0
 90
        1
176
     0
 40
0.0
176
     0
 90
        0
176
     0
290
     0
176
     0
290
     1
176
     0
290
     1
176
     0
290
     0
176
     0
290
     0
176
     0
290
     0
176
     0
290
     0
176
     0
290
     0
176
     0
290
     0
176
     0
 90
       50
176
     0
 40
0.0
176
     0
 40
1.0
176
     0
 90
        0
176
     0
 62
    18
420
        0
176
     0
 90
       50
176
     0
 90
        3
176
     0
 62
     5
420
      255
176
     0
290
     0
176
     0
 90
       50
176
     0
 90
       50
176
     0
 90
       50
176
     0
290
     0
176
     0
 90
       50
176
     0
 62
   256
176
     0
 40
1.0
176
     0
 90
        2
176
     0
  1
strokes_ogs.tif
176
     0
290
     0
176
     0
 40
1.0
176
     0
 40
1.0
176
     0
  0
VISUALSTYLE
  5
380
102
{ACAD_REACTORS
330
372
102
}
330
372
100
AcDbVisualStyle
  2
Linepattern
 70
    14
177
     3
291
     1
 70
    58
 90
        2
176
     1
 90
        2
176
     1
 90
        0
176
     1
 90
        0
176
     1
 40
0.6
176
     1
 40
30.0
176
     1
 62
     7
420
 16777215
176
     1
 90
        1
176
     1
 90
        4
176
     1
 62
     7
176
     1
 62
   257
176
     1
 90
        7
176
     1
 90
        7
176
     1
 40
1.0
176
     1
 90
        8
176
     1
 62
     7
176
     1
 40
1.0
176
     1
 90
        1
176
     1
 90
        6
176
     1
 90
        2
176
     1
 62
     7
176
     1
 90
        5
176
     1
 90
        0
176
     1
 90
        0
176
     1
290
     0
176
     1
 90
        1
176
     1
 40
0.0
176
     1
 90
        0
176
     1
290
     0
176
     1
290
     1
176
     1
290
     1
176
     1
290
     0
176
     1
290
     0
176
     1
290
     0
176
     1
290
     0
176
     1
290
     0
176
     1
290
     0
176
     1
 90
       50
176
     1
 40
0.0
176
     1
 40
1.0
176
     1
 90
        0
176
     1
 62
    18
420
        0
176
     1
 90
       50
176
     1
 90
        3
176
     1
 62
     5
420
      255
176
     1
290
     0
176
     1
 90
       50
176
     1
 90
       50
176
     1
 90
       50
176
     1
290
     0
176
     1
 90
       50
176
     1
 62
   256
176
     0
 40
1.0
176
     0
 90
        2
176
     1
  1
strokes_ogs.tif
176
     1
290
     0
176
     1
 40
1.0
176
     1
 40
1.0
176
     1
  0
VISUALSTYLE
  5
389
102
{ACAD_REACTORS
330
372
102
}
330
372
100
AcDbVisualStyle
  2
OverhangOff
 70
    21
177
     3
291
     1
 70
    58
 90
        2
176
     0
 90
        2
176
     0
 90
        0
176
     0
 90
        0
176
     0
 40
0.6
176
     0
 40
30.0
176
     0
 62
     7
420
 16777215
176
     0
 90
        1
176
     0
 90
        4
176
     0
 62
     7
176
     0
 62
   257
176
     0
 90
        1
176
     0
 90
        1
176
     0
 40
1.0
176
     0
 90
        9
176
     2
 62
     7
176
     0
 40
1.0
176
     0
 90
        1
176
     0
 90
        6
176
     0
 90
        2
176
     0
 62
     7
176
     0
 90
        5
176
     0
 90
        0
176
     0
 90
        0
176
     0
290
     0
176
     0
 90
        1
176
     0
 40
0.0
176
     0
 90
        0
176
     0
290
     0
176
     0
290
     1
176
     0
290
     1
176
     0
290
     0
176
     0
290
     0
176
     0
290
     0
176
     0
290
     0
176
     0
290
     0
176
     0
290
     0
176
     0
 90
       50
176
     0
 40
0.0
176
     0
 40
1.0
176
     0
 90
        0
176
     0
 62
    18
420
        0
176
     0
 90
       50
176
     0
 90
        3
176
     0
 62
     5
420
      255
176
     0
290
     0
176
     0
 90
       50
176
     0
 90
       50
176
     0
 90
       50
176
     0
290
     0
176
     0
 90
       50
176
     0
 62
   256
176
     0
 40
1.0
176
     0
 90
        2
176
     0
  1
strokes_ogs.tif
176
     0
290
     0
176
     0
 40
1.0
176
     0
 40
1.0
176
     0
  0
VISUALSTYLE
  5
37C
102
{ACAD_REACTORS
330
372
102
}
330
372
100
AcDbVisualStyle
  2
Realistic
 70
     8
177
     3
291
     0
 70
    58
 90
        2
176
     1
 90
        3
176
     1
 90
        0
176
     1
 90
        2
176
     1
 40
0.6
176
     1
 40
30.0
176
     1
 62
     7
420
 16777215
176
     1
 90
        0
176
     1
 90
        0
176
     1
 62
     7
176
     1
 62
   257
176
     1
 90
        1
176
     1
 90
        1
176
     1
 40
1.0
176
     1
 90
        8
176
     1
 62
   257
176
     1
 40
1.0
176
     1
 90
        1
176
     1
 90
        6
176
     1
 90
        2
176
     1
 62
     7
176
     1
 90
        3
176
     1
 90
        0
176
     1
 90
        0
176
     1
290
     0
176
     1
 90
       13
176
     1
 40
0.0
176
     1
 90
        0
176
     1
290
     0
176
     1
290
     1
176
     1
290
     1
176
     1
290
     0
176
     1
290
     0
176
     1
290
     0
176
     1
290
     0
176
     1
290
     0
176
     1
290
     0
176
     1
 90
       50
176
     1
 40
0.0
176
     1
 40
1.0
176
     1
 90
        0
176
     1
 62
    18
420
        0
176
     1
 90
       50
176
     1
 90
        3
176
     1
 62
     5
420
      255
176
     1
290
     0
176
     1
 90
       50
176
     1
 90
       50
176
     1
 90
       50
176
     1
290
     0
176
     1
 90
       50
176
     1
 62
   256
176
     0
 40
1.0
176
     0
 90
        2
176
     1
  1
strokes_ogs.tif
176
     1
290
     0
176
     1
 40
1.0
176
     1
 40
1.0
176
     1
  0
VISUALSTYLE
  5
387
102
{ACAD_REACTORS
330
372
102
}
330
372
100
AcDbVisualStyle
  2
Shaded
 70
    27
177
     3
291
     0
 70
    58
 90
        2
176
     1
 90
        2
176
     1
 90
        1
176
     1
 90
        2
176
     1
 40
0.6
176
     1
 40
30.0
176
     1
 62
     7
420
 16777215
176
     1
 90
        0
176
     1
 90
        4
176
     1
 62
     7
176
     1
 62
   257
176
     1
 90
        1
176
     1
 90
        1
176
     1
 40
1.0
176
     1
 90
        8
176
     1
 62
   257
176
     1
 40
1.0
176
     1
 90
        1
176
     1
 90
        6
176
     1
 90
        2
176
     1
 62
     8
420
  7895160
176
     1
 90
        3
176
     1
 90
        0
176
     1
 90
        0
176
     1
290
     0
176
     1
 90
        5
176
     1
 40
0.0
176
     1
 90
        0
176
     1
290
     0
176
     1
290
     1
176
     1
290
     1
176
     1
290
     0
176
     1
290
     0
176
     1
290
     0
176
     1
290
     0
176
     1
290
     0
176
     1
290
     0
176
     1
 90
       50
176
     1
 40
0.0
176
     1
 40
1.0
176
     1
 90
        0
176
     1
 62
    18
420
        0
176
     1
 90
       50
176
     1
 90
        3
176
     1
 62
     5
420
      255
176
     1
290
     0
176
     1
 90
       50
176
     1
 90
       50
176
     1
 90
       50
176
     1
290
     0
176
     1
 90
       50
176
     1
 62
   256
176
     0
 40
1.0
176
     0
 90
        2
176
     1
  1
strokes_ogs.tif
176
     1
290
     0
176
     1
 40
1.0
176
     1
 40
1.0
176
     1
  0
VISUALSTYLE
  5
386
102
{ACAD_REACTORS
330
372
102
}
330
372
100
AcDbVisualStyle
  2
Shaded with edges
 70
    26
177
     3
291
     0
 70
    58
 90
        2
176
     1
 90
        2
176
     1
 90
        1
176
     1
 90
        2
176
     1
 40
0.6
176
     1
 40
30.0
176
     1
 62
     7
420
 16777215
176
     1
 90
        1
176
     1
 90
       10
176
     1
 62
     7
176
     1
 62
   257
176
     1
 90
        2
176
     1
 90
        1
176
     1
 40
1.0
176
     1
 90
        8
176
     1
 62
   257
176
     1
 40
1.0
176
     1
 90
        1
176
     1
 90
        6
176
     1
 90
        2
176
     1
 62
     7
176
     1
 90
        3
176
     1
 90
        0
176
     1
 90
        0
176
     1
290
     0
176
     1
 90
        5
176
     1
 40
0.0
176
     1
 90
        0
176
     1
290
     0
176
     1
290
     1
176
     1
290
     1
176
     1
290
     0
176
     1
290
     0
176
     1
290
     0
176
     1
290
     0
176
     1
290
     0
176
     1
290
     0
176
     1
 90
       50
176
     1
 40
0.0
176
     1
 40
1.0
176
     1
 90
        0
176
     1
 62
    18
420
        0
176
     1
 90
       50
176
     1
 90
        3
176
     1
 62
     5
420
      255
176
     1
290
     0
176
     1
 90
       50
176
     1
 90
       50
176
     1
 90
       50
176
     1
290
     0
176
     1
 90
       50
176
     1
 62
   256
176
     0
 40
1.0
176
     0
 90
        2
176
     1
  1
strokes_ogs.tif
176
     1
290
     0
176
     1
 40
1.0
176
     1
 40
1.0
176
     1
  0
VISUALSTYLE
  5
383
102
{ACAD_REACTORS
330
372
102
}
330
372
100
AcDbVisualStyle
  2
Shades of Gray
 70
    23
177
     3
291
     0
 70
    58
 90
        2
176
     1
 90
        2
176
     1
 90
        3
176
     1
 90
        0
176
     1
 40
0.6
176
     1
 40
30.0
176
     1
 62
     7
420
 16777215
176
     1
 90
        2
176
     1
 90
        2
176
     1
 62
     7
176
     1
 62
     7
176
     1
 90
        1
176
     1
 90
        1
176
     1
 40
40.0
176
     1
 90
        8
176
     1
 62
     7
176
     1
 40
1.0
176
     1
 90
        1
176
     1
 90
        6
176
     1
 90
        2
176
     1
 62
     7
176
     1
 90
        3
176
     1
 90
        0
176
     1
 90
        0
176
     1
290
     0
176
     1
 90
        1
176
     1
 40
0.0
176
     1
 90
        0
176
     1
290
     0
176
     1
290
     1
176
     1
290
     1
176
     1
290
     0
176
     1
290
     0
176
     1
290
     0
176
     1
290
     0
176
     1
290
     0
176
     1
290
     0
176
     1
 90
       50
176
     1
 40
0.0
176
     1
 40
1.0
176
     1
 90
        0
176
     1
 62
    18
420
        0
176
     1
 90
       50
176
     1
 90
        3
176
     1
 62
     5
420
      255
176
     1
290
     0
176
     1
 90
       50
176
     1
 90
       50
176
     1
 90
       50
176
     1
290
     0
176
     1
 90
       50
176
     1
 62
   256
176
     0
 40
1.0
176
     0
 90
        2
176
     1
  1
strokes_ogs.tif
176
     1
290
     0
176
     1
 40
1.0
176
     1
 40
1.0
176
     1
  0
VISUALSTYLE
  5
384
102
{ACAD_REACTORS
330
372
102
}
330
372
100
AcDbVisualStyle
  2
Sketchy
 70
    24
177
     3
291
     0
 70
    58
 90
        1
176
     1
 90
        2
176
     1
 90
        2
176
     1
 90
        0
176
     1
 40
0.6
176
     1
 40
30.0
176
     1
 62
     7
420
 16777215
176
     1
 90
        2
176
     1
 90
        2
176
     1
 62
     7
176
     1
 62
     7
176
     1
 90
        1
176
     1
 90
        1
176
     1
 40
40.0
176
     1
 90
       11
176
     1
 62
     7
176
     1
 40
1.0
176
     1
 90
        1
176
     1
 90
        6
176
     1
 90
        2
176
     1
 62
     7
176
     1
 90
        6
176
     1
 90
        0
176
     1
 90
        0
176
     1
290
     0
176
     1
 90
        1
176
     1
 40
0.0
176
     1
 90
        0
176
     1
290
     0
176
     1
290
     1
176
     1
290
     1
176
     1
290
     0
176
     1
290
     0
176
     1
290
     0
176
     1
290
     0
176
     1
290
     0
176
     1
290
     0
176
     1
 90
       50
176
     1
 40
0.0
176
     1
 40
1.0
176
     1
 90
        0
176
     1
 62
    18
420
        0
176
     1
 90
       50
176
     1
 90
        3
176
     1
 62
     5
420
      255
176
     1
290
     0
176
     1
 90
       50
176
     1
 90
       50
176
     1
 90
       50
176
     1
290
     0
176
     1
 90
       50
176
     1
 62
   256
176
     0
 40
1.0
176
     0
 90
        2
176
     1
  1
strokes_ogs.tif
176
     1
290
     0
176
     1
 40
1.0
176
     1
 40
1.0
176
     1
  0
VISUALSTYLE
  5
37F
102
{ACAD_REACTORS
330
372
102
}
330
372
100
AcDbVisualStyle
  2
Thicken
 70
    13
177
     3
291
     1
 70
    58
 90
        2
176
     1
 90
        2
176
     1
 90
        0
176
     1
 90
        0
176
     1
 40
0.6
176
     1
 40
30.0
176
     1
 62
     7
420
 16777215
176
     1
 90
        1
176
     1
 90
        4
176
     1
 62
     7
176
     1
 62
   257
176
     1
 90
        1
176
     1
 90
        1
176
     1
 40
1.0
176
     1
 90
       12
176
     1
 62
     7
176
     1
 40
1.0
176
     1
 90
        1
176
     1
 90
        6
176
     1
 90
        2
176
     1
 62
     7
176
     1
 90
        5
176
     1
 90
        0
176
     1
 90
        0
176
     1
290
     0
176
     1
 90
        1
176
     1
 40
0.0
176
     1
 90
        0
176
     1
290
     0
176
     1
290
     1
176
     1
290
     1
176
     1
290
     0
176
     1
290
     0
176
     1
290
     0
176
     1
290
     0
176
     1
290
     0
176
     1
290
     0
176
     1
 90
       50
176
     1
 40
0.0
176
     1
 40
1.0
176
     1
 90
        0
176
     1
 62
    18
420
        0
176
     1
 90
       50
176
     1
 90
        3
176
     1
 62
     5
420
      255
176
     1
290
     0
176
     1
 90
       50
176
     1
 90
       50
176
     1
 90
       50
176
     1
290
     0
176
     1
 90
       50
176
     1
 62
   256
176
     0
 40
1.0
176
     0
 90
        2
176
     1
  1
strokes_ogs.tif
176
     1
290
     0
176
     1
 40
1.0
176
     1
 40
1.0
176
     1
  0
VISUALSTYLE
  5
379
102
{ACAD_REACTORS
330
372
102
}
330
372
100
AcDbVisualStyle
  2
Wireframe
 70
     5
177
     3
291
     0
 70
    58
 90
        0
176
     1
 90
        2
176
     1
 90
        0
176
     1
 90
        0
176
     1
 40
0.6
176
     1
 40
30.0
176
     1
 62
     7
420
 16777215
176
     1
 90
        1
176
     1
 90
        4
176
     1
 62
     7
176
     1
 62
   257
176
     1
 90
        1
176
     1
 90
        1
176
     1
 40
1.0
176
     1
 90
        0
176
     1
 62
   257
176
     1
 40
1.0
176
     1
 90
        1
176
     1
 90
        6
176
     1
 90
        2
176
     1
 62
     7
176
     1
 90
        3
176
     1
 90
        0
176
     1
 90
        0
176
     1
290
     0
176
     1
 90
        1
176
     1
 40
0.0
176
     1
 90
        0
176
     1
290
     0
176
     1
290
     1
176
     1
290
     1
176
     1
290
     0
176
     1
290
     0
176
     1
290
     0
176
     1
290
     0
176
     1
290
     0
176
     1
290
     0
176
     1
 90
       50
176
     1
 40
0.0
176
     1
 40
1.0
176
     1
 90
        0
176
     1
 62
    18
420
        0
176
     1
 90
       50
176
     1
 90
        3
176
     1
 62
     5
420
      255
176
     1
290
     0
176
     1
 90
       50
176
     1
 90
       50
176
     1
 90
       50
176
     1
290
     0
176
     1
 90
       50
176
     1
 62
   256
176
     0
 40
1.0
176
     0
 90
        2
176
     1
  1
strokes_ogs.tif
176
     1
290
     0
176
     1
 40
1.0
176
     1
 40
1.0
176
     1
  0
VISUALSTYLE
  5
385
102
{ACAD_REACTORS
330
372
102
}
330
372
100
AcDbVisualStyle
  2
X-Ray
 70
    25
177
     3
291
     0
 70
    58
 90
        2
176
     1
 90
        2
176
     1
 90
        1
176
     1
 90
        1
176
     1
 40
0.5
176
     1
 40
30.0
176
     1
 62
     7
420
 16777215
176
     1
 90
        1
176
     1
 90
        0
176
     1
 62
     7
176
     1
 62
   257
176
     1
 90
        1
176
     1
 90
        1
176
     1
 40
1.0
176
     1
 90
        8
176
     1
 62
     7
176
     1
 40
1.0
176
     1
 90
        1
176
     1
 90
        6
176
     1
 90
        2
176
     1
 62
     7
176
     1
 90
        3
176
     1
 90
        0
176
     1
 90
        0
176
     1
290
     0
176
     1
 90
       13
176
     1
 40
0.0
176
     1
 90
        0
176
     1
290
     0
176
     1
290
     1
176
     1
290
     1
176
     1
290
     0
176
     1
290
     0
176
     1
290
     0
176
     1
290
     0
176
     1
290
     0
176
     1
290
     0
176
     1
 90
       50
176
     1
 40
0.0
176
     1
 40
1.0
176
     1
 90
        0
176
     1
 62
    18
420
        0
176
     1
 90
       50
176
     1
 90
        3
176
     1
 62
     5
420
      255
176
     1
290
     0
176
     1
 90
       50
176
     1
 90
       50
176
     1
 90
       50
176
     1
290
     0
176
     1
 90
       50
176
     1
 62
   256
176
     0
 40
1.0
176
     0
 90
        2
176
     1
  1
strokes_ogs.tif
176
     1
290
     0
176
     1
 40
1.0
176
     1
 40
1.0
176
     1
  0
DICTIONARYVAR
  5
3A1
102
{ACAD_REACTORS
330
39B
102
}
330
39B
100
DictionaryVariables
280
     0
  1
1:1
  0
DICTIONARYVAR
  5
39D
102
{ACAD_REACTORS
330
39B
102
}
330
39B
100
DictionaryVariables
280
     0
  1
STANDARD
  0
DICTIONARYVAR
  5
39C
102
{ACAD_REACTORS
330
39B
102
}
330
39B
100
DictionaryVariables
280
     0
  1
STANDARD
  0
DICTIONARYVAR
  5
39E
102
{ACAD_REACTORS
330
39B
102
}
330
39B
100
DictionaryVariables
280
     0
  1
Metric50
  0
DICTIONARYVAR
  5
39F
102
{ACAD_REACTORS
330
39B
102
}
330
39B
100
DictionaryVariables
280
     0
  1
Metric50
  0
DICTIONARYVAR
  5
3A3
102
{ACAD_REACTORS
330
39B
102
}
330
39B
100
DictionaryVariables
280
     0
  1
1
  0
DICTIONARYVAR
  5
3A4
102
{ACAD_REACTORS
330
39B
102
}
330
39B
100
DictionaryVariables
280
     0
  1
15
  0
DICTIONARYVAR
  5
3A2
102
{ACAD_REACTORS
330
39B
102
}
330
39B
100
DictionaryVariables
280
     0
  1
0
  0
DICTIONARYVAR
  5
3A0
102
{ACAD_REACTORS
330
39B
102
}
330
39B
100
DictionaryVariables
280
     0
  1
0
  0
DICTIONARY
  5
8EE
330
393
100
AcDbDictionary
280
     1
281
     1
  3
ACAD_XREC_ROUNDTRIP
360
8EF
  0
DICTIONARY
  5
363
330
362
100
AcDbDictionary
280
     1
281
     1
  3
BUMPTILE
360
365
  3
DIFFUSETILE
360
364
  3
OPACITYTILE
360
368
  3
REFLECTIONTILE
360
367
  3
REFRACTIONTILE
360
369
  3
SPECULARTILE
360
366
  0
DICTIONARY
  5
35B
330
35A
100
AcDbDictionary
280
     1
281
     1
  3
BUMPTILE
360
35D
  3
DIFFUSETILE
360
35C
  3
OPACITYTILE
360
360
  3
REFLECTIONTILE
360
35F
  3
REFRACTIONTILE
360
361
  3
SPECULARTILE
360
35E
  0
DICTIONARY
  5
36B
330
36A
100
AcDbDictionary
280
     1
281
     1
  3
BUMPTILE
360
36D
  3
DIFFUSETILE
360
36C
  3
OPACITYTILE
360
370
  3
REFLECTIONTILE
360
36F
  3
REFRACTIONTILE
360
371
  3
SPECULARTILE
360
36E
  0
DICTIONARY
  5
8EC
330
391
100
AcDbDictionary
280
     1
281
     1
  3
ACAD_XREC_ROUNDTRIP
360
8ED
  0
DICTIONARY
  5
8EA
330
38D
100
AcDbDictionary
280
     1
281
     1
  3
ACAD_ROUNDTRIP_2008_TABLESTYLE_CELLSTYLEMAP
360
8EB
  0
XRECORD
  5
8EF
102
{ACAD_REACTORS
330
8EE
102
}
330
8EE
100
AcDbXrecord
280
     1
102
DISPLAYNAME
  1
Metric50
102
FLAGS
 90
        0
  0
XRECORD
  5
365
102
{ACAD_REACTORS
330
363
102
}
330
363
100
AcDbXrecord
280
     1
270
     1
271
     1
  0
XRECORD
  5
364
102
{ACAD_REACTORS
330
363
102
}
330
363
100
AcDbXrecord
280
     1
270
     1
271
     1
  0
XRECORD
  5
368
102
{ACAD_REACTORS
330
363
102
}
330
363
100
AcDbXrecord
280
     1
270
     1
271
     1
  0
XRECORD
  5
367
102
{ACAD_REACTORS
330
363
102
}
330
363
100
AcDbXrecord
280
     1
270
     1
271
     1
  0
XRECORD
  5
369
102
{ACAD_REACTORS
330
363
102
}
330
363
100
AcDbXrecord
280
     1
270
     1
271
     1
  0
XRECORD
  5
366
102
{ACAD_REACTORS
330
363
102
}
330
363
100
AcDbXrecord
280
     1
270
     1
271
     1
  0
XRECORD
  5
35D
102
{ACAD_REACTORS
330
35B
102
}
330
35B
100
AcDbXrecord
280
     1
270
     1
271
     1
  0
XRECORD
  5
35C
102
{ACAD_REACTORS
330
35B
102
}
330
35B
100
AcDbXrecord
280
     1
270
     1
271
     1
  0
XRECORD
  5
360
102
{ACAD_REACTORS
330
35B
102
}
330
35B
100
AcDbXrecord
280
     1
270
     1
271
     1
  0
XRECORD
  5
35F
102
{ACAD_REACTORS
330
35B
102
}
330
35B
100
AcDbXrecord
280
     1
270
     1
271
     1
  0
XRECORD
  5
361
102
{ACAD_REACTORS
330
35B
102
}
330
35B
100
AcDbXrecord
280
     1
270
     1
271
     1
  0
XRECORD
  5
35E
102
{ACAD_REACTORS
330
35B
102
}
330
35B
100
AcDbXrecord
280
     1
270
     1
271
     1
  0
XRECORD
  5
36D
102
{ACAD_REACTORS
330
36B
102
}
330
36B
100
AcDbXrecord
280
     1
270
     1
271
     1
  0
XRECORD
  5
36C
102
{ACAD_REACTORS
330
36B
102
}
330
36B
100
AcDbXrecord
280
     1
270
     1
271
     1
  0
XRECORD
  5
370
102
{ACAD_REACTORS
330
36B
102
}
330
36B
100
AcDbXrecord
280
     1
270
     1
271
     1
  0
XRECORD
  5
36F
102
{ACAD_REACTORS
330
36B
102
}
330
36B
100
AcDbXrecord
280
     1
270
     1
271
     1
  0
XRECORD
  5
371
102
{ACAD_REACTORS
330
36B
102
}
330
36B
100
AcDbXrecord
280
     1
270
     1
271
     1
  0
XRECORD
  5
36E
102
{ACAD_REACTORS
330
36B
102
}
330
36B
100
AcDbXrecord
280
     1
270
     1
271
     1
  0
XRECORD
  5
8ED
102
{ACAD_REACTORS
330
8EC
102
}
330
8EC
100
AcDbXrecord
280
     1
102
DISPLAYNAME
  1
Metric50
102
FLAGS
 90
        0
  0
CELLSTYLEMAP
  5
8EB
102
{ACAD_REACTORS
330
8EA
102
}
330
8EA
100
AcDbCellStyleMap
 90
        3
300
CELLSTYLE
  1
TABLEFORMAT_BEGIN
 90
        5
170
     1
 91
        0
 92
    32768
 62
   257
 93
        1
300
CONTENTFORMAT
  1
CONTENTFORMAT_BEGIN
 90
        0
 91
        0
 92
      512
 93
        0
300

 40
0.0
140
1.0
 94
        5
 62
     0
340
11
144
6.0
309
CONTENTFORMAT_END
171
     1
301
MARGIN
  1
CELLMARGIN_BEGIN
 40
1.5
 40
1.5
 40
1.5
 40
1.5
 40
4.5
 40
4.5
309
CELLMARGIN_END
 94
        6
 95
        1
302
GRIDFORMAT
  1
GRIDFORMAT_BEGIN
 90
        0
 91
        1
 62
     0
 92
       -2
340
0
 93
        0
 40
1.125
309
GRIDFORMAT_END
 95
        2
302
GRIDFORMAT
  1
GRIDFORMAT_BEGIN
 90
        0
 91
        1
 62
     0
 92
       -2
340
0
 93
        0
 40
1.125
309
GRIDFORMAT_END
 95
        4
302
GRIDFORMAT
  1
GRIDFORMAT_BEGIN
 90
        0
 91
        1
 62
     0
 92
       -2
340
0
 93
        0
 40
1.125
309
GRIDFORMAT_END
 95
        8
302
GRIDFORMAT
  1
GRIDFORMAT_BEGIN
 90
        0
 91
        1
 62
     0
 92
       -2
340
0
 93
        0
 40
1.125
309
GRIDFORMAT_END
 95
       16
302
GRIDFORMAT
  1
GRIDFORMAT_BEGIN
 90
        0
 91
        1
 62
     0
 92
       -2
340
0
 93
        0
 40
1.125
309
GRIDFORMAT_END
 95
       32
302
GRIDFORMAT
  1
GRIDFORMAT_BEGIN
 90
        0
 91
        1
 62
     0
 92
       -2
340
0
 93
        0
 40
1.125
309
GRIDFORMAT_END
309
TABLEFORMAT_END
  1
CELLSTYLE_BEGIN
 90
        1
 91
        1
300
_TITLE
309
CELLSTYLE_END
300
CELLSTYLE
  1
TABLEFORMAT_BEGIN
 90
        5
170
     1
 91
        0
 92
        0
 62
   257
 93
        1
300
CONTENTFORMAT
  1
CONTENTFORMAT_BEGIN
 90
        0
 91
        0
 92
      512
 93
        0
300

 40
0.0
140
1.0
 94
        5
 62
     0
340
11
144
4.5
309
CONTENTFORMAT_END
171
     1
301
MARGIN
  1
CELLMARGIN_BEGIN
 40
1.5
 40
1.5
 40
1.5
 40
1.5
 40
4.5
 40
4.5
309
CELLMARGIN_END
 94
        6
 95
        1
302
GRIDFORMAT
  1
GRIDFORMAT_BEGIN
 90
        0
 91
        1
 62
     0
 92
       -2
340
0
 93
        0
 40
1.125
309
GRIDFORMAT_END
 95
        2
302
GRIDFORMAT
  1
GRIDFORMAT_BEGIN
 90
        0
 91
        1
 62
     0
 92
       -2
340
0
 93
        0
 40
1.125
309
GRIDFORMAT_END
 95
        4
302
GRIDFORMAT
  1
GRIDFORMAT_BEGIN
 90
        0
 91
        1
 62
     0
 92
       -2
340
0
 93
        0
 40
1.125
309
GRIDFORMAT_END
 95
        8
302
GRIDFORMAT
  1
GRIDFORMAT_BEGIN
 90
        0
 91
        1
 62
     0
 92
       -2
340
0
 93
        0
 40
1.125
309
GRIDFORMAT_END
 95
       16
302
GRIDFORMAT
  1
GRIDFORMAT_BEGIN
 90
        0
 91
        1
 62
     0
 92
       -2
340
0
 93
        0
 40
1.125
309
GRIDFORMAT_END
 95
       32
302
GRIDFORMAT
  1
GRIDFORMAT_BEGIN
 90
        0
 91
        1
 62
     0
 92
       -2
340
0
 93
        0
 40
1.125
309
GRIDFORMAT_END
309
TABLEFORMAT_END
  1
CELLSTYLE_BEGIN
 90
        2
 91
        1
300
_HEADER
309
CELLSTYLE_END
300
CELLSTYLE
  1
TABLEFORMAT_BEGIN
 90
        5
170
     1
 91
        0
 92
        0
 62
   257
 93
        1
300
CONTENTFORMAT
  1
CONTENTFORMAT_BEGIN
 90
        0
 91
        0
 92
      512
 93
        0
300

 40
0.0
140
1.0
 94
        2
 62
     0
340
11
144
4.5
309
CONTENTFORMAT_END
171
     1
301
MARGIN
  1
CELLMARGIN_BEGIN
 40
1.5
 40
1.5
 40
1.5
 40
1.5
 40
4.5
 40
4.5
309
CELLMARGIN_END
 94
        6
 95
        1
302
GRIDFORMAT
  1
GRIDFORMAT_BEGIN
 90
        0
 91
        1
 62
     0
 92
       -2
340
0
 93
        0
 40
1.125
309
GRIDFORMAT_END
 95
        2
302
GRIDFORMAT
  1
GRIDFORMAT_BEGIN
 90
        0
 91
        1
 62
     0
 92
       -2
340
0
 93
        0
 40
1.125
309
GRIDFORMAT_END
 95
        4
302
GRIDFORMAT
  1
GRIDFORMAT_BEGIN
 90
        0
 91
        1
 62
     0
 92
       -2
340
0
 93
        0
 40
1.125
309
GRIDFORMAT_END
 95
        8
302
GRIDFORMAT
  1
GRIDFORMAT_BEGIN
 90
        0
 91
        1
 62
     0
 92
       -2
340
0
 93
        0
 40
1.125
309
GRIDFORMAT_END
 95
       16
302
GRIDFORMAT
  1
GRIDFORMAT_BEGIN
 90
        0
 91
        1
 62
     0
 92
       -2
340
0
 93
        0
 40
1.125
309
GRIDFORMAT_END
 95
       32
302
GRIDFORMAT
  1
GRIDFORMAT_BEGIN
 90
        0
 91
        1
 62
     0
 92
       -2
340
0
 93
        0
 40
1.125
309
GRIDFORMAT_END
309
TABLEFORMAT_END
  1
CELLSTYLE_BEGIN
 90
        3
 91
        2
300
_DATA
309
CELLSTYLE_END
  0
ENDSEC
  0
SECTION
  2
ACDSDATA
 70
     2
 71
     8
  0
ACDSSCHEMA
 90
        0
  1
AcDb_Thumbnail_Schema
  2
AcDbDs::ID
280
    10
 91
        8
  2
Thumbnail_Data
280
    15
 91
        0
101
ACDSRECORD
 95
        0
 90
        1
  2
AcDbDs::TreatedAsObjectData
280
     1
291
     1
101
ACDSRECORD
 95
        0
 90
        2
  2
AcDbDs::Legacy
280
     1
291
     1
101
ACDSRECORD
  1
AcDbDs::ID
 90
        3
  2
AcDs:Indexable
280
     1
291
     1
101
ACDSRECORD
  1
AcDbDs::ID
 90
        4
  2
AcDbDs::HandleAttribute
280
     7
282
     1
  0
ACDSSCHEMA
 90
        1
  1
AcDbDs::TreatedAsObjectDataSchema
  2
AcDbDs::TreatedAsObjectData
280
     1
 91
        0
  0
ACDSSCHEMA
 90
        2
  1
AcDbDs::LegacySchema
  2
AcDbDs::Legacy
280
     1
 91
        0
  0
ACDSSCHEMA
 90
        3
  1
AcDbDs::IndexedPropertySchema
  2
AcDs:Indexable
280
     1
 91
        0
  0
ACDSSCHEMA
 90
        4
  1
AcDbDs::HandleAttributeSchema
  2
AcDbDs::HandleAttribute
280
     7
 91
        1
284
     1
  0
ACDSRECORD
 90
        0
  2
AcDbDs::ID
280
    10
320
22
  2
Thumbnail_Data
280
    15
 94
     1285
310
89504E470D0A1A0A0000000D49484452000001000000007508030000009634CF9200000300504C5445212830000000C8C8C80000000000000000000000000000000000000000000000000000330000660000990000CC0000FF0033000033330033660033990033CC0033FF0066000066330066660066990066CC0066FF0099
310
000099330099660099990099CC0099FF00CC0000CC3300CC6600CC9900CCCC00CCFF00FF0000FF3300FF6600FF9900FFCC00FFFF3300003300333300663300993300CC3300FF3333003333333333663333993333CC3333FF3366003366333366663366993366CC3366FF3399003399333399663399993399CC3399FF33CC00
310
33CC3333CC6633CC9933CCCC33CCFF33FF0033FF3333FF6633FF9933FFCC33FFFF6600006600336600666600996600CC6600FF6633006633336633666633996633CC6633FF6666006666336666666666996666CC6666FF6699006699336699666699996699CC6699FF66CC0066CC3366CC6666CC9966CCCC66CCFF66FF0066
310
FF3366FF6666FF9966FFCC66FFFF9900009900339900669900999900CC9900FF9933009933339933669933999933CC9933FF9966009966339966669966999966CC9966FF9999009999339999669999999999CC9999FF99CC0099CC3399CC6699CC9999CCCC99CCFF99FF0099FF3399FF6699FF9999FFCC99FFFFCC0000CC00
310
33CC0066CC0099CC00CCCC00FFCC3300CC3333CC3366CC3399CC33CCCC33FFCC6600CC6633CC6666CC6699CC66CCCC66FFCC9900CC9933CC9966CC9999CC99CCCC99FFCCCC00CCCC33CCCC66CCCC99CCCCCCCCCCFFCCFF00CCFF33CCFF66CCFF99CCFFCCCCFFFFFF0000FF0033FF0066FF0099FF00CCFF00FFFF3300FF3333
310
FF3366FF3399FF33CCFF33FFFF6600FF6633FF6666FF6699FF66CCFF66FFFF9900FF9933FF9966FF9999FF99CCFF99FFFFCC00FFCC33FFCC66FFCC99FFCCCCFFCCFFFFFF00FFFF33FFFF66FFFF99FFFFCCFFFFFF0000000D0D0D1A1A1A2828283535354343435050505D5D5D6B6B6B787878868686939393A1A1A1AEAEAEBB
310
BBBBC9C9C9D6D6D6E4E4E4F1F1F1FFFFFF000000000000000000000000000000000000000000000000000000000000B21171F6000001C04944415478DAED9C516EC3201005B9FFA1DEADF6BF6A93BAA1062FB642B47867D4CFA71A261BC080520A0000000000000000C079ECB3041470E3A72160B849526E01D2A70CC4AD00
310
5101F5C4E04F1DE54A24A60055021EED3EEAA09FE846420A5025C0EA3E1C95715F4137125F80B9ADF5130791C002D468A1B9E398EF68241F4880FF790D7CA2569612A01701E68E597EE23012BD02720A289D1100016904FC4D84892BA03908E498054A7F1E4CB20E289D8590B9BD337F25680BAC04EBB7E1ADC5AF6DD5FE45
310
67D71BF991C0FB01FF3B58BFCBAA0E3412BB4C2B5296D913DC355C6E629F311B7C5A4001E976841080000420E0244A2E40170D50018C010840405001734F47155E80A61AD8FE7BF80AF02FF4D8A5885619034EEE88DD644F100108400002108000042417D0381C4D24E0FB6C2CB1006DFDEFB55603BD9313695E408823E0F0
310
745C6EEFAACC8202B603E27915A09FBFBC63C043F2B215F08641F0F12DCB2BE039CE44BE2E8F80DC024AE6AF406FD7369300A51750320BB87E51F436024A7601EDCBD20878B78015AECB4F3A1BFC9D6AE25F979F86C26F886876FF735740F085D04D9F36D6A4EC3FA20200000000000000000000000000109C2F7310BDC26B
310
541FAE0000000049454E44AE426082
  0
ENDSEC
  0
EOF
